<?xml version="1.0" encoding="UTF-8" standalone="no"?>
<!-- Generator: Adobe Illustrator 22.0.0, SVG Export Plug-In . SVG Version: 6.00 Build 0)  -->

<svg
   xmlns:dc="http://purl.org/dc/elements/1.1/"
   xmlns:cc="http://creativecommons.org/ns#"
   xmlns:rdf="http://www.w3.org/1999/02/22-rdf-syntax-ns#"
   xmlns:svg="http://www.w3.org/2000/svg"
   xmlns="http://www.w3.org/2000/svg"
   xmlns:sodipodi="http://sodipodi.sourceforge.net/DTD/sodipodi-0.dtd"
   xmlns:inkscape="http://www.inkscape.org/namespaces/inkscape"
   version="1.1"
   id="Layer_1"
   x="0px"
   y="0px"
   viewBox="0 0 280.10001 118"
   xml:space="preserve"
   sodipodi:docname="bash-logo.svg"
   width="280.10001"
   height="118"
   inkscape:version="0.92.3 (2405546, 2018-03-11)"><metadata
   id="metadata174"><rdf:RDF><cc:Work
       rdf:about=""><dc:format>image/svg+xml</dc:format><dc:type
         rdf:resource="http://purl.org/dc/dcmitype/StillImage" /></cc:Work></rdf:RDF></metadata><defs
   id="defs172" /><sodipodi:namedview
   pagecolor="#ffffff"
   bordercolor="#666666"
   borderopacity="1"
   objecttolerance="10"
   gridtolerance="10"
   guidetolerance="10"
   inkscape:pageopacity="0"
   inkscape:pageshadow="2"
   inkscape:window-width="1920"
   inkscape:window-height="1001"
   id="namedview170"
   showgrid="false"
   inkscape:zoom="4.04"
   inkscape:cx="140.1"
   inkscape:cy="60.2"
   inkscape:window-x="2391"
   inkscape:window-y="-9"
   inkscape:window-maximized="1"
   inkscape:current-layer="Layer_1" />
<style
   type="text/css"
   id="style93">
	.st0{fill:#FFFFFF;}
	.st1{fill:#2A3238;}
	.st2{fill:#4DA925;}
</style>
<g
   id="g167"
   transform="translate(-9.9,-42.2)">
	<g
   id="g113">
		<g
   id="g97">
			<path
   class="st0"
   d="M 105.9,66.3 68.7,44.2 c -4.4,-2.6 -9.9,-2.6 -14.4,0 L 17.1,66.3 c -4.4,2.6 -7.2,7.5 -7.2,12.8 v 44.2 c 0,5.3 2.7,10.1 7.2,12.8 l 37.2,22.1 c 2.2,1.3 4.7,2 7.2,2 2.5,0 5,-0.7 7.2,-2 l 37.2,-22.1 c 4.4,-2.6 7.2,-7.5 7.2,-12.8 V 79 c 0,-5.2 -2.7,-10.1 -7.2,-12.7 z"
   id="path95"
   inkscape:connector-curvature="0"
   style="fill:#ffffff" />
		</g>
		<g
   id="g103">
			<g
   id="g101">
				<path
   class="st1"
   d="M 105.9,66.3 68.7,44.2 c -2.2,-1.3 -4.7,-2 -7.2,-2 -2.5,0 -5,0.7 -7.2,2 L 17.1,66.3 c -4.4,2.6 -7.2,7.5 -7.2,12.8 v 44.2 c 0,5.3 2.7,10.1 7.2,12.8 l 37.2,22.1 c 2.2,1.3 4.7,2 7.2,2 2.5,0 5,-0.7 7.2,-2 l 37.2,-22.1 c 4.4,-2.6 7.2,-7.5 7.2,-12.8 V 79 c 0,-5.2 -2.7,-10.1 -7.2,-12.7 z M 55.6,155.8 18.4,133.7 c -3.6,-2.2 -5.9,-6.2 -5.9,-10.5 V 79 c 0,-4.3 2.3,-8.4 5.9,-10.5 L 55.6,46.4 c 1.8,-1.1 3.8,-1.6 5.9,-1.6 2.1,0 4.1,0.6 5.9,1.6 l 37.2,22.1 c 3.1,1.8 5.1,5 5.7,8.5 -1.2,-2.6 -4,-3.4 -7.3,-1.5 L 67.9,97.3 c -4.4,2.6 -7.6,5.4 -7.6,10.7 v 43.4 c 0,3.2 1.3,5.2 3.2,5.8 -0.6,0.1 -1.3,0.2 -2,0.2 -2,0.1 -4.1,-0.5 -5.9,-1.6 z"
   id="path99"
   inkscape:connector-curvature="0"
   style="fill:#2a3238" />
			</g>
		</g>
		<g
   id="g107">
			<path
   class="st2"
   d="m 96.2,127.5 -9.3,5.5 c -0.2,0.1 -0.4,0.3 -0.4,0.6 v 2.4 c 0,0.3 0.2,0.4 0.4,0.3 l 9.4,-5.7 c 0.2,-0.1 0.3,-0.4 0.3,-0.7 v -2.1 c 0,-0.3 -0.2,-0.4 -0.4,-0.3 z"
   id="path105"
   inkscape:connector-curvature="0"
   style="fill:#4da925" />
		</g>
		<g
   id="g111">
			<path
   class="st0"
   d="m 76.4,107.1 c 0.3,-0.2 0.5,0 0.6,0.4 v 3.2 c 1.3,-0.5 2.5,-0.7 3.6,-0.4 0.2,0.1 0.3,0.4 0.2,0.7 l -0.7,2.8 c -0.1,0.2 -0.2,0.4 -0.3,0.6 -0.1,0.1 -0.1,0.1 -0.2,0.1 -0.1,0 -0.2,0.1 -0.3,0 -0.5,-0.1 -1.6,-0.4 -3.4,0.6 -1.9,1 -2.6,2.6 -2.5,3.8 0,1.5 0.8,1.9 3.3,1.9 3.4,0.1 4.9,1.6 5,5 0,3.4 -1.8,7.1 -4.6,9.3 l 0.1,3.2 c 0,0.4 -0.2,0.8 -0.5,1 l -1.9,1.1 c -0.3,0.2 -0.5,0 -0.6,-0.4 v -3.1 c -1.6,0.7 -3.2,0.8 -4.3,0.4 -0.2,-0.1 -0.3,-0.4 -0.2,-0.7 l 0.7,-2.9 c 0.1,-0.2 0.2,-0.5 0.3,-0.6 0.1,-0.1 0.1,-0.1 0.2,-0.1 0.1,-0.1 0.2,-0.1 0.3,0 1.1,0.4 2.6,0.2 3.9,-0.5 1.8,-0.9 2.9,-2.7 2.9,-4.5 0,-1.6 -0.9,-2.3 -3,-2.3 -2.7,0 -5.2,-0.5 -5.3,-4.5 0,-3.3 1.7,-6.7 4.4,-8.8 v -3.2 c 0,-0.4 0.2,-0.8 0.5,-1 z"
   id="path109"
   inkscape:connector-curvature="0"
   style="fill:#ffffff" />
		</g>
	</g>
	<g
   id="g123">
		<path
   class="st1"
   d="m 161.2,102.8 c -0.9,-1.1 -2,-2.1 -3.3,-2.9 -0.2,-0.1 -0.3,-0.2 -0.5,-0.3 1,-0.7 1.9,-1.5 2.7,-2.4 0.8,-1 1.5,-2.1 2,-3.3 0.5,-1.2 0.7,-2.6 0.8,-4 0,-2.5 -0.5,-4.7 -1.6,-6.6 -1.1,-1.8 -2.5,-3.4 -4.3,-4.5 -1.7,-1.1 -3.7,-2 -5.9,-2.5 -2.1,-0.5 -4.3,-0.8 -6.5,-0.8 h -14.9 c -1,0 -1.9,0.8 -1.9,1.8 v 47.6 c 0,1 0.8,1.8 1.9,1.8 h 16.1 c 2.3,0 4.6,-0.4 6.8,-1 2.2,-0.7 4.2,-1.7 5.9,-2.9 1.7,-1.3 3.2,-2.9 4.2,-4.9 1.1,-2 1.6,-4.2 1.5,-6.7 0,-1.6 -0.3,-3.1 -0.8,-4.5 -0.5,-1.5 -1.2,-2.7 -2.2,-3.9 z m -9.1,-10.4 c -0.4,0.7 -1,1.3 -1.7,1.8 -0.7,0.5 -1.6,0.9 -2.5,1.2 -1,0.3 -2,0.4 -3,0.5 h -7 V 84.3 h 6.8 c 1.1,0 2.2,0.2 3.2,0.4 1,0.2 1.8,0.6 2.5,1.1 0.7,0.4 1.2,1 1.6,1.7 0.4,0.7 0.6,1.5 0.6,2.5 0.1,0.9 -0.1,1.7 -0.5,2.4 z M 138,104.5 h 8.2 c 1.2,0 2.2,0.2 3.2,0.6 0.9,0.3 1.8,0.8 2.4,1.3 0.7,0.6 1.2,1.2 1.6,2.1 0.4,0.8 0.6,1.8 0.5,2.9 0,1 -0.2,2 -0.6,2.8 -0.4,0.8 -1,1.5 -1.7,2.1 -0.7,0.6 -1.6,1 -2.6,1.4 -1,0.3 -2.1,0.5 -3.2,0.5 H 138 Z"
   id="path115"
   inkscape:connector-curvature="0"
   style="fill:#2a3238" />
		<path
   class="st1"
   d="m 192.2,76.8 c -0.2,-0.7 -1,-1.2 -1.8,-1.2 h -5.3 c -0.8,0 -1.5,0.5 -1.8,1.2 l -16.2,47.6 c -0.2,0.5 -0.1,1.1 0.3,1.6 0.4,0.5 0.9,0.7 1.5,0.7 h 6.4 c 0.8,0 1.6,-0.5 1.8,-1.3 l 3.6,-11.1 h 13.9 l 3.6,11.1 c 0.2,0.8 1,1.3 1.8,1.3 h 6.3 c 0.6,0 1.2,-0.3 1.5,-0.7 0.4,-0.5 0.5,-1.1 0.3,-1.6 z m -0.4,28.7 h -8.2 l 4.1,-12.8 z"
   id="path117"
   inkscape:connector-curvature="0"
   style="fill:#2a3238" />
		<path
   class="st1"
   d="m 246.3,104.7 c -0.9,-1.1 -1.9,-2.1 -3,-2.9 -1.1,-0.8 -2.3,-1.6 -3.5,-2.2 -1.2,-0.6 -2.5,-1.2 -3.9,-1.7 -1.3,-0.5 -2.6,-0.9 -3.9,-1.3 -1.1,-0.3 -2.3,-0.7 -3.5,-1.1 -1.1,-0.4 -2.2,-0.9 -3.2,-1.5 -0.9,-0.5 -1.6,-1.2 -2.2,-1.9 -0.5,-0.7 -0.7,-1.5 -0.8,-2.4 0,-1 0.2,-1.8 0.6,-2.5 0.4,-0.7 1,-1.3 1.6,-1.8 0.7,-0.5 1.6,-0.9 2.5,-1.2 2.2,-0.6 4.6,-0.5 6.4,0.1 1,0.4 1.8,0.9 2.5,1.5 0.7,0.6 1.3,1.4 1.7,2.3 0.4,1 0.8,2 0.9,3.2 0.1,0.9 0.9,1.6 1.9,1.6 h 6.5 c 0.5,0 1,-0.2 1.3,-0.5 0.4,-0.3 0.5,-0.8 0.5,-1.3 -0.1,-2.4 -0.6,-4.7 -1.7,-6.7 -1.1,-2 -2.5,-3.7 -4.2,-5.1 -1.7,-1.4 -3.7,-2.5 -5.9,-3.2 -4.2,-1.4 -8.9,-1.5 -13.4,-0.2 -2.2,0.6 -4.1,1.6 -5.8,2.8 -1.7,1.3 -3.2,2.8 -4.2,4.6 -1.1,1.9 -1.7,4 -1.7,6.4 0,2.4 0.6,4.5 1.7,6.3 1.1,1.7 2.5,3.2 4.1,4.4 1.6,1.2 3.4,2.2 5.4,3 1.9,0.8 3.7,1.5 5.6,2 1.2,0.4 2.4,0.8 3.7,1.2 1.2,0.4 2.3,0.9 3.2,1.5 0.9,0.6 1.6,1.2 2.2,2 0.5,0.7 0.7,1.6 0.7,2.7 0,1 -0.2,1.8 -0.6,2.5 -0.5,0.7 -1,1.3 -1.8,1.8 -0.8,0.5 -1.6,0.9 -2.6,1.1 -2.4,0.6 -4.9,0.5 -6.9,-0.1 -1.1,-0.3 -2,-0.8 -2.9,-1.5 -0.8,-0.6 -1.5,-1.4 -2,-2.4 -0.5,-0.9 -0.9,-2.1 -1.1,-3.3 -0.1,-0.9 -0.9,-1.6 -1.9,-1.6 h -6.5 c -0.5,0 -1,0.2 -1.4,0.5 -0.4,0.3 -0.5,0.8 -0.5,1.3 0.1,2.6 0.7,4.9 1.9,6.9 1.2,2 2.7,3.7 4.6,5.1 1.8,1.4 4,2.4 6.3,3.1 2.3,0.7 4.7,1.1 7.1,1.1 2.2,0 4.3,-0.3 6.5,-0.9 2.2,-0.6 4.2,-1.5 5.9,-2.6 1.8,-1.2 3.3,-2.7 4.4,-4.5 1.2,-1.9 1.8,-4.1 1.8,-6.5 0,-1.6 -0.2,-3.1 -0.7,-4.5 -0.1,-1.3 -0.8,-2.5 -1.7,-3.6 z"
   id="path119"
   inkscape:connector-curvature="0"
   style="fill:#2a3238" />
		<path
   class="st1"
   d="m 288.1,75.5 h -6 c -1,0 -1.9,0.8 -1.9,1.8 V 96 H 263.4 V 77.3 c 0,-1 -0.8,-1.8 -1.9,-1.8 h -6 c -1,0 -1.9,0.8 -1.9,1.8 v 47.6 c 0,1 0.8,1.8 1.9,1.8 h 6 c 1,0 1.9,-0.8 1.9,-1.8 v -20.2 h 16.8 v 20.2 c 0,1 0.8,1.8 1.9,1.8 h 6 c 1,0 1.9,-0.8 1.9,-1.8 V 77.3 c -0.1,-1 -0.9,-1.8 -1.9,-1.8 z"
   id="path121"
   inkscape:connector-curvature="0"
   style="fill:#2a3238" />
	</g>
	<g
   id="g165">
		<path
   class="st1"
   d="m 133.6,135 h -2.3 v 6.1 h -1.2 V 135 h -2.3 v -1 h 5.8 z"
   id="path125"
   inkscape:connector-curvature="0"
   style="fill:#2a3238" />
		<path
   class="st1"
   d="m 140.6,141.1 h -1.2 V 138 h -2.5 v 3.1 h -1.2 V 134 h 1.2 v 3 h 2.5 v -3 h 1.2 z"
   id="path127"
   inkscape:connector-curvature="0"
   style="fill:#2a3238" />
		<path
   class="st1"
   d="m 147.6,137.9 h -3.1 v 2.2 h 3.6 v 0.9 h -4.8 v -7 h 4.8 v 1 h -3.5 v 2 h 3.1 v 0.9 z"
   id="path129"
   inkscape:connector-curvature="0"
   style="fill:#2a3238" />
		<path
   class="st1"
   d="M 158.2,141.1 V 134 h 2.4 c 0.4,0 0.7,0 1,0.1 0.3,0.1 0.6,0.2 0.8,0.3 0.2,0.2 0.4,0.4 0.5,0.6 0.1,0.2 0.2,0.5 0.2,0.9 0,0.3 -0.1,0.6 -0.3,0.9 -0.2,0.2 -0.5,0.4 -0.8,0.6 0.2,0.1 0.4,0.1 0.6,0.2 0.2,0.1 0.3,0.2 0.4,0.4 0.1,0.1 0.2,0.3 0.3,0.5 0.1,0.2 0.1,0.4 0.1,0.6 0,0.3 -0.1,0.6 -0.2,0.9 -0.1,0.3 -0.3,0.5 -0.5,0.6 -0.2,0.2 -0.5,0.3 -0.8,0.4 -0.3,0.1 -0.7,0.1 -1,0.1 z m 1.2,-4.1 h 1.2 c 0.2,0 0.4,0 0.5,-0.1 0.2,0 0.3,-0.1 0.4,-0.2 0.1,-0.1 0.2,-0.2 0.3,-0.3 0.1,-0.1 0.1,-0.3 0.1,-0.4 0,-0.2 0,-0.3 -0.1,-0.5 -0.1,-0.1 -0.2,-0.2 -0.3,-0.3 -0.1,-0.1 -0.3,-0.1 -0.4,-0.2 -0.2,0 -0.3,-0.1 -0.5,-0.1 h -1.2 z m 0,0.9 v 2.2 h 1.3 c 0.2,0 0.4,0 0.5,-0.1 0.2,-0.1 0.3,-0.1 0.4,-0.2 0.1,-0.1 0.2,-0.2 0.3,-0.3 0.1,-0.1 0.1,-0.3 0.1,-0.5 0,-0.2 0,-0.3 -0.1,-0.5 -0.1,-0.1 -0.1,-0.3 -0.2,-0.4 -0.1,-0.1 -0.2,-0.2 -0.4,-0.2 -0.2,-0.1 -0.3,-0.1 -0.5,-0.1 h -1.4 z"
   id="path131"
   inkscape:connector-curvature="0"
   style="fill:#2a3238" />
		<path
   class="st1"
   d="m 170.7,138 c 0,0.4 -0.1,0.8 -0.2,1.2 -0.1,0.4 -0.3,0.7 -0.5,1 -0.2,0.3 -0.5,0.5 -0.8,0.7 -0.3,0.2 -0.7,0.3 -1.2,0.3 -0.4,0 -0.8,-0.1 -1.2,-0.3 -0.3,-0.2 -0.6,-0.4 -0.8,-0.7 -0.2,-0.3 -0.4,-0.6 -0.5,-1 -0.1,-0.4 -0.2,-0.8 -0.2,-1.2 v -0.9 c 0,-0.3 0,-0.5 0.1,-0.8 0,-0.3 0.1,-0.5 0.2,-0.7 0.1,-0.2 0.2,-0.5 0.4,-0.6 0.1,-0.2 0.3,-0.4 0.5,-0.5 0.2,-0.1 0.4,-0.3 0.7,-0.3 0.2,-0.1 0.5,-0.1 0.8,-0.1 0.4,0 0.8,0.1 1.2,0.3 0.3,0.2 0.6,0.4 0.8,0.7 0.2,0.3 0.4,0.6 0.5,1 0.1,0.4 0.2,0.8 0.2,1.2 z m -1.2,-0.9 c 0,-0.3 0,-0.5 -0.1,-0.8 0,-0.3 -0.1,-0.5 -0.2,-0.7 -0.1,-0.2 -0.3,-0.4 -0.4,-0.5 -0.2,-0.1 -0.4,-0.2 -0.7,-0.2 -0.3,0 -0.5,0.1 -0.7,0.2 -0.2,0.1 -0.3,0.3 -0.4,0.5 -0.1,0.2 -0.2,0.4 -0.2,0.7 0,0.3 -0.1,0.5 -0.1,0.8 v 0.9 c 0,0.3 0,0.5 0.1,0.8 0,0.3 0.1,0.5 0.2,0.7 0.1,0.2 0.3,0.4 0.4,0.5 0.2,0.1 0.4,0.2 0.7,0.2 0.3,0 0.5,-0.1 0.7,-0.2 0.2,-0.1 0.3,-0.3 0.4,-0.5 0.1,-0.2 0.2,-0.4 0.2,-0.7 0,-0.3 0.1,-0.5 0.1,-0.8 z"
   id="path133"
   inkscape:connector-curvature="0"
   style="fill:#2a3238" />
		<path
   class="st1"
   d="m 177.9,134 v 4.7 c 0,0.4 -0.1,0.7 -0.2,1 -0.1,0.3 -0.3,0.6 -0.5,0.8 -0.2,0.2 -0.5,0.4 -0.8,0.5 -0.3,0.1 -0.6,0.2 -1,0.2 -0.4,0 -0.7,-0.1 -1,-0.2 -0.3,-0.1 -0.6,-0.3 -0.8,-0.5 -0.2,-0.2 -0.4,-0.5 -0.5,-0.8 -0.1,-0.3 -0.2,-0.6 -0.2,-1 V 134 h 1.2 v 4.7 c 0,0.2 0,0.4 0.1,0.6 0.1,0.2 0.1,0.3 0.2,0.5 0.1,0.1 0.2,0.2 0.4,0.3 0.2,0.1 0.3,0.1 0.5,0.1 0.2,0 0.4,0 0.5,-0.1 0.2,-0.1 0.3,-0.2 0.4,-0.3 0.1,-0.1 0.2,-0.3 0.2,-0.5 0.1,-0.2 0.1,-0.4 0.1,-0.6 V 134 Z"
   id="path135"
   inkscape:connector-curvature="0"
   style="fill:#2a3238" />
		<path
   class="st1"
   d="m 183.1,138.3 h -1.2 v 2.8 h -1.2 V 134 h 2.3 c 0.4,0 0.7,0 1.1,0.1 0.3,0.1 0.6,0.2 0.8,0.4 0.2,0.2 0.4,0.4 0.5,0.7 0.1,0.3 0.2,0.6 0.2,0.9 0,0.2 0,0.5 -0.1,0.7 -0.1,0.2 -0.2,0.4 -0.3,0.5 -0.1,0.2 -0.3,0.3 -0.4,0.4 -0.2,0.1 -0.3,0.2 -0.5,0.3 l 1.6,3 v 0.1 h -1.3 z m -1.3,-0.9 h 1.1 c 0.2,0 0.4,0 0.6,-0.1 0.2,-0.1 0.3,-0.1 0.4,-0.2 0.1,-0.1 0.2,-0.2 0.3,-0.4 0.1,-0.1 0.1,-0.3 0.1,-0.5 0,-0.2 0,-0.4 -0.1,-0.5 -0.1,-0.2 -0.2,-0.3 -0.3,-0.4 -0.1,-0.1 -0.3,-0.2 -0.4,-0.2 -0.2,-0.1 -0.4,-0.1 -0.6,-0.1 h -1.1 z"
   id="path137"
   inkscape:connector-curvature="0"
   style="fill:#2a3238" />
		<path
   class="st1"
   d="m 192.9,141.1 h -1.2 l -2.4,-4.9 v 4.9 H 188 V 134 h 1.2 l 2.4,4.8 V 134 h 1.2 v 7.1 z"
   id="path139"
   inkscape:connector-curvature="0"
   style="fill:#2a3238" />
		<path
   class="st1"
   d="m 199.9,137.9 h -3.1 v 2.2 h 3.6 v 0.9 h -4.8 v -7 h 4.8 v 1 h -3.5 v 2 h 3.1 v 0.9 z"
   id="path141"
   inkscape:connector-curvature="0"
   style="fill:#2a3238" />
		<path
   class="st1"
   d="m 207.6,138.5 h -4.1 v -0.9 h 4.1 z"
   id="path143"
   inkscape:connector-curvature="0"
   style="fill:#2a3238" />
		<path
   class="st1"
   d="m 214,139.4 h -2.3 l -0.5,1.6 h -1.3 l 2.4,-7.1 h 1.1 l 2.4,7.1 h -1.3 z m -2,-0.9 h 1.7 l -0.8,-2.8 z"
   id="path145"
   inkscape:connector-curvature="0"
   style="fill:#2a3238" />
		<path
   class="st1"
   d="m 222.9,140.2 c -0.1,0.1 -0.3,0.3 -0.4,0.4 -0.2,0.1 -0.4,0.2 -0.6,0.3 -0.2,0.1 -0.4,0.2 -0.7,0.2 -0.2,0 -0.5,0.1 -0.8,0.1 -0.4,0 -0.8,-0.1 -1.2,-0.2 -0.3,-0.2 -0.6,-0.4 -0.9,-0.7 -0.2,-0.3 -0.4,-0.6 -0.5,-1 -0.1,-0.4 -0.2,-0.8 -0.2,-1.3 v -0.9 c 0,-0.4 0.1,-0.9 0.2,-1.3 0.1,-0.4 0.3,-0.7 0.5,-1 0.2,-0.3 0.5,-0.5 0.8,-0.7 0.3,-0.2 0.7,-0.3 1.1,-0.3 0.4,0 0.7,0.1 1,0.2 0.3,0.1 0.6,0.2 0.8,0.4 0.2,0.2 0.4,0.4 0.5,0.7 0.1,0.3 0.2,0.6 0.2,0.9 h -1.2 c 0,-0.2 -0.1,-0.4 -0.1,-0.5 -0.1,-0.2 -0.2,-0.3 -0.3,-0.4 -0.1,-0.1 -0.2,-0.2 -0.4,-0.2 -0.2,0 -0.3,-0.1 -0.5,-0.1 -0.3,0 -0.5,0.1 -0.7,0.2 -0.2,0.1 -0.3,0.3 -0.5,0.5 -0.1,0.2 -0.2,0.4 -0.3,0.7 -0.1,0.3 -0.1,0.6 -0.1,0.8 v 0.9 c 0,0.3 0,0.6 0.1,0.8 0.1,0.3 0.2,0.5 0.3,0.7 0.1,0.2 0.3,0.4 0.5,0.5 0.2,0.1 0.4,0.2 0.7,0.2 0.1,0 0.2,0 0.4,0 0.1,0 0.2,0 0.3,-0.1 0.1,0 0.2,-0.1 0.3,-0.1 0.1,-0.1 0.2,-0.1 0.2,-0.2 v -1.4 h -1.3 v -0.9 h 2.5 z"
   id="path147"
   inkscape:connector-curvature="0"
   style="fill:#2a3238" />
		<path
   class="st1"
   d="m 229,139.4 h -2.3 l -0.5,1.6 h -1.3 l 2.4,-7.1 h 1.1 l 2.4,7.1 h -1.3 z m -2,-0.9 h 1.7 l -0.8,-2.8 z"
   id="path149"
   inkscape:connector-curvature="0"
   style="fill:#2a3238" />
		<path
   class="st1"
   d="m 233,134 h 4.4 v 1 h -1.6 v 5.1 h 1.6 v 1 H 233 v -1 h 1.6 V 135 H 233 Z"
   id="path151"
   inkscape:connector-curvature="0"
   style="fill:#2a3238" />
		<path
   class="st1"
   d="m 245.1,141.1 h -1.2 l -2.4,-4.9 v 4.9 h -1.2 V 134 h 1.2 l 2.4,4.8 V 134 h 1.2 z"
   id="path153"
   inkscape:connector-curvature="0"
   style="fill:#2a3238" />
		<path
   class="st1"
   d="m 259.1,139.3 c 0,-0.2 0,-0.3 -0.1,-0.4 -0.1,-0.1 -0.2,-0.2 -0.3,-0.3 -0.1,-0.1 -0.3,-0.2 -0.5,-0.3 -0.2,-0.1 -0.4,-0.1 -0.6,-0.2 -0.3,-0.1 -0.6,-0.2 -0.9,-0.3 -0.3,-0.1 -0.5,-0.3 -0.8,-0.4 -0.2,-0.2 -0.4,-0.4 -0.5,-0.6 -0.1,-0.2 -0.2,-0.5 -0.2,-0.8 0,-0.3 0.1,-0.6 0.2,-0.8 0.1,-0.2 0.3,-0.4 0.6,-0.6 0.2,-0.2 0.5,-0.3 0.8,-0.4 0.3,-0.1 0.6,-0.1 1,-0.1 0.4,0 0.7,0.1 1,0.2 0.3,0.1 0.6,0.3 0.8,0.4 0.2,0.2 0.4,0.4 0.6,0.7 0.1,0.3 0.2,0.6 0.2,0.9 h -1.2 c 0,-0.2 -0.1,-0.3 -0.1,-0.5 -0.1,-0.1 -0.2,-0.3 -0.3,-0.4 -0.1,-0.1 -0.3,-0.2 -0.4,-0.2 -0.2,-0.1 -0.4,-0.1 -0.6,-0.1 -0.2,0 -0.4,0 -0.5,0.1 -0.2,0 -0.3,0.1 -0.4,0.2 -0.1,0.1 -0.2,0.2 -0.3,0.3 -0.1,0.1 -0.1,0.3 -0.1,0.4 0,0.2 0,0.3 0.1,0.4 0.1,0.1 0.2,0.2 0.3,0.3 0.1,0.1 0.3,0.2 0.5,0.2 0.2,0.1 0.4,0.1 0.6,0.2 0.3,0.1 0.6,0.2 0.9,0.3 0.3,0.1 0.5,0.3 0.7,0.5 0.2,0.2 0.4,0.4 0.5,0.6 0.1,0.2 0.2,0.5 0.2,0.8 0,0.3 -0.1,0.6 -0.2,0.8 -0.1,0.2 -0.3,0.4 -0.6,0.6 -0.2,0.2 -0.5,0.3 -0.8,0.4 -0.3,0.1 -0.6,0.1 -1,0.1 -0.2,0 -0.5,0 -0.7,-0.1 -0.2,0 -0.4,-0.1 -0.6,-0.2 -0.2,-0.1 -0.4,-0.2 -0.6,-0.3 -0.2,-0.1 -0.3,-0.3 -0.5,-0.4 -0.1,-0.2 -0.2,-0.3 -0.3,-0.5 -0.1,-0.2 -0.1,-0.4 -0.1,-0.7 h 1.2 c 0,0.2 0.1,0.4 0.1,0.6 0.1,0.2 0.2,0.3 0.3,0.4 0.1,0.1 0.3,0.2 0.5,0.2 0.2,0.1 0.4,0.1 0.6,0.1 0.2,0 0.4,0 0.5,-0.1 0.2,0 0.3,-0.1 0.4,-0.2 0.1,-0.1 0.2,-0.2 0.3,-0.3 0.2,-0.2 0.3,-0.4 0.3,-0.5 z"
   id="path155"
   inkscape:connector-curvature="0"
   style="fill:#2a3238" />
		<path
   class="st1"
   d="m 267.5,141.1 h -1.2 V 138 h -2.5 v 3.1 h -1.2 V 134 h 1.2 v 3 h 2.5 v -3 h 1.2 z"
   id="path157"
   inkscape:connector-curvature="0"
   style="fill:#2a3238" />
		<path
   class="st1"
   d="m 274.5,137.9 h -3.1 v 2.2 h 3.6 v 0.9 h -4.8 v -7 h 4.8 v 1 h -3.5 v 2 h 3.1 v 0.9 z"
   id="path159"
   inkscape:connector-curvature="0"
   style="fill:#2a3238" />
		<path
   class="st1"
   d="m 278.9,140.1 h 3.5 v 0.9 h -4.8 v -7 h 1.2 v 6.1 z"
   id="path161"
   inkscape:connector-curvature="0"
   style="fill:#2a3238" />
		<path
   class="st1"
   d="m 286.4,140.1 h 3.5 v 0.9 h -4.8 v -7 h 1.2 v 6.1 z"
   id="path163"
   inkscape:connector-curvature="0"
   style="fill:#2a3238" />
	</g>
</g>
</svg>