<?xml version="1.0" encoding="UTF-8" standalone="no"?>
<svg
   xmlns:svg="http://www.w3.org/2000/svg"
   xmlns="http://www.w3.org/2000/svg"
   xmlns:xlink="http://www.w3.org/1999/xlink"
   version="1.1"
   width="366"
   height="270"
   id="svg2">
  <text
     y="266.5235"
     x="182.38609"
     style=""
     xml:space="preserve"
     id="text6"><tspan
       x="182.38609"
       y="266.5235"
       style="text-anchor:middle;font-size:14.75px;font-weight:600;font-family:FreeSans"
       id="tspan4">There is NO CLOUD, just other people’s computers</tspan></text>
  <use
     xlink:href="#g196"
     transform="translate(-31.5268,168.05175)"
     id="use8" />
  <use
     xlink:href="#g256"
     transform="rotate(90,10.60173,123.63523)"
     id="use10" />
  <use
     xlink:href="#g182"
     transform="translate(145.5775,143.718)"
     id="use12" />
  <use
     xlink:href="#g182"
     transform="translate(135.2975,143.718)"
     id="use14" />
  <use
     xlink:href="#g182"
     transform="translate(125.016,143.718)"
     id="use16" />
  <use
     xlink:href="#g184"
     transform="translate(36.2815)"
     id="use18" />
  <use
     xlink:href="#g26"
     transform="translate(0,50.45465)"
     id="use20" />
  <g
     id="g26">
    <use
       xlink:href="#g238"
       transform="translate(-53.868225,75.05805)"
       id="use22" />
    <use
       xlink:href="#g238"
       transform="translate(-44.1879,75.05805)"
       id="use24" />
  </g>
  <use
     xlink:href="#g238"
     transform="rotate(90,196.97383,143.38083)"
     id="use28" />
  <use
     xlink:href="#g220"
     transform="translate(125.987,6.6333)"
     id="use30" />
  <use
     xlink:href="#g256"
     transform="translate(172.1367,-55.93763)"
     id="use32" />
  <use
     xlink:href="#g256"
     transform="rotate(90,203.87543,138.90958)"
     id="use34" />
  <use
     xlink:href="#g214"
     transform="translate(273.2884,104.4343)"
     id="use36" />
  <use
     xlink:href="#g214"
     transform="translate(270.2994,113.7973)"
     id="use38" />
  <use
     xlink:href="#g232"
     transform="translate(102.8067)"
     id="use40" />
  <use
     xlink:href="#g238"
     transform="rotate(90,112.64393,70.35023)"
     id="use42" />
  <use
     xlink:href="#g208"
     transform="rotate(180,99.45068,71.84548)"
     id="use44" />
  <use
     xlink:href="#g208"
     transform="rotate(180,94.60993,74.45486)"
     id="use46" />
  <use
     xlink:href="#g220"
     transform="translate(9.6805)"
     id="use48" />
  <use
     xlink:href="#g214"
     transform="rotate(-90,80.348,34.92)"
     id="use50" />
  <use
     xlink:href="#g190"
     transform="translate(195.8985,95.03865)"
     id="use52" />
  <use
     xlink:href="#g26"
     transform="rotate(90,67.10824,265.77497)"
     id="use54" />
  <use
     xlink:href="#g226"
     transform="rotate(-90,171.90129,144.72897)"
     id="use56" />
  <use
     xlink:href="#g214"
     transform="rotate(-90,163.91033,99.23633)"
     id="use58" />
  <use
     xlink:href="#g214"
     transform="rotate(-90,158.64408,104.84758)"
     id="use60" />
  <use
     xlink:href="#g262"
     transform="translate(66.405,160.2873)"
     id="use62" />
  <use
     xlink:href="#g208"
     transform="rotate(90,121.69746,291.35266)"
     id="use64" />
  <use
     xlink:href="#g214"
     transform="translate(302.4449,173.9478)"
     id="use66" />
  <use
     xlink:href="#g220"
     transform="rotate(90,157.27976,190.30656)"
     id="use68" />
  <use
     xlink:href="#g220"
     transform="translate(236.7515,123.44875)"
     id="use70" />
  <use
     xlink:href="#g220"
     transform="rotate(90,206.67182,115.11599)"
     id="use72" />
  <use
     xlink:href="#g214"
     transform="rotate(-90,180.31958,-66.01292)"
     id="use74" />
  <use
     xlink:href="#g214"
     transform="rotate(-90,160.21773,-86.11477)"
     id="use76" />
  <use
     xlink:href="#g208"
     transform="rotate(90,231.82296,222.76115)"
     id="use78" />
  <use
     xlink:href="#g208"
     transform="rotate(90,236.83483,217.74928)"
     id="use80" />
  <use
     xlink:href="#g226"
     transform="rotate(-90,224.06251,-76.79836)"
     id="use82" />
  <use
     xlink:href="#g226"
     transform="translate(39.8093,238.31667)"
     id="use84" />
  <use
     xlink:href="#g220"
     transform="rotate(90,1.30018,88.22148)"
     id="use86" />
  <use
     xlink:href="#g220"
     transform="rotate(90,2.30883,68.89113)"
     id="use88" />
  <use
     xlink:href="#g208"
     transform="translate(0,39.90095)"
     id="use90" />
  <use
     xlink:href="#g268"
     transform="translate(29.0411,61.89755)"
     id="use92" />
  <use
     xlink:href="#g244"
     transform="translate(29.0411,140.804)"
     id="use94" />
  <use
     xlink:href="#g214"
     transform="translate(-26.29705,173.9478)"
     id="use96" />
  <use
     xlink:href="#g238"
     transform="translate(47.73545,36.7754)"
     id="use98" />
  <use
     xlink:href="#g256"
     transform="translate(87.0777,-44.88765)"
     id="use100" />
  <use
     xlink:href="#g244"
     transform="translate(321.6158,21.18195)"
     id="use102" />
  <use
     xlink:href="#g26"
     transform="translate(348.18417,-67.874)"
     id="use104" />
  <use
     xlink:href="#g244"
     transform="translate(321.6158,48.70905)"
     id="use106" />
  <use
     xlink:href="#g262"
     transform="translate(199.229,-18.46275)"
     id="use108" />
  <g
     id="g114">
    <use
       xlink:href="#g256"
       transform="translate(292.4262,5.49205)"
       id="use110" />
    <use
       xlink:href="#g256"
       transform="translate(282.8617,5.49205)"
       id="use112" />
  </g>
  <use
     xlink:href="#g114"
     transform="translate(0,51.1545)"
     id="use116" />
  <use
     xlink:href="#g262"
     transform="translate(246.6955,37.107)"
     id="use118" />
  <use
     xlink:href="#g200"
     transform="translate(123.946,-20.57344)"
     id="use120" />
  <use
     xlink:href="#g238"
     transform="rotate(90,152.20868,159.21048)"
     id="use122" />
  <use
     xlink:href="#g238"
     transform="rotate(90,150.7733,167.46636)"
     id="use124" />
  <use
     xlink:href="#g244"
     transform="translate(293.8938,89.66785)"
     id="use126" />
  <use
     xlink:href="#g244"
     transform="translate(266.6053,89.66785)"
     id="use128" />
  <use
     xlink:href="#g238"
     transform="translate(276.26445,175.6109)"
     id="use130" />
  <use
     xlink:href="#g262"
     transform="translate(265.825,161.3433)"
     id="use132" />
  <use
     xlink:href="#g244"
     transform="translate(74.2823,11.7031)"
     id="use134" />
  <use
     xlink:href="#g238"
     transform="translate(10.01345)"
     id="use136" />
  <use
     xlink:href="#g256"
     transform="translate(-9.6803,10.92505)"
     id="use138" />
  <use
     xlink:href="#g250"
     transform="translate(-26.93395,176.18835)"
     id="use140" />
  <use
     xlink:href="#g238"
     transform="rotate(90,148.65691,175.04126)"
     id="use142" />
  <use
     xlink:href="#g244"
     transform="translate(75.0028,78.65315)"
     id="use144" />
  <use
     xlink:href="#g232"
     transform="translate(-27.231,77.3886)"
     id="use146" />
  <use
     xlink:href="#g250"
     transform="translate(164.18785,-12.6413)"
     id="use148" />
  <use
     xlink:href="#g200"
     transform="translate(178.7715,168.05175)"
     id="use150" />
  <use
     xlink:href="#g256"
     transform="rotate(180,182.79228,156.78316)"
     id="use152" />
  <use
     xlink:href="#g114"
     transform="rotate(180,319.33733,159.52918)"
     id="use154" />
  <use
     xlink:href="#g238"
     transform="rotate(90,-22.06597,123.63728)"
     id="use156" />
  <use
     xlink:href="#g262"
     transform="translate(-9.7381,171.3663)"
     id="use158" />
  <use
     xlink:href="#g232"
     transform="translate(168.5647,217.14639)"
     id="use160" />
  <use
     xlink:href="#g232"
     transform="translate(168.5647,238.31539)"
     id="use162" />
  <use
     xlink:href="#g232"
     transform="translate(168.5647,227.72989)"
     id="use164" />
  <use
     xlink:href="#g262"
     transform="translate(-36.32725,171.3658)"
     id="use166" />
  <use
     xlink:href="#g238"
     transform="rotate(90,141.88846,213.4132)"
     id="use168" />
  <use
     xlink:href="#g244"
     transform="translate(340.8278,173.5125)"
     id="use170" />
  <use
     xlink:href="#g268"
     transform="translate(169.2053,171.5255)"
     id="use172" />
  <use
     xlink:href="#g250"
     transform="translate(219.62235,185.75435)"
     id="use174" />
  <g
     id="g184">
    <use
       xlink:href="#g182"
       transform="translate(0,26.9262)"
       id="use176" />
    <g
       id="g182">
      <path
         d="m 181.70463,24.73043 h 7.252 v -24.195 h -7.252 z"
         id="path178" />
      <path
         d="m 183.64663,4.69592 c 0,-0.94047 0.751,-1.70687 1.684,-1.70687 0.934,0 1.706,0.7664 1.706,1.70687 0,0.93937 -0.772,1.68548 -1.706,1.68548 -0.933,0 -1.684,-0.74611 -1.684,-1.68548 z m -0.726,5.8247 V 8.92038 h 4.842 v 1.60024 z m 0,3.07241 v -1.6003 h 4.842 v 1.6003 z m 0,3.0723 v -1.6002 h 4.842 v 1.6002 z m 0,3.0723 v -1.6002 h 4.842 v 1.6002 z m 0,3.0724 v -1.6001 h 4.842 v 1.6001 z"
         style="fill:#ffffff"
         id="path180" />
    </g>
  </g>
  <g
     id="g190">
    <path
       d="m 121.22863,21.35803 v 7.2585 h 29.007 v -7.2585 z"
       id="path186" />
    <path
       d="m 123.84963,23.77043 h 16.901 v 2.4337 h -16.901 z m 21.952,-0.4696 c 0.94,0 1.706,0.7524 1.706,1.6866 0,0.9342 -0.766,1.6863 -1.706,1.6863 -0.938,0 -1.662,-0.7521 -1.662,-1.6863 0,-0.9342 0.724,-1.6866 1.662,-1.6866 z"
       style="fill:#ffffff"
       id="path188" />
  </g>
  <g
     id="g200">
    <g
       id="g196">
      <path
         d="m 123.64463,30.88143 v 48.3895 h 24.173 v -48.3895 z"
         id="path192" />
      <path
         d="m 126.33163,37.17573 h 18.799 v 2.0267 h -18.799 z m 0,3.2427 h 18.799 v 2.0056 h -18.799 z m 0,3.2218 h 18.799 v 2.0055 h -18.799 z m 0,3.2219 h 18.799 v 2.0267 h -18.799 z m 0,3.2427 h 18.799 v 2.0057 h -18.799 z m 0,3.2218 h 18.799 v 2.0271 h -18.799 z m 0,3.2431 h 18.799 v 2.0057 h -18.799 z m 0,3.2218 h 18.799 v 2.0054 h -18.799 z m 0,3.2216 h 18.799 v 2.0269 h -18.799 z m 9.4,6.2088 c 1.112,0 2.003,0.8918 2.003,2.0054 0,1.1132 -0.891,2.0271 -2.003,2.0271 -1.113,0 -2.026,-0.9139 -2.026,-2.0271 0,-1.1136 0.913,-2.0054 2.026,-2.0054 z"
         style="fill:#ffffff"
         id="path194" />
    </g>
    <path
       d="m 126.33163,33.95373 h 18.799 v 2.0056 h -18.799 z"
       style="fill:#ffffff"
       id="path198" />
  </g>
  <use
     xlink:href="#g190"
     transform="translate(163.037,95.03865)"
     id="use202" />
  <g
     id="g208">
    <path
       d="m 19.62433,125.59543 h 7.2518 v -36.2919 h -7.2518 z"
       id="path204" />
    <path
       d="m 21.55953,93.46413 c 0,-0.9406 0.7496,-1.707 1.6801,-1.707 0.9306,0 1.7012,0.7664 1.7012,1.707 0,0.9392 -0.7706,1.6855 -1.7012,1.6855 -0.9305,0 -1.6801,-0.7463 -1.6801,-1.6855 z m 0.4892,29.5073 v -16.919 h 2.4031 v 16.919 z"
       style="fill:#ffffff"
       id="path206" />
  </g>
  <g
     id="g214">
    <path
       d="m 26.56063,66.11643 v 7.2584 h 36.2582 v -7.2584 z"
       id="path210" />
    <path
       d="m 28.99073,68.54313 h 14.4948 v 2.4051 h -14.4948 z m 20.8257,-0.2981 c 0.8386,0 1.5133,0.6797 1.5133,1.5112 0,0.8318 -0.6747,1.49 -1.5133,1.49 -0.838,0 -1.5135,-0.6583 -1.5135,-1.49 0,-0.8315 0.6755,-1.5112 1.5135,-1.5112 z m 4.7746,0 c 0.8389,0 1.5134,0.6797 1.5134,1.5112 0,0.8318 -0.6745,1.49 -1.5134,1.49 -0.8379,0 -1.5133,-0.6583 -1.5133,-1.49 0,-0.8315 0.6754,-1.5112 1.5133,-1.5112 z m 4.7747,0 c 0.8391,0 1.5135,0.6797 1.5135,1.5112 0,0.8318 -0.6744,1.49 -1.5135,1.49 -0.8379,0 -1.5136,-0.6583 -1.5136,-1.49 0,-0.8315 0.6757,-1.5112 1.5136,-1.5112 z"
       style="fill:#ffffff"
       id="path212" />
  </g>
  <g
     id="g220">
    <path
       d="m 101.86763,47.75423 h 7.251 v -36.2921 h -7.251 z"
       id="path216" />
    <path
       d="m 104.27663,25.58643 v -12.076 h 2.41 v 12.076 z m -0.49,4.0325 c 0,-0.938 0.768,-1.7069 1.706,-1.7069 0.937,0 1.685,0.7689 1.685,1.7069 0,0.9383 -0.748,1.6857 -1.685,1.6857 -0.938,0 -1.706,-0.7474 -1.706,-1.6857 z m 0.49,16.0872 v -12.0974 h 2.41 v 12.0974 z"
       style="fill:#ffffff"
       id="path218" />
  </g>
  <g
     id="g226">
    <path
       d="m 78.89803,0.5356 v 8.47132 h 48.3446 V 0.5356 Z"
       id="path222" />
    <path
       d="m 81.45603,1.75186 h 1.5987 v 6.0388 h -1.5987 z m 2.963,0 h 1.5987 v 6.0388 h -1.5987 z m 2.9627,0 h 1.5988 v 6.0388 h -1.5988 z m 2.9631,0 h 1.5986 v 6.0388 h -1.5986 z m 2.9628,0 h 1.5988 v 6.0388 h -1.5988 z m 2.9628,0 h 1.5988 v 6.0388 h -1.5988 z m 2.963,0 h 1.5992 v 6.0388 h -1.5992 z m 2.9632,0 h 1.598 v 6.0388 h -1.598 z m 2.963,0 h 1.598 v 6.0388 h -1.598 z m 2.962,0 h 1.599 v 6.0388 h -1.599 z m 2.963,0 h 1.6 v 6.0388 h -1.6 z m 2.964,0 h 1.598 v 6.0388 h -1.598 z m 2.962,0 h 1.599 v 6.0388 h -1.599 z m 5.948,1.55774 c 0.801,0 1.448,0.64896 1.448,1.451 0,0.80154 -0.647,1.45104 -1.448,1.45104 -0.802,0 -1.45,-0.6495 -1.45,-1.45104 0,-0.80204 0.648,-1.451 1.45,-1.451 z"
       style="fill:#ffffff"
       id="path224" />
  </g>
  <g
     id="g232">
    <path
       d="m 27.49473,0.53543 v 8.46821 h 48.3444 V 0.53543 Z"
       id="path228" />
    <path
       d="m 30.05263,1.75128 h 1.62 V 7.7878 h -1.62 z m 2.963,0 h 1.5986 V 7.7878 h -1.5986 z m 2.963,0 h 1.5985 V 7.7878 h -1.5985 z m 2.9628,0 h 1.5986 V 7.7878 h -1.5986 z m 2.9629,0 h 1.5987 V 7.7878 h -1.5987 z m 20.0582,1.66378 c 0.7419,0 1.3429,0.60171 1.3429,1.34381 0,0.74211 -0.601,1.34382 -1.3429,1.34382 -0.7408,0 -1.3427,-0.60171 -1.3427,-1.34382 0,-0.7421 0.6019,-1.34381 1.3427,-1.34381 z m 4.5617,0 c 0.7414,0 1.3429,0.60171 1.3429,1.34381 0,0.74211 -0.6015,1.34382 -1.3429,1.34382 -0.7416,0 -1.343,-0.60171 -1.343,-1.34382 0,-0.7421 0.6014,-1.34381 1.343,-1.34381 z m 4.5615,0 c 0.7417,0 1.3429,0.60171 1.3429,1.34381 0,0.74211 -0.6012,1.34382 -1.3429,1.34382 -0.7415,0 -1.3426,-0.60171 -1.3426,-1.34382 0,-0.7421 0.6011,-1.34381 1.3426,-1.34381 z"
       style="fill:#ffffff"
       id="path230" />
  </g>
  <g
     id="g238">
    <path
       d="m 54.13193,61.78833 h 7.2515 v -48.3896 h -7.2515 z"
       id="path234" />
    <path
       d="m 55.34753,17.04703 v -1.6215 h 4.8203 v 1.6215 z m 0,2.9445 v -1.6003 h 4.8203 v 1.6003 z m 0,2.9655 v -1.6002 h 4.8203 v 1.6002 z m 0,2.9658 v -1.6002 h 4.8203 v 1.6002 z m 0,2.9657 v -1.6215 h 4.8203 v 1.6215 z m 0,2.9656 v -1.6213 h 4.8203 v 1.6213 z m 0.896,5.7394 c 0,-0.8355 0.6791,-1.5148 1.5141,-1.5148 0.8349,0 1.5143,0.6793 1.5143,1.5148 0,0.8344 -0.6794,1.5148 -1.5143,1.5148 -0.835,0 -1.5141,-0.6804 -1.5141,-1.5148 z m -0.896,7.3609 v -1.6215 h 4.8203 v 1.6215 z m 0,2.9442 v -1.5999 h 4.8203 v 1.5999 z m 0,2.9658 v -1.6002 h 4.8203 v 1.6002 z m 0,2.9656 v -1.6003 h 4.8203 v 1.6003 z m 0,2.9658 v -1.6216 h 4.8203 v 1.6216 z m 0,2.9656 v -1.6215 h 4.8203 v 1.6215 z"
       style="fill:#ffffff"
       id="path236" />
  </g>
  <g
     id="g244">
    <path
       d="m 0.26363,0.53543 v 24.195 h 24.1724 v -24.195 z"
       id="path240" />
    <path
       d="m 2.94943,3.69318 h 18.8007 V 7.32024 H 2.94943 Z m 0,6.99815 h 18.8007 v 3.627 H 2.94943 Z m 9.4004,6.87 c 1.1123,0 2.0036,0.914 2.0036,2.027 0,1.1138 -0.8913,2.0054 -2.0036,2.0054 -1.1123,0 -2.0251,-0.8916 -2.0251,-2.0054 0,-1.113 0.9128,-2.027 2.0251,-2.027 z"
       style="fill:#ffffff"
       id="path242" />
  </g>
  <g
     id="g250">
    <path
       d="m 27.19773,13.17673 v 48.3897 h 24.1721 v -48.3897 z"
       id="path246" />
    <path
       d="m 29.88363,18.48943 h 18.8005 v 4.0322 h -18.8005 z m 0,6.998 h 18.8005 v 4.0326 h -18.8005 z m 9.4002,26.0296 c 1.1128,0 2.0249,0.8921 2.0249,2.0058 0,1.1131 -0.9121,2.0269 -2.0249,2.0269 -1.112,0 -2.0038,-0.9138 -2.0038,-2.0269 0,-1.1137 0.8918,-2.0058 2.0038,-2.0058 z"
       style="fill:#ffffff"
       id="path248" />
  </g>
  <g
     id="g256">
    <path
       d="m 65.58603,114.63543 h 7.2518 v -48.3901 h -7.2518 z"
       id="path252" />
    <path
       d="m 67.69753,70.08563 c 0,-0.8353 0.6794,-1.5147 1.5145,-1.5147 0.8349,0 1.5143,0.6794 1.5143,1.5147 0,0.8346 -0.6794,1.4937 -1.5143,1.4937 -0.8351,0 -1.5145,-0.6591 -1.5145,-1.4937 z m 0,4.7793 c 0,-0.8352 0.6794,-1.5149 1.5145,-1.5149 0.8349,0 1.5143,0.6797 1.5143,1.5149 0,0.8342 -0.6794,1.4936 -1.5143,1.4936 -0.8351,0 -1.5145,-0.6594 -1.5145,-1.4936 z m 0,4.7792 c 0,-0.8351 0.6794,-1.5148 1.5145,-1.5148 0.8349,0 1.5143,0.6797 1.5143,1.5148 0,0.8344 -0.6794,1.4933 -1.5143,1.4933 -0.8351,0 -1.5145,-0.6589 -1.5145,-1.4933 z m 0.3199,32.6653 v -16.9406 h 2.4102 v 16.9406 z"
       style="fill:#ffffff"
       id="path254" />
  </g>
  <g
     id="g262">
    <path
       d="m 75.26643,39.66513 v 36.292 h 24.1724 v -36.292 z"
       id="path258" />
    <path
       d="m 77.95233,43.61223 h 2.0036 v 19.3514 h -2.0036 z m 3.3466,0 h 2.025 v 19.3514 h -2.025 z m 3.368,0 h 2.0036 v 19.3514 h -2.0036 z m 3.3463,0 h 2.0253 v 19.3514 h -2.0253 z m 3.3681,0 h 2.0038 v 19.3514 h -2.0038 z m 3.3468,0 h 2.0249 v 19.3514 h -2.0249 z m -16.7758,23.6611 h 10.7433 v 2.6885 h -10.7433 z m 16.2,-0.6825 c 1.1124,0 2.0251,0.9134 2.0251,2.0269 0,1.113 -0.9127,2.0056 -2.0251,2.0056 -1.1122,0 -2.0037,-0.8926 -2.0037,-2.0056 0,-1.1135 0.8915,-2.0269 2.0037,-2.0269 z"
       style="fill:#ffffff"
       id="path260" />
  </g>
  <g
     id="g268">
    <path
       d="m 0.26363,27.40563 v 48.3896 h 24.1724 v -48.3896 z"
       id="path264" />
    <path
       d="m 2.94943,32.71833 h 18.8007 v 4.0324 H 2.94943 Z m 0,6.9981 h 18.8007 v 4.0325 H 2.94943 Z m 0,7.9584 h 10.7432 v 2.6882 H 2.94943 Z m 16.2001,-0.6828 c 1.1124,0 2.025,0.9137 2.025,2.0268 0,1.1138 -0.9126,2.0056 -2.025,2.0056 -1.1123,0 -2.0037,-0.8918 -2.0037,-2.0056 0,-1.1131 0.8914,-2.0268 2.0037,-2.0268 z m -16.2001,9.0249 h 2.02503 v 16.1299 H 2.94943 Z m 3.36793,0 h 2.00366 v 16.1299 H 6.31736 Z m 3.34651,0 h 2.02516 v 16.1299 H 9.66387 Z m 3.36806,0 h 2.0037 v 16.1299 h -2.0037 z m 3.3466,0 h 2.0037 v 16.1299 h -2.0037 z m 3.3464,0 h 2.0252 v 16.1299 h -2.0252 z"
       style="fill:#ffffff"
       id="path266" />
  </g>
</svg>
