<?xml version="1.0" encoding="UTF-8" standalone="no"?>
<svg
   xmlns:dc="http://purl.org/dc/elements/1.1/"
   xmlns:cc="http://creativecommons.org/ns#"
   xmlns:rdf="http://www.w3.org/1999/02/22-rdf-syntax-ns#"
   xmlns:svg="http://www.w3.org/2000/svg"
   xmlns="http://www.w3.org/2000/svg"
   xmlns:sodipodi="http://sodipodi.sourceforge.net/DTD/sodipodi-0.dtd"
   xmlns:inkscape="http://www.inkscape.org/namespaces/inkscape"
   viewBox="0 0 576.29937 512.2725"
   version="1.1"
   id="svg845"
   sodipodi:docname="container-registry.svg"
   width="576.29938"
   height="512.27252"
   style="fill:#ffffff;fill-rule:evenodd;stroke:#000000;stroke-linecap:round;stroke-linejoin:round"
   inkscape:version="0.92.3 (2405546, 2018-03-11)">
  <metadata
     id="metadata851">
    <rdf:RDF>
      <cc:Work
         rdf:about="">
        <dc:format>image/svg+xml</dc:format>
        <dc:type
           rdf:resource="http://purl.org/dc/dcmitype/StillImage" />
        <dc:title></dc:title>
      </cc:Work>
    </rdf:RDF>
  </metadata>
  <defs
     id="defs849" />
  <sodipodi:namedview
     pagecolor="#ffffff"
     bordercolor="#666666"
     borderopacity="1"
     objecttolerance="10"
     gridtolerance="10"
     guidetolerance="10"
     inkscape:pageopacity="0"
     inkscape:pageshadow="2"
     inkscape:window-width="2400"
     inkscape:window-height="1271"
     id="namedview847"
     showgrid="false"
     inkscape:zoom="0.83179013"
     inkscape:cx="-108.58502"
     inkscape:cy="161.16087"
     inkscape:window-x="4791"
     inkscape:window-y="-9"
     inkscape:window-maximized="1"
     inkscape:current-layer="svg845" />
  <g
     id="use834"
     transform="matrix(6.4033267,0,0,6.4033267,2.0713966e-5,7.2572099e-5)"
     style="display:inline">
    <g
       style="fill:#0072c6;stroke:none"
       id="g831">
      <path
         inkscape:connector-curvature="0"
         id="path825"
         d="M 32,26.667 V 49.231 L 46,43.077 V 18.462 Z m 12,-2.478 v 2.051 13.615 l -3,1.393 v -13.34 l -4,2.222 v 13.022 l -3,1.245 V 31.795 29.744 l 7,-3.889 v -0.018 l 3,-1.647 v 0 z" />
      <path
         inkscape:connector-curvature="0"
         id="path827"
         d="m 46,18.462 v 24.615 l 44,9.744 V 34.872 Z M 86,38.975 V 49.231 L 83.09,48.408 V 37.742 L 78,36.103 V 47.18 L 75.09,46.357 V 34.87 L 70,33.231 V 45.128 L 67.09,44.305 V 31.998 L 62,30.359 V 43.077 L 59.09,42.254 V 29.127 L 53.492,27.295 53.502,40.909 50,40.001 V 26.052 24.001 l 8,2.872 v 0 l 4,1.436 4,1.436 2,0.718 7.714,2.769 2.286,0.82 4,1.436 4,1.436 z M 46,47.18 V 80.001 L 90,69.745 V 55.898 Z m 40,20.326 -2.908,0.501 V 59.102 L 78,58.415 v 10.771 l -2.908,0.5 V 58.031 L 70,57.34 v 13.522 l -2.908,0.501 V 56.954 L 62,56.267 v 16.275 l -2.908,0.5 V 55.884 L 53.5,55.221 53.49,74.439 50,75.059 v -22.71 l 36,5.6 z M 28,24.285 45.626,13.955 79.874,26.729 C 78.892,16.353 70.37,8.205 60,8.205 A 19.29,19.29 0 0 0 52.962,9.53 C 48.426,3.532 41.456,0 34,0 20.766,0 10,11.042 10,24.615 a 16.59,16.59 0 0 0 0.014,0.708 C 3.804,28.985 0,35.668 0,43.077 0,54.388 8.972,63.59 20,63.59 h 8 z" />
      <path
         inkscape:connector-curvature="0"
         id="path829"
         d="M 32,52.821 V 71.795 L 46,80 V 47.18 Z m 12,2.213 V 74.872 L 41,73.334 V 56.048 l -4,1.35 V 71.277 L 34,69.745 V 58.411 56.36 l 7,-2.363 3,-1.013 v 2.051 z" />
    </g>
  </g>
</svg>
