<svg xmlns="http://www.w3.org/2000/svg" width="353" height="512" preserveAspectRatio="xMidYMid">
  <path fill-rule="evenodd" d="M299.596 492.223C266.856 504.976 223.496 512 177.5 512c-45.996 0-89.357-7.024-122.095-19.777-35.083-13.667-54.404-32.766-54.404-53.78V73.557c0-21.014 19.321-40.113 54.404-53.78C88.144 7.024 131.504 0 177.5 0c45.996 0 89.356 7.024 122.096 19.778 35.069 13.661 54.387 32.751 54.402 53.756 0 .007.001.014.001.023v364.886c0 21.014-19.321 40.113-54.403 53.78ZM293.872 34.44C262.914 22.381 221.585 15.739 177.5 15.739c-44.085 0-85.414 6.642-116.372 18.702-28.2 10.984-44.374 25.243-44.374 39.116 0 13.873 16.174 28.131 44.374 39.116 30.958 12.058 72.287 18.7 116.372 18.7 16.532 0 32.675-.934 48.031-2.738 25.592-3.005 48.992-8.425 68.341-15.963 28.199-10.985 44.372-25.243 44.372-39.116 0-13.873-16.172-28.131-44.372-39.116Zm44.375 70.393c-.015.014-.031.027-.046.041-.133.122-.275.244-.41.367-10.912 9.91-24.554 16.781-38.194 22.095-21.485 8.369-47.544 14.27-75.921 17.339-14.865 1.608-30.364 2.438-46.175 2.438-45.996 0-89.357-7.024-122.095-19.777-13.896-5.413-27.587-12.266-38.614-22.469-.012-.011-.024-.021-.036-.032v90.35c0 13.872 16.173 28.13 44.373 39.115 26.121 10.176 59.624 16.495 95.938 18.221 6.805.325 13.62.482 20.434.482 48.743 0 106.184-3.582 146.132-34.692 5.307-4.133 10.264-9.024 12.936-15.305 1.049-2.46 1.678-5.139 1.678-7.82v-90.353Zm.001 121.627c-.012.009-.024.02-.034.029-2.528 2.319-5.204 4.475-7.998 6.469-17.383 12.41-38.247 19.695-58.788 24.922-16.994 4.324-35.701 7.424-55.406 9.177-.172.014-.343.032-.515.047-6.485.568-13.077.987-19.749 1.261-6.026.248-12.117.377-18.256.377-45.996 0-89.357-7.024-122.095-19.777-13.652-5.316-27.217-12.143-38.139-22.045-.155-.141-.317-.279-.471-.421-.013-.012-.026-.024-.04-.036v90.352c0 13.873 16.173 28.131 44.373 39.116 30.958 12.059 72.287 18.701 116.372 18.701 11.881 0 23.559-.487 34.89-1.429.813-.066 1.625-.137 2.433-.208 29.767-2.655 57.032-8.487 79.049-17.064 12.028-4.685 21.859-9.967 29.189-15.559 6.171-4.708 12.25-10.671 14.436-18.344.015-.052.024-.104.039-.155.458-1.648.71-3.348.71-5.059V226.46Zm.002 121.628c-.013.012-.025.022-.038.034-.172.159-.356.317-.531.475-2.552 2.309-5.255 4.445-8.073 6.42-9.261 6.487-19.492 11.48-30.01 15.577-28.508 11.103-65.07 17.861-104.411 19.423-5.839.232-11.738.352-17.683.352-45.996 0-89.357-7.024-122.095-19.777-13.687-5.33-27.127-12.071-38.086-21.997-.174-.157-.356-.314-.528-.472-.013-.012-.025-.022-.038-.034v90.352c0 13.872 16.173 28.13 44.373 39.115 30.959 12.06 72.286 18.702 116.372 18.702s85.414-6.642 116.373-18.702c28.199-10.985 44.372-25.241 44.372-39.115h.003v-90.353Zm-28.174 80.883c-7.949 0-14.393-6.438-14.393-14.381 0-7.942 6.444-14.381 14.393-14.381 7.95 0 14.394 6.439 14.394 14.381 0 7.943-6.444 14.381-14.394 14.381Zm-49.956 15.047c-7.949 0-14.393-6.438-14.393-14.381 0-7.942 6.444-14.381 14.393-14.381 7.949 0 14.394 6.439 14.394 14.381 0 7.943-6.445 14.381-14.394 14.381Zm-53.012 8.237c-7.949 0-14.393-6.438-14.393-14.381 0-7.942 6.444-14.381 14.393-14.381 7.949 0 14.393 6.439 14.393 14.381 0 7.943-6.444 14.381-14.393 14.381Zm102.968-143.877c-7.949 0-14.393-6.439-14.393-14.381 0-7.943 6.444-14.381 14.393-14.381 7.95 0 14.394 6.438 14.394 14.381 0 7.942-6.444 14.381-14.394 14.381Zm-49.956 15.057c-7.949 0-14.393-6.439-14.393-14.381 0-7.943 6.444-14.381 14.393-14.381 7.949 0 14.394 6.438 14.394 14.381 0 7.942-6.445 14.381-14.394 14.381Zm-53.012 8.237c-7.949 0-14.393-6.439-14.393-14.381 0-7.943 6.444-14.381 14.393-14.381 7.949 0 14.393 6.438 14.393 14.381 0 7.942-6.444 14.381-14.393 14.381Zm102.968-145.986c-7.949 0-14.393-6.438-14.393-14.381 0-7.942 6.444-14.381 14.393-14.381 7.95 0 14.394 6.439 14.394 14.381 0 7.943-6.444 14.381-14.394 14.381Zm-49.956 15.057c-7.949 0-14.393-6.438-14.393-14.381 0-7.942 6.444-14.381 14.393-14.381 7.949 0 14.394 6.439 14.394 14.381 0 7.943-6.445 14.381-14.394 14.381Zm-53.012 8.237c-7.949 0-14.393-6.438-14.393-14.381 0-7.942 6.444-14.381 14.393-14.381 7.949 0 14.393 6.439 14.393 14.381 0 7.943-6.444 14.381-14.393 14.381Z"/>
</svg>