<?xml version="1.0" encoding="UTF-8" standalone="no"?>
<!-- Created with Inkscape (http://www.inkscape.org/) -->

<svg
   xmlns:dc="http://purl.org/dc/elements/1.1/"
   xmlns:cc="http://creativecommons.org/ns#"
   xmlns:rdf="http://www.w3.org/1999/02/22-rdf-syntax-ns#"
   xmlns:svg="http://www.w3.org/2000/svg"
   xmlns="http://www.w3.org/2000/svg"
   xmlns:sodipodi="http://sodipodi.sourceforge.net/DTD/sodipodi-0.dtd"
   xmlns:inkscape="http://www.inkscape.org/namespaces/inkscape"
   version="1.1"
   id="svg869"
   width="624.72809"
   height="863.43762"
   viewBox="0 0 624.72809 863.43762"
   sodipodi:docname="git-push-git-paid.svg"
   inkscape:version="0.92.3 (2405546, 2018-03-11)">
  <metadata
     id="metadata875">
    <rdf:RDF>
      <cc:Work
         rdf:about="">
        <dc:format>image/svg+xml</dc:format>
        <dc:type
           rdf:resource="http://purl.org/dc/dcmitype/StillImage" />
        <dc:title />
      </cc:Work>
    </rdf:RDF>
  </metadata>
  <defs
     id="defs873" />
  <sodipodi:namedview
     pagecolor="#ffffff"
     bordercolor="#666666"
     borderopacity="1"
     objecttolerance="10"
     gridtolerance="10"
     guidetolerance="10"
     inkscape:pageopacity="0"
     inkscape:pageshadow="2"
     inkscape:window-width="2400"
     inkscape:window-height="1271"
     id="namedview871"
     showgrid="false"
     inkscape:zoom="0.78955076"
     inkscape:cx="654.61959"
     inkscape:cy="280.76128"
     inkscape:window-x="4791"
     inkscape:window-y="-9"
     inkscape:window-maximized="1"
     inkscape:current-layer="text4784" />
  <path
     style="opacity:1;fill:#008000;fill-opacity:1;stroke:#000000;stroke-width:0.41570479;stroke-linecap:square;stroke-miterlimit:4;stroke-dasharray:none"
     d=""
     id="path4696"
     inkscape:connector-curvature="0" />
  <g
     id="g4744"
     transform="translate(-29.536711,69.852571)">
    <path
       sodipodi:nodetypes="cccccccccccccccccc"
       inkscape:connector-curvature="0"
       id="path879"
       d="m 433.15771,242.54299 22.79778,-8.23253 c 16.01048,15.71891 31.27329,23.96105 45.59555,22.79777 84.15181,7.22021 12.14243,-127.43163 -68.39333,-98.79035 -80.19967,38.44019 75.65857,196.24499 162.75078,169.08349 C 651.15266,299.35161 694.7843,205.24699 501.55104,75.35931 445.76114,47.185708 392.90411,46.141054 343.86643,80.425482 L 43.062463,355.89859 c -45.4903023,149.8757 69.583927,185.07546 113.355597,266.6073 l 31.66358,-5.06617 18.36487,10.76562 21.53123,-15.83179 17.09833,6.96599 C 381.00684,552.4378 501.79987,478.65528 619.33954,403.39395 l -28.49722,7.59926 c 22.68075,-12.78245 43.33703,-27.58938 57.62771,-48.76191 2.43981,-13.14162 1.99077,-30.13503 -0.63328,-50.02845 9.45723,-65.39084 -4.16048,-60.9886 -7.59925,-88.02474"
       style="fill:none;stroke:#000000;stroke-width:6.29291344;stroke-linecap:butt;stroke-linejoin:miter;stroke-miterlimit:4;stroke-dasharray:none;stroke-opacity:1" />
    <path
       sodipodi:nodetypes="ccccc"
       inkscape:connector-curvature="0"
       id="path881"
       d="m 75.35931,329.93446 c -17.854421,93.04279 29.32921,168.57533 98.79036,238.11008 L 207.07978,549.0464 C 158.1682,497.39966 98.500092,470.38883 99.423627,304.6036 Z"
       style="fill:none;stroke:#000000;stroke-width:7.04881907;stroke-linecap:butt;stroke-linejoin:miter;stroke-miterlimit:4;stroke-dasharray:none;stroke-opacity:1" />
    <path
       sodipodi:nodetypes="ccccc"
       inkscape:connector-curvature="0"
       id="path883"
       d="m 257.10823,162.75078 c -2.89772,147.65659 56.36982,219.63372 130.45393,273.57329 l -92.45764,58.26098 C 217.31312,437.12739 151.14271,370.77241 179.84911,231.77737 Z"
       style="fill:none;stroke:#000000;stroke-width:7.42677164;stroke-linecap:butt;stroke-linejoin:miter;stroke-miterlimit:4;stroke-dasharray:none;stroke-opacity:1" />
    <path
       sodipodi:nodetypes="cc"
       inkscape:connector-curvature="0"
       id="path885"
       d="M 402.12741,537.64751 C 363.25746,530.74987 328.9963,513.0984 295.10452,494.58505"
       style="fill:none;stroke:#000000;stroke-width:7.80472422;stroke-linecap:butt;stroke-linejoin:miter;stroke-miterlimit:4;stroke-dasharray:none;stroke-opacity:1" />
    <path
       sodipodi:nodetypes="cc"
       inkscape:connector-curvature="0"
       id="path887"
       d="m 300.80397,591.47559 c -30.18075,-5.6579 -61.88271,-23.48544 -93.72419,-42.42919"
       style="fill:none;stroke:#000000;stroke-width:7.80472422;stroke-linecap:butt;stroke-linejoin:miter;stroke-miterlimit:4;stroke-dasharray:none;stroke-opacity:1" />
    <path
       sodipodi:nodetypes="cc"
       inkscape:connector-curvature="0"
       id="path889"
       d="M 360.33149,71.559681 C 243.63054,252.85543 449.33812,424.51986 590.84232,410.99321"
       style="fill:none;stroke:#000000;stroke-width:7.42677164;stroke-linecap:butt;stroke-linejoin:miter;stroke-miterlimit:4;stroke-dasharray:none;stroke-opacity:1" />
    <path
       sodipodi:nodetypes="ccc"
       inkscape:connector-curvature="0"
       id="path891"
       d="m 323.60174,101.32344 c -65.16857,94.89351 43.88561,305.05448 221.01176,319.80211 L 388.82871,532.58134"
       style="fill:none;stroke:#000000;stroke-width:7.42677164;stroke-linecap:butt;stroke-linejoin:miter;stroke-miterlimit:4;stroke-dasharray:none;stroke-opacity:1" />
    <path
       sodipodi:nodetypes="ccc"
       inkscape:connector-curvature="0"
       id="path893"
       d="m 374.89673,334.36736 c 40.42602,63.89928 82.70583,75.89208 124.75449,94.35745 L 366.6642,523.08227"
       style="fill:none;stroke:#000000;stroke-width:7.42677164;stroke-linecap:butt;stroke-linejoin:miter;stroke-miterlimit:4;stroke-dasharray:none;stroke-opacity:1" />
    <path
       sodipodi:nodetypes="ccc"
       inkscape:connector-curvature="0"
       id="path895"
       d="m 188.08164,617.43972 c 37.67467,-9.47896 52.55627,-23.51653 74.72604,-36.09647 l -34.82994,31.0303"
       style="fill:none;stroke:#000000;stroke-width:7.42677164;stroke-linecap:butt;stroke-linejoin:miter;stroke-miterlimit:4;stroke-dasharray:none;stroke-opacity:1" />
    <path
       sodipodi:nodetypes="cc"
       inkscape:connector-curvature="0"
       id="path897"
       d="m 411.62648,108.28943 c -35.73858,4.88259 -47.60741,25.67834 -53.19481,50.66172"
       style="fill:none;stroke:#000000;stroke-width:7.42677164;stroke-linecap:butt;stroke-linejoin:miter;stroke-miterlimit:4;stroke-dasharray:none;stroke-opacity:1" />
    <path
       sodipodi:nodetypes="cc"
       inkscape:connector-curvature="0"
       id="path899"
       d="m 433.15771,124.12122 c -66.31692,13.26048 -65.70856,54.30126 -43.06246,104.48979"
       style="fill:none;stroke:#000000;stroke-width:7.42677164;stroke-linecap:square;stroke-linejoin:miter;stroke-miterlimit:4;stroke-dasharray:none;stroke-opacity:1" />
    <path
       sodipodi:nodetypes="cc"
       inkscape:connector-curvature="0"
       id="path901"
       d="m 593.3754,211.51268 c 18.64759,40.35012 21.28427,73.58429 -35.4632,80.42549"
       style="fill:none;stroke:#000000;stroke-width:7.42677164;stroke-linecap:butt;stroke-linejoin:miter;stroke-miterlimit:4;stroke-dasharray:none;stroke-opacity:1" />
    <path
       sodipodi:nodetypes="cc"
       inkscape:connector-curvature="0"
       id="path903"
       d="m 581.34325,227.34447 c 10.9095,22.39751 10.51367,38.33482 -13.93198,40.52938"
       style="fill:none;stroke:#000000;stroke-width:7.42677164;stroke-linecap:butt;stroke-linejoin:miter;stroke-miterlimit:4;stroke-dasharray:none;stroke-opacity:1" />
    <path
       sodipodi:nodetypes="cc"
       inkscape:connector-curvature="0"
       id="path905"
       d="m 461.65493,238.74336 c 0.049,15.12484 9.87342,34.69305 28.49722,58.26098"
       style="fill:none;stroke:#000000;stroke-width:7.42677164;stroke-linecap:butt;stroke-linejoin:miter;stroke-miterlimit:4;stroke-dasharray:none;stroke-opacity:1" />
    <path
       sodipodi:nodetypes="cc"
       inkscape:connector-curvature="0"
       id="path907"
       d="m 515.48301,272.94002 c -13.24057,0.69855 -26.75191,0.7653 -44.96228,-10.13234"
       style="fill:none;stroke:#000000;stroke-width:5.53700781;stroke-linecap:butt;stroke-linejoin:miter;stroke-miterlimit:4;stroke-dasharray:none;stroke-opacity:1" />
    <path
       sodipodi:nodetypes="cc"
       inkscape:connector-curvature="0"
       id="path909"
       d="m 521.81572,288.77181 c -10.7179,-0.55985 -15.72455,2.0532 -40.52937,-6.33272"
       style="fill:none;stroke:#000000;stroke-width:7.42677164;stroke-linecap:butt;stroke-linejoin:miter;stroke-miterlimit:4;stroke-dasharray:none;stroke-opacity:1" />
    <path
       sodipodi:nodetypes="cc"
       inkscape:connector-curvature="0"
       id="path911"
       d="m 649.1033,353.99877 c -29.97692,28.61341 -68.44609,39.02914 -110.18925,42.42919"
       style="fill:none;stroke:#000000;stroke-width:7.42677164;stroke-linecap:butt;stroke-linejoin:miter;stroke-miterlimit:4;stroke-dasharray:none;stroke-opacity:1" />
    <path
       sodipodi:nodetypes="cc"
       inkscape:connector-curvature="0"
       id="path913"
       d="m 649.1033,271.04021 c -20.36211,62.71762 -55.91973,81.01761 -98.15709,79.79221"
       style="fill:none;stroke:#000000;stroke-width:7.42677164;stroke-linecap:butt;stroke-linejoin:miter;stroke-miterlimit:4;stroke-dasharray:none;stroke-opacity:1" />
    <path
       sodipodi:nodetypes="cc"
       inkscape:connector-curvature="0"
       id="path915"
       d="m 646.57021,300.80397 c -19.93108,44.61197 -51.56026,74.47417 -110.18924,70.29313"
       style="fill:none;stroke:#000000;stroke-width:7.42677164;stroke-linecap:butt;stroke-linejoin:miter;stroke-miterlimit:4;stroke-dasharray:none;stroke-opacity:1" />
    <path
       sodipodi:nodetypes="cc"
       inkscape:connector-curvature="0"
       id="path917"
       d="m 649.1033,330.56773 c -16.60893,26.93352 -37.17854,34.0636 -56.99444,44.96228"
       style="fill:#008000;stroke:#000000;stroke-width:7.42677164;stroke-linecap:butt;stroke-linejoin:miter;stroke-miterlimit:4;stroke-dasharray:none;stroke-opacity:1" />
    <path
       inkscape:connector-curvature="0"
       id="path4654"
       d="m 556.77231,406.8809 c -58.33641,-6.39276 -119.04395,-37.04608 -163.08488,-82.34715 -29.59367,-30.44043 -49.28165,-64.24588 -58.22491,-99.97567 -4.35177,-17.38605 -5.71028,-29.99283 -5.2142,-48.38698 0.53415,-19.80579 2.89365,-33.06339 9.30858,-52.30319 5.36561,-16.09268 11.59071,-29.496728 20.59582,-44.347508 1.92235,-3.170225 3.35498,-5.99088 3.18363,-6.268122 -0.4792,-0.775366 11.2687,-6.071977 19.67517,-8.870668 14.66985,-4.8839 27.8093,-6.720906 44.25677,-6.187467 20.85634,0.676431 40.01176,5.435852 62.69388,15.577141 7.64961,3.42018 11.59512,5.70898 20.26469,11.755587 37.74707,26.326787 68.86816,53.707407 90.36471,79.503687 18.87967,22.65596 32.00088,47.1387 36.62962,68.34682 2.54461,11.65901 2.76914,25.98807 0.56573,36.10452 -3.06956,14.0932 -10.6417,27.85119 -21.13557,38.40174 -9.56699,9.61866 -19.28641,15.81051 -27.89883,17.77325 -7.47597,1.70374 -22.36005,1.56532 -31.77139,-0.29549 -18.99773,-3.75621 -37.96411,-11.64861 -57.5758,-23.95878 -7.03151,-4.41365 -7.72937,-5.01283 -6.90253,-5.92647 0.81412,-0.8996 0.70576,-1.26681 -0.94298,-3.19543 -1.02455,-1.19848 -1.8744,-2.35358 -1.88855,-2.56691 -0.0141,-0.21332 2.15808,0.13243 4.82719,0.76834 6.16216,1.46813 15.09638,2.46925 22.03615,2.46925 h 5.40777 v -3.11456 c 0,-1.71301 0.17297,-3.56533 0.38439,-4.11627 0.33746,-0.87941 -0.57089,-1.0044 -7.44094,-1.02379 -8.88391,-0.0251 -14.68577,-0.91378 -25.50353,-3.90646 l -7.54586,-2.08753 -2.80489,-4.32004 c -1.54269,-2.37602 -2.70661,-4.41722 -2.58649,-4.53601 0.12012,-0.11879 1.90284,0.495 3.9616,1.36396 8.23008,3.47378 23.52967,5.87285 31.53079,4.94422 l 3.67221,-0.42621 v -2.78754 -2.78754 h -6.60352 c -12.50126,0 -22.87455,-2.42859 -32.50099,-7.6091 -2.52517,-1.35894 -4.60132,-2.26886 -4.61366,-2.02206 -0.0123,0.24679 -0.42936,-0.26371 -0.9267,-1.13446 -1.237,-2.16575 -3.68695,-9.50698 -3.30139,-9.89254 0.17191,-0.17191 1.8398,0.66268 3.70641,1.85463 5.01788,3.20426 10.43149,5.81092 15.426,7.42764 6.02702,1.95095 24.66301,2.52537 31.98021,0.98573 20.56151,-4.32642 28.58639,-21.81024 20.86118,-45.45029 -8.4687,-25.91522 -34.27067,-51.32661 -60.54228,-59.6258 -9.32693,-2.94638 -15.4246,-3.76259 -25.54587,-3.41944 -7.06825,0.23964 -10.59808,0.68349 -15.33097,1.92776 -14.0299,3.68844 -24.60252,13.27132 -28.77743,26.08346 -2.13556,6.55369 -2.38978,16.95454 -0.60368,24.69759 6.45076,27.96515 29.74734,59.5962 64.45817,87.51842 23.52431,18.92351 56.06049,35.33404 79.36091,40.02789 20.50206,4.13011 38.51849,2.79552 49.5956,-3.67385 7.3697,-4.30414 14.11228,-9.74411 20.93658,-16.89179 3.52567,-3.69273 6.4103,-6.52466 6.4103,-6.29317 0,1.19074 -8.28424,12.26416 -12.72965,17.01551 -14.87378,15.89745 -33.20431,23.8625 -57.56348,25.01268 l -8.54917,0.40367 -0.18854,3.95795 -0.18853,3.95795 h 4.39602 c 11.00344,0 24.8562,-2.28405 34.61061,-5.70662 11.91666,-4.18124 21.36254,-10.2781 31.38023,-20.25443 8.63628,-8.60061 15.53242,-18.45896 21.82785,-31.20391 4.3291,-8.76415 4.79782,-8.8752 3.70155,-0.87699 -0.36472,2.66089 -0.53396,2.89563 -1.84963,2.56541 -1.32053,-0.33143 -1.8442,0.41699 -5.94041,8.48981 -16.2522,32.02983 -37.67638,50.29153 -66.53455,56.71321 -8.99006,2.00053 -22.57922,3.2054 -29.83478,2.64528 l -5.45382,-0.42103 -0.40394,2.01969 c -0.22216,1.11083 -0.40394,2.98146 -0.40394,4.15698 v 2.13729 l 10.6073,-0.0124 c 20.92106,-0.0244 36.53419,-3.55739 52.06047,-11.78046 16.06502,-8.5084 31.35393,-23.93611 42.15873,-42.54148 2.04764,-3.52594 3.78501,-6.34877 3.86083,-6.27296 0.0758,0.0758 0.45828,3.04985 0.84991,6.60897 l 0.71207,6.47111 -3.13051,4.60713 c -3.92159,5.77135 -4.42862,6.23569 -21.12735,19.34819 -11.29511,8.86936 -15.30725,11.61443 -22.48114,15.38141 -4.80278,2.52192 -8.84815,4.68113 -8.98973,4.79824 -0.32343,0.26755 1.62881,4.59319 2.75748,6.10982 0.7873,1.05793 1.54288,0.76534 11.20424,-4.33876 20.61688,-10.89191 29.04567,-17.02984 39.03725,-28.42734 l 3.30297,-3.76773 v 4.595 c 0,4.36849 -0.10147,4.68957 -2.05814,6.51306 -23.83209,22.20994 -57.9163,35.45115 -101.7227,39.51774 l -4.67385,0.43388 0.40074,3.83408 c 0.22041,2.10874 0.47132,3.89246 0.55758,3.96382 0.0863,0.0714 3.74255,-0.24537 8.12508,-0.70382 34.43476,-3.60225 62.98543,-12.74047 84.76426,-27.13054 3.98246,-2.63136 7.34358,-4.68155 7.46915,-4.55598 0.43219,0.4322 -7.35576,8.93902 -11.94576,13.04841 -9.41967,8.43336 -18.31815,14.95566 -30.31154,22.21734 l -6.64935,4.02602 -14.24861,0.12564 c -7.83674,0.0691 -16.67087,-0.13981 -19.63142,-0.46424 z m 10.44898,-112.41474 c 21.55476,-3.97993 34.93511,-13.23068 40.11015,-27.73091 1.39272,-3.90234 1.61047,-5.58697 1.64546,-12.73005 0.0444,-9.05971 -0.8943,-14.64471 -4.12065,-24.51773 -2.40419,-7.3571 -7.50629,-19.49464 -8.1947,-19.49464 -0.50557,0 -6.43939,2.43554 -6.79137,2.78752 -0.0962,0.0962 1.09471,3.20504 2.64637,6.90862 9.45869,22.57644 11.06143,37.48247 5.25572,48.87991 -2.1415,4.20406 -7.90953,9.29072 -13.90059,12.25856 -5.2006,2.57625 -16.49299,5.82017 -23.45806,6.7387 -3.31118,0.43667 -3.48338,0.84265 -2.60666,6.14546 0.43844,2.65192 -0.46807,2.57927 9.41433,0.75456 z m 8.5301,-24.11037 c 7.29875,-2.00547 12.24085,-5.75759 14.66172,-11.13139 2.01586,-4.47481 2.03905,-12.59468 0.056,-19.60048 -1.53508,-5.42306 -5.09523,-13.7993 -5.86512,-13.7993 -0.47616,0 -6.42044,2.44201 -6.75245,2.77402 -0.0887,0.0887 0.82651,2.50364 2.03388,5.36644 3.88288,9.20665 5.12966,16.96235 3.44403,21.42376 -1.54741,4.09555 -6.49349,7.08659 -13.44162,8.12852 -3.27634,0.49132 -3.4473,0.89535 -2.58511,6.10942 0.37313,2.25649 0.44984,2.3137 2.68443,2.00183 1.26519,-0.17657 3.85911,-0.74934 5.76426,-1.27282 z m -183.44612,-38.2763 c 1.46639,-0.73941 2.73933,-1.40625 2.82873,-1.48188 0.0894,-0.0756 -1.13979,-3.10404 -2.73155,-6.72982 -1.59175,-3.62579 -4.28864,-10.72443 -5.99307,-15.77477 -7.66605,-22.71501 -8.00018,-39.08036 -1.06624,-52.22267 2.61529,-4.95689 10.28509,-12.65663 15.97095,-16.0333 8.45227,-5.01957 20.84261,-9.51014 31.97028,-11.58685 2.26394,-0.42251 4.20729,-0.84123 4.31856,-0.9305 0.11127,-0.0893 -0.14228,-1.91374 -0.56342,-4.05438 l -0.76572,-3.89209 -1.96967,0.40083 c -34.60996,7.04314 -53.12023,20.02524 -60.01341,42.09014 -1.32529,4.24225 -1.48068,5.9332 -1.45479,15.83179 0.0236,9.02973 0.28763,12.2451 1.42556,17.36089 2.88571,12.97329 12.4631,38.367 14.47036,38.367 0.49899,0 2.10703,-0.60497 3.57343,-1.34439 z m -29.3042,-74.80651 c 1.86764,-7.26459 2.82566,-10.07273 5.09731,-14.9411 5.26475,-11.2829 12.12495,-18.49607 22.44016,-23.59476 5.94782,-2.93994 16.77503,-6.2681 20.39146,-6.2681 1.51215,0 1.5376,-0.0833 1.11316,-3.64131 -0.23891,-2.00272 -0.62066,-3.84582 -0.84833,-4.09578 -0.634,-0.69605 -12.10861,1.83299 -18.01775,3.97117 -18.40795,6.66078 -30.55313,20.59357 -36.83272,42.25404 -2.1599,7.45026 -2.15385,7.48527 1.42238,8.2306 1.65442,0.3448 3.35327,0.6606 3.77522,0.70178 0.42195,0.0412 1.07855,-1.13627 1.45911,-2.61654 z"
       style="opacity:0;fill:#008000;fill-opacity:1;stroke:#000000;stroke-width:4.70316267;stroke-linecap:square;stroke-miterlimit:4;stroke-dasharray:none" />
    <path
       inkscape:connector-curvature="0"
       id="path4656"
       d="m 286.27328,482.8315 c -29.14525,-22.17343 -52.82844,-44.84364 -68.36645,-65.44225 -14.34781,-19.02076 -23.82,-36.8134 -30.67903,-57.62771 -5.82203,-17.66744 -8.65296,-33.16022 -9.84739,-53.89165 -1.05942,-18.38794 0.73833,-43.06463 4.69256,-64.41229 l 1.38579,-7.48143 34.51329,-30.85446 34.5133,-30.85447 0.45381,9.20541 c 1.61324,32.72446 2.60086,43.60158 5.55293,61.1567 6.21888,36.98201 17.02953,68.51051 33.43155,97.50078 4.82286,8.52431 16.80853,26.19056 23.04491,33.967 16.87146,21.03781 41.53458,44.62192 62.11297,59.39553 1.65442,1.18775 2.999,2.32496 2.98796,2.52714 -0.028,0.51306 -83.91006,53.24577 -84.69817,53.24577 -0.35253,0 -4.44664,-2.89533 -9.09803,-6.43407 z"
       style="opacity:0;fill:#008000;fill-opacity:1;stroke:#000000;stroke-width:4.70316267;stroke-linecap:square;stroke-miterlimit:4;stroke-dasharray:none" />
    <path
       inkscape:connector-curvature="0"
       id="path4658"
       d="m 155.91145,614.62957 c -3.05629,-5.3634 -10.53776,-16.00949 -16.35576,-23.27414 -7.12571,-8.89751 -14.19702,-16.7198 -32.39293,-35.83305 C 86.797405,534.13031 82.61884,529.53209 74.936057,520.05917 56.423343,497.23288 46.0982,477.86719 40.349709,455.18953 c -2.646174,-10.43909 -3.579986,-17.66908 -3.944631,-30.5411 -0.521113,-18.39532 1.081709,-32.75417 5.855693,-52.45816 3.650246,-15.06589 2.646757,-13.4574 15.930041,-25.53432 6.444083,-5.85884 11.812967,-10.55598 11.930853,-10.4381 0.117887,0.11789 -0.203532,3.20165 -0.714265,6.85281 -1.349846,9.64989 -1.847087,32.14213 -0.937751,42.41832 5.245484,59.27791 34.399171,113.91093 93.775901,175.73284 6.02142,6.26939 11.26289,11.30737 11.64772,11.19552 0.38483,-0.11185 7.55689,-4.16117 15.93793,-8.99849 8.38103,-4.83732 15.6737,-8.96222 16.20591,-9.16645 0.56185,-0.2156 3.73221,1.26162 7.55953,3.52234 11.33801,6.6971 22.91232,13.04642 32.87385,18.03359 l 9.59913,4.80575 -12.87439,7.99359 c -7.08091,4.39648 -16.02634,9.59108 -19.87873,11.54357 -15.57162,7.89207 -33.07216,13.47905 -51.44417,16.42334 -6.72083,1.07707 -12.56276,1.95523 -12.98206,1.95145 -0.41931,-0.004 -1.75978,-1.75718 -2.97882,-3.89646 z"
       style="opacity:1;fill:#008000;fill-opacity:1;stroke:#000000;stroke-width:4.70316267;stroke-linecap:square;stroke-miterlimit:4;stroke-dasharray:none" />
    <path
       inkscape:connector-curvature="0"
       id="path4660"
       d="m 359.5005,521.04409 c -10.90233,-4.15067 -20.976,-8.75274 -37.81582,-17.27582 -8.96078,-4.53529 -16.73186,-8.56737 -17.26906,-8.96018 -0.79853,-0.58391 7.3495,-5.95921 44.66276,-29.46429 25.10172,-15.81254 45.41157,-28.94573 45.133,-29.18485 -0.27856,-0.23913 -4.35361,-3.2802 -9.05565,-6.75793 -63.91856,-47.27562 -99.93455,-100.56919 -115.48334,-170.88298 -5.54703,-25.08442 -8.61789,-55.16528 -8.63175,-84.55288 l -0.006,-12.9932 24.43195,-22.36623 c 13.43758,-12.30143 24.54511,-22.25308 24.6834,-22.11479 0.13829,0.13829 -0.76159,3.0838 -1.99973,6.54558 -5.18351,14.49281 -7.41405,28.55228 -7.37834,46.50687 0.0273,13.71125 1.06028,23.65628 3.94674,37.99629 8.19146,40.69544 29.70797,83.79821 59.84111,119.87621 4.01356,4.80538 7.29738,8.94741 7.29738,9.2045 0,0.9056 8.62421,13.39153 14.56763,21.09066 3.30754,4.28459 9.71833,11.61382 14.24622,16.28718 21.18328,21.8638 39.91228,33.86808 78.68399,50.43218 6.35646,2.71562 11.54679,5.11 11.53405,5.32084 -0.0127,0.21085 -28.52104,20.57824 -63.3518,45.26086 l -63.32865,44.87748 1.02515,1.5646 c 0.56384,0.86052 0.92767,1.66209 0.80851,1.78125 -0.11916,0.11916 -3.0629,-0.86694 -6.54163,-2.19135 z"
       style="opacity:1;fill:#008000;fill-opacity:1;stroke:#000000;stroke-width:4.70316267;stroke-linecap:square;stroke-miterlimit:4;stroke-dasharray:none" />
    <path
       inkscape:connector-curvature="0"
       id="path4662"
       d="M 557.40558,406.96219 C 495.92551,400.84359 428.84501,365.14557 384.97954,315.20274 336.71547,260.2519 319.54143,196.72484 336.1857,134.71346 c 4.95876,-18.4748 12.71507,-36.467857 23.29928,-54.049531 2.27492,-3.778941 3.98801,-7.110623 3.80686,-7.403738 -0.5057,-0.818237 9.82958,-5.466061 19.08491,-8.582578 14.32378,-4.823199 25.20021,-6.590007 40.56791,-6.590007 16.58588,0 30.8242,2.49527 48.77315,8.547512 15.86251,5.348711 26.2821,10.389472 37.3039,18.046787 46.26277,32.140705 81.08909,64.308875 102.84853,94.998495 33.02485,46.57841 36.4065,90.67065 9.44035,123.08954 -9.72546,11.69202 -22.68993,20.85945 -32.24143,22.79854 -18.0847,3.67145 -38.70736,0.43234 -62.69388,-9.84704 -8.89296,-3.81106 -15.46747,-7.2975 -26.42245,-14.01168 -7.40264,-4.53699 -8.27117,-5.24633 -7.48602,-6.11391 0.77152,-0.85251 0.64495,-1.3077 -0.96344,-3.46481 -1.01839,-1.36585 -1.76854,-2.56646 -1.66697,-2.66802 0.10156,-0.10157 1.73876,0.23189 3.63821,0.74101 5.91615,1.58575 11.3659,2.25901 20.07021,2.47947 l 8.39756,0.2127 v -3.047 c 0,-1.67585 0.15728,-3.45687 0.34951,-3.95782 0.29141,-0.75938 -1.31436,-0.97262 -9.65739,-1.28245 -10.41358,-0.38673 -13.8506,-0.99211 -24.76547,-4.36202 l -6.52603,-2.01489 -2.47321,-4.12965 c -1.36027,-2.2713 -2.38596,-4.2169 -2.27932,-4.32355 0.10665,-0.10664 1.44908,0.36069 2.98317,1.03852 1.5341,0.67782 5.35402,2.00428 8.48871,2.94769 4.96731,1.49495 7.10271,1.75359 16.62338,2.01346 l 10.92393,0.29817 -0.003,-3.07986 -0.003,-3.07987 -8.70514,-0.0392 c -12.49484,-0.0562 -21.82079,-2.44815 -32.22001,-8.26373 -3.74062,-2.09188 -3.96503,-2.36011 -5.54854,-6.63219 -0.90727,-2.44866 -1.64988,-4.85753 -1.64988,-5.35302 0,-0.58392 1.66208,0.18413 4.72394,2.18294 6.01894,3.9292 12.53904,6.63683 19.25175,7.99475 7.74898,1.56754 24.5646,1.0524 30.80229,-0.94364 12.23283,-3.91444 18.63085,-11.76916 20.22136,-24.82536 1.30943,-10.74887 -3.88617,-26.41274 -13.63154,-41.09679 -4.89447,-7.37484 -18.25448,-20.94231 -25.82679,-26.22781 -10.34503,-7.22087 -22.3458,-12.39173 -33.85522,-14.58744 -5.77012,-1.10079 -19.36944,-1.25258 -24.84221,-0.27728 -17.88281,3.18691 -30.09953,12.78957 -34.87325,27.41127 -2.36451,7.2424 -2.38383,18.15277 -0.0479,27.06759 8.91854,34.03697 42.71072,73.41851 87.05485,101.45407 8.30897,5.25316 27.33661,14.73369 35.93306,17.90367 7.59171,2.79948 20.81195,6.21687 28.20283,7.29035 2.9483,0.42823 9.35017,0.76743 14.22636,0.75379 15.39181,-0.0431 23.35379,-2.48846 35.02137,-10.75628 5.00597,-3.54731 15.7329,-13.75415 18.20695,-17.3242 2.69987,-3.89592 2.67342,-2.32368 -0.03,1.78029 -11.85417,17.99578 -25.87242,29.27573 -43.56985,35.05898 -7.53734,2.46309 -15.33519,3.77333 -25.46029,4.27801 l -8.23253,0.41035 -0.1909,4.04901 -0.1909,4.04901 8.42343,-0.45179 c 39.53852,-2.12066 64.8318,-19.26946 83.62163,-56.69533 4.51828,-8.99957 4.9794,-9.1277 3.87592,-1.07696 -0.36461,2.66013 -0.53423,2.89556 -1.84845,2.56572 -1.31655,-0.33044 -1.8341,0.39831 -5.74084,8.08343 -16.65378,32.76036 -39.00154,51.48621 -68.65681,57.52957 -7.19237,1.46571 -20.70779,2.44412 -28.22547,2.04329 l -5.13275,-0.27367 -0.40837,2.04186 c -0.22458,1.12302 -0.40835,3.00364 -0.40835,4.17915 v 2.13729 h 9.99064 c 14.64348,0 25.18896,-1.48996 36.87145,-5.20952 16.48599,-5.24895 31.82896,-15.46477 43.58556,-29.02058 4.91588,-5.66822 13.57609,-18.14022 16.39246,-23.60763 l 1.68597,-3.27297 0.43604,2.53309 c 0.23981,1.3932 0.61467,4.52789 0.83303,6.96598 l 0.397,4.43291 -3.64277,5.04756 c -3.18708,4.41616 -5.57085,6.57164 -19.05609,17.23109 -13.07372,10.33416 -16.72648,12.87196 -24.06432,16.71903 -4.75804,2.49454 -8.76681,4.64043 -8.90839,4.76865 -0.31638,0.28653 1.61188,4.59088 2.72812,6.08985 0.74866,1.00536 1.55619,0.70376 9.9377,-3.71155 20.36125,-10.72613 27.39094,-15.62125 37.22581,-25.92217 l 6.41031,-6.71406 v 4.41816 4.41815 l -3.95795,3.6681 c -14.64568,13.57316 -35.67483,24.49833 -59.58886,30.9579 -10.78598,2.91348 -24.38133,5.23231 -41.10131,7.01027 -4.01895,0.42736 -4.14382,0.65806 -3.25703,6.01716 l 0.37035,2.23808 5.79708,-0.52393 c 8.27159,-0.74757 24.46139,-3.31245 33.17365,-5.25555 18.90416,-4.21621 40.79282,-13.27784 54.87703,-22.7184 3.44355,-2.30821 6.37923,-4.07852 6.52371,-3.93403 0.37718,0.37717 -7.98647,9.28646 -13.26601,14.13149 -7.4375,6.82539 -17.09348,13.818 -29.67271,21.48821 l -5.94248,3.62344 -13.61534,0.16778 c -7.48844,0.0923 -16.32257,-0.10165 -19.63142,-0.43095 z M 573.4417,293.08614 c 20.14096,-5.08667 31.63913,-15.22948 34.9428,-30.82392 1.74691,-8.24601 0.83136,-18.16479 -2.80709,-30.41105 -2.61835,-8.81284 -8.16155,-21.7784 -9.31098,-21.7784 -0.72964,0 -5.65957,2.18198 -6.42925,2.84559 -0.10005,0.0863 0.96503,2.76313 2.36683,5.94862 10.16208,23.0926 11.63213,40.97622 4.25662,51.78314 -5.40939,7.92607 -18.0933,14.06993 -34.46383,16.69364 -4.4241,0.70906 -4.59122,0.80002 -4.59122,2.49928 0,0.96989 0.18511,2.68896 0.41134,3.82016 l 0.41135,2.05672 4.02538,-0.41242 c 2.21396,-0.22682 7.24858,-1.22643 11.18805,-2.22136 z m 4.29506,-23.2079 c 9.73862,-3.17921 15.14804,-11.18953 14.30964,-21.18987 -0.46994,-5.60549 -1.95559,-11.20237 -4.70302,-17.71764 -1.24843,-2.96055 -2.33992,-5.47321 -2.42553,-5.5837 -0.12789,-0.16507 -6.52943,2.85588 -7.10367,3.35229 -0.095,0.0821 0.70531,2.10629 1.77848,4.49816 4.21715,9.39926 5.5231,18.31124 3.35334,22.88368 -1.60141,3.37472 -5.28846,5.6847 -11.04959,6.92271 -5.50871,1.18376 -5.50163,1.17359 -4.60252,6.60858 l 0.3753,2.2686 3.57568,-0.5454 c 1.96662,-0.29997 4.88798,-0.9738 6.49189,-1.49741 z M 391.89792,232.19748 c 1.67616,-0.71849 3.12818,-1.38696 3.22672,-1.4855 0.0985,-0.0985 -1.28051,-3.57154 -3.06456,-7.71778 -4.30707,-10.00993 -8.42103,-22.47408 -10.11744,-30.65303 -1.78253,-8.59413 -1.95819,-20.62212 -0.38845,-26.59741 3.28872,-12.51862 11.5754,-22.03988 25.05598,-28.78893 5.74828,-2.87787 17.56757,-6.84555 24.77438,-8.31664 2.96055,-0.60431 5.62307,-1.30645 5.91671,-1.56031 0.67783,-0.58596 -0.73724,-7.56294 -1.53392,-7.56294 -1.51721,0 -14.81525,3.38667 -20.13792,5.12862 -12.82386,4.19684 -21.62919,9.30201 -29.25904,16.96386 -5.6542,5.6779 -8.83203,10.85269 -11.49749,18.7225 -1.6631,4.91035 -1.98404,6.92359 -2.2425,14.06716 -0.44274,12.23678 1.38357,22.73049 6.54821,37.62501 2.89721,8.35537 8.49711,21.48172 9.16443,21.48172 0.27903,0 1.87873,-0.58785 3.55489,-1.30633 z m -29.17553,-73.89466 c 1.29229,-5.79187 3.86777,-12.93989 6.70271,-18.60278 7.07126,-14.12508 20.75055,-23.666 38.11425,-26.58361 l 4.9061,-0.82437 -0.41834,-3.51286 c -0.23008,-1.93208 -0.61789,-3.73066 -0.86181,-3.99686 -0.61827,-0.67476 -9.8326,1.15541 -15.72029,3.1224 -20.15484,6.73343 -32.50047,20.37669 -39.13313,43.2464 -2.10942,7.27338 -2.1056,7.29459 1.45486,8.06657 4.48796,0.97309 4.5364,0.96414 4.95565,-0.91489 z"
       style="opacity:1;fill:#008000;fill-opacity:1;stroke:#000000;stroke-width:4.70316267;stroke-linecap:square;stroke-miterlimit:4;stroke-dasharray:none" />
    <path
       inkscape:connector-curvature="0"
       id="path4664"
       d="m 492.39316,253.10847 c -9.01788,-1.78383 -20.71313,-8.80756 -31.30855,-18.80274 l -4.19964,-3.96174 -10.37544,3.7381 c -5.70649,2.05595 -11.14069,4.03523 -12.076,4.39839 -1.64175,0.63746 -1.81064,0.48868 -4.88404,-4.30248 -11.8999,-18.55087 -17.31415,-37.20991 -14.39072,-49.59442 2.89318,-12.25635 12.61027,-21.85217 25.15688,-24.84293 24.43269,-5.82406 50.03925,2.44425 70.56349,22.78481 12.07588,11.9678 19.49876,23.91242 23.41571,37.67965 1.58454,5.56933 1.63722,14.99516 0.10856,19.42277 -2.22168,6.43484 -8.18781,11.24875 -16.31552,13.16457 -4.43316,1.04496 -20.98083,1.24847 -25.69473,0.31602 z"
       style="opacity:1;fill:#008000;fill-opacity:1;stroke:#000000;stroke-width:4.70316267;stroke-linecap:square;stroke-miterlimit:4;stroke-dasharray:none" />
    <path
       inkscape:connector-curvature="0"
       id="path4666"
       d="m 466.53112,276.65671 c -12.74628,-11.51443 -30.2012,-30.67186 -28.98026,-31.80694 0.26567,-0.24699 4.23176,-1.78536 8.81353,-3.41858 7.92751,-2.82586 8.40562,-2.92027 9.88373,-1.95178 1.28653,0.84297 1.61656,1.69582 1.92201,4.96683 0.86866,9.30229 6.79383,23.12851 16.13952,37.66116 1.78193,2.77092 -0.26564,1.33611 -7.77853,-5.45069 z"
       style="opacity:1;fill:#008000;fill-opacity:1;stroke:#000000;stroke-width:4.70316267;stroke-linecap:square;stroke-miterlimit:4;stroke-dasharray:none" />
    <path
       inkscape:connector-curvature="0"
       id="path4668"
       d="m 397.93575,532.50056 c -1.23678,-0.34716 10.89826,-9.2587 76.87636,-56.45526 43.08972,-30.82367 78.80172,-56.37594 79.35999,-56.78284 0.55827,-0.4069 0.873,-0.87575 0.6994,-1.0419 -0.1736,-0.16615 -4.02028,-0.62916 -8.54817,-1.02891 C 504.6305,413.5107 467.9485,400.72109 432.44764,377.48755 364.67279,333.1323 315.54932,255.56483 309.17868,182.84209 c -2.4952,-28.4835 3.22991,-56.53801 15.42968,-75.60931 1.75929,-2.75023 2.17364,-3.87234 1.65891,-4.49256 -0.53062,-0.63935 1.63146,-2.95835 9.54015,-10.232549 9.99419,-9.192392 13.88511,-12.324675 13.88511,-11.177861 0,0.312843 -0.26069,0.839529 -0.57931,1.170413 -0.31862,0.330884 -2.70767,4.876191 -5.30899,10.100681 -10.49348,21.075066 -16.77391,40.698736 -20.16611,63.010516 -1.85875,12.2257 -2.0084,35.96264 -0.30542,48.44527 2.44502,17.92179 6.7434,33.91979 13.52682,50.34508 27.39,66.32183 92.88168,124.3942 168.50335,149.41422 15.71642,5.19989 31.39167,8.66836 49.19299,10.88496 8.08122,1.00626 36.32719,1.08219 36.93466,0.0993 0.23719,-0.38379 1.5705,-0.90101 2.9629,-1.14937 1.62133,-0.2892 2.30393,-0.23319 1.89836,0.15576 -1.9121,1.83375 -70.28798,44.45063 -108.28943,67.49393 -30.10743,18.25653 -85.43846,50.63431 -87.7081,51.3237 -0.52245,0.15869 -1.61078,0.10303 -2.4185,-0.1237 z"
       style="opacity:1;fill:#008000;fill-opacity:1;stroke:#000000;stroke-width:4.70316267;stroke-linecap:square;stroke-miterlimit:4;stroke-dasharray:none" />
    <path
       inkscape:connector-curvature="0"
       id="path4670"
       d="m 378.04219,527.5242 -7.43017,-2.26753 17.93796,-12.7311 c 9.86588,-7.00209 40.63468,-28.83201 68.37511,-48.51093 27.74043,-19.67891 50.43548,-35.92232 50.43344,-36.09647 -0.002,-0.17415 -8.04916,-3.73409 -17.88248,-7.91097 -28.36015,-12.0465 -44.78594,-20.48312 -57.77486,-29.67434 -8.29617,-5.87053 -21.84119,-17.50931 -20.37705,-17.50931 0.24268,0 2.51552,1.534 5.05076,3.4089 31.81432,23.5278 69.80662,39.83038 107.60317,46.17275 4.77678,0.80155 8.7988,1.58621 8.93784,1.74367 0.21807,0.24699 -146.07061,105.21044 -147.07288,105.52612 -0.20386,0.0642 -3.71424,-0.90364 -7.80084,-2.15079 z"
       style="opacity:1;fill:#008000;fill-opacity:1;stroke:#000000;stroke-width:4.70316267;stroke-linecap:square;stroke-miterlimit:4;stroke-dasharray:none" />
    <path
       inkscape:connector-curvature="0"
       id="path4672"
       d="m 240.02574,613.58663 c -2.3249,-0.9425 -4.35012,-1.85375 -4.50049,-2.025 -0.15038,-0.17125 6.41778,-6.2687 14.59591,-13.54989 l 14.86931,-13.23854 3.87979,1.46627 c 2.13388,0.80644 7.36829,2.63168 11.63203,4.05609 4.26373,1.42441 7.75464,2.80275 7.75757,3.06298 0.006,0.48792 -42.67372,22.03404 -43.52847,21.97486 -0.26321,-0.0182 -2.38076,-0.80427 -4.70565,-1.74677 z"
       style="opacity:1;fill:#008000;fill-opacity:1;stroke:#000000;stroke-width:4.70316267;stroke-linecap:square;stroke-miterlimit:4;stroke-dasharray:none" />
    <path
       inkscape:connector-curvature="0"
       id="path4674"
       d="m 202.28638,621.7793 c -2.15573,-1.26308 -3.92541,-2.4403 -3.93262,-2.61606 -0.007,-0.17576 3.19281,-1.40696 7.11118,-2.736 3.91837,-1.32904 10.24232,-3.81416 14.05322,-5.5225 3.81091,-1.70833 6.99354,-3.04143 7.07253,-2.96245 0.44695,0.44695 -2.05223,2.65902 -7.66873,6.78773 -3.48299,2.56037 -7.76897,5.71059 -9.5244,7.00049 l -3.19168,2.34528 z"
       style="opacity:1;fill:#008000;fill-opacity:1;stroke:#000000;stroke-width:4.70316267;stroke-linecap:square;stroke-miterlimit:4;stroke-dasharray:none" />
    <path
       inkscape:connector-curvature="0"
       id="path4676"
       d="m 285.93981,482.60841 c -19.72941,-15.1788 -33.90537,-27.59114 -47.7052,-41.77025 -52.42653,-53.86745 -70.17132,-114.52687 -56.94676,-194.66892 1.33861,-8.11206 2.26195,-12.0509 3.00197,-12.80592 1.70803,-1.74263 68.18309,-61.13665 68.31329,-61.03643 0.0648,0.0499 0.41562,7.63691 0.77968,16.86013 1.9353,49.02949 9.52598,86.7095 24.76729,122.94453 6.68586,15.89512 13.32532,28.15167 23.78652,43.9103 17.75465,26.74539 41.13561,51.23346 70.73909,74.08863 5.7224,4.41795 7.20352,5.86161 6.6038,6.43683 -1.23153,1.18121 -83.34936,52.77819 -83.99776,52.77819 -0.32178,0 -4.52564,-3.03169 -9.34192,-6.73709 z"
       style="opacity:1;fill:#008000;fill-opacity:1;stroke:#000000;stroke-width:4.70316267;stroke-linecap:square;stroke-miterlimit:4;stroke-dasharray:none" />
    <path
       inkscape:connector-curvature="0"
       id="path4678"
       d="m 167.55419,555.68069 c -47.4729,-48.82605 -76.878249,-97.29287 -87.307532,-143.903 -3.660247,-16.35822 -4.372656,-23.25073 -4.386296,-42.43714 -0.0096,-13.54968 0.243547,-19.44917 1.073501,-25.01422 0.597358,-4.00544 1.257283,-8.42945 1.466498,-9.83113 0.327521,-2.19429 1.545158,-3.77548 8.760417,-11.37605 l 8.380025,-8.82754 0.416225,13.27586 c 2.036702,64.96235 14.135212,111.7798 38.432872,148.72323 11.0425,16.7896 21.2283,28.22503 47.81939,53.68602 10.26877,9.83236 18.4554,18.08191 18.19251,18.33233 -0.85054,0.81021 -24.80381,14.49595 -25.37133,14.49595 -0.30218,0 -3.66651,-3.20594 -7.47628,-7.12431 z"
       style="opacity:1;fill:#008000;fill-opacity:1;stroke:#000000;stroke-width:4.70316267;stroke-linecap:square;stroke-miterlimit:4;stroke-dasharray:none" />
    <path
       inkscape:connector-curvature="0"
       id="path4684"
       d="m 407.07233,369.61511 c -1.08285,-1.08546 -1.92528,-2.0171 -1.87206,-2.07032 0.0735,-0.0735 3.51701,2.53406 4.294,3.25162 0.12435,0.11483 -0.1921,0.79226 -0.37009,0.79226 -0.0457,0 -0.969,-0.8881 -2.05185,-1.97356 z"
       style="opacity:1;fill:#008000;fill-opacity:1;stroke:#000000;stroke-width:1.17579067;stroke-linecap:square;stroke-miterlimit:4;stroke-dasharray:none" />
    <path
       inkscape:connector-curvature="0"
       id="path4688"
       d="m 642.8691,276.73327 c 1.6704,-6.34859 2.4338,-10.45076 2.8333,-15.22488 0.13911,-1.66243 0.31087,-3.37523 0.38168,-3.80622 0.12207,-0.743 0.14462,-0.70849 0.4347,0.66548 0.66593,3.15414 1.51251,12.09655 1.14518,12.09655 -0.0649,0 -0.54932,-0.15221 -1.07658,-0.33824 -0.52726,-0.18602 -0.98837,-0.30852 -1.02468,-0.2722 -0.0363,0.0363 -0.62763,1.66874 -1.31403,3.62761 -1.12613,3.21381 -1.76705,4.72457 -1.37957,3.2519 z"
       style="opacity:1;fill:#008000;fill-opacity:1;stroke:#000000;stroke-width:1.66281915;stroke-linecap:square;stroke-miterlimit:4;stroke-dasharray:none" />
    <path
       inkscape:connector-curvature="0"
       id="path4692"
       d="m 646.86843,288.86527 c -0.18471,-0.0308 -0.34115,-0.0601 -0.34763,-0.0652 -0.006,-0.005 0.2134,-0.54973 0.48863,-1.21027 0.27523,-0.66053 0.50021,-1.1506 0.49997,-1.08903 -2.5e-4,0.0616 -0.0368,0.57793 -0.0812,1.14747 -0.0444,0.56953 -0.0815,1.09219 -0.0824,1.16145 -8.7e-4,0.0693 -0.0331,0.12271 -0.0716,0.11876 -0.0385,-0.004 -0.22109,-0.0324 -0.40581,-0.0631 z"
       style="opacity:1;fill:#008000;fill-opacity:1;stroke:#000000;stroke-width:0.41570479;stroke-linecap:square;stroke-miterlimit:4;stroke-dasharray:none" />
    <path
       inkscape:connector-curvature="0"
       id="path4694"
       d="m 631.64281,301.6968 c -0.0561,-0.062 -0.21111,-0.18166 -0.34441,-0.26587 -0.13331,-0.0842 -0.24242,-0.17025 -0.24247,-0.1912 -6e-5,-0.0209 0.36212,-0.57508 0.80485,-1.23142 1.45662,-2.15946 2.54726,-3.93582 3.81853,-6.21937 1.22558,-2.2015 2.75692,-5.3052 3.60613,-7.30887 0.13529,-0.31921 0.25458,-0.55459 0.26509,-0.52306 0.038,0.11412 -1.90932,4.47348 -3.23086,7.23259 -1.39202,2.90625 -4.40229,8.61985 -4.5415,8.61994 -0.0183,10e-6 -0.0792,-0.0507 -0.13536,-0.11274 z"
       style="opacity:1;fill:#008000;fill-opacity:1;stroke:#000000;stroke-width:0.41570479;stroke-linecap:square;stroke-miterlimit:4;stroke-dasharray:none" />
    <path
       inkscape:connector-curvature="0"
       id="path4698"
       d="m 639.61968,285.78711 -0.0428,-0.0288 0.0892,-0.21148 c 0.89901,-2.13173 1.90917,-4.91159 2.63874,-7.26158 0.045,-0.145 0.0919,-0.26189 0.10479,-0.26149 0.0409,0.001 0.29068,0.0522 0.29955,0.061 0.021,0.021 -1.09633,2.94181 -1.77422,4.63829 -0.32161,0.80487 -1.25294,3.07081 -1.27002,3.08999 -0.001,0.002 -0.0217,-0.0102 -0.0453,-0.026 z"
       style="opacity:1;fill:#008000;fill-opacity:1;stroke:#000000;stroke-width:0.14697383;stroke-linecap:square;stroke-miterlimit:4;stroke-dasharray:none" />
    <path
       inkscape:connector-curvature="0"
       id="path4700"
       d="m 641.13088,366.24618 -0.25211,-0.24057 0.2801,-0.21845 c 0.15405,-0.12015 0.65414,-0.51672 1.1113,-0.88127 0.45715,-0.36455 0.84015,-0.65385 0.8511,-0.6429 0.0285,0.0285 -1.61804,2.18674 -1.68369,2.20696 -0.03,0.009 -0.16803,-0.0915 -0.3067,-0.22377 z"
       style="opacity:1;fill:#008000;fill-opacity:1;stroke:#000000;stroke-width:0;stroke-linecap:square;stroke-miterlimit:4;stroke-dasharray:none" />
    <path
       inkscape:connector-curvature="0"
       id="path4702"
       d="m 294.36523,585.79423 c -20.39677,-5.38013 -41.22152,-14.93061 -74.72604,-34.27028 -10.06469,-5.8096 -10.80997,-6.38385 -20.26468,-15.61409 -5.39864,-5.27047 -13.76944,-13.42452 -18.60176,-18.12013 -12.19601,-11.85094 -21.46047,-21.50181 -26.8022,-27.92008 -32.15715,-38.63794 -47.09255,-85.52482 -50.20743,-157.61676 -0.35365,-8.18504 -0.62212,-17.58912 -0.5966,-20.89796 l 0.0464,-6.01608 35.19885,-32.14395 c 19.35936,-17.67917 35.25924,-32.07027 35.33306,-31.98021 0.0738,0.0901 -0.39573,3.5834 -1.04345,7.76299 -2.62259,16.92321 -3.32184,26.2435 -3.3495,44.64565 -0.0203,13.52172 0.25388,20.3512 1.09331,27.23067 7.57994,62.12048 36.88544,109.14773 99.22244,159.22462 18.63571,14.97054 23.73041,18.45765 37.99916,26.00881 29.90057,15.82369 55.73096,26.62049 75.8314,31.69665 2.52517,0.63771 4.59121,1.36202 4.59121,1.60959 0,0.4988 -28.98174,16.67115 -53.51144,29.86038 -36.11042,19.416 -33.45339,18.32311 -40.21274,16.54018 z"
       style="opacity:1;fill:#e9c6af;fill-opacity:1;stroke:#000000;stroke-width:0;stroke-linecap:square;stroke-miterlimit:4;stroke-dasharray:none" />
  </g>
  <g
     aria-label="GIT PUSH"
     style="font-style:normal;font-variant:normal;font-weight:normal;font-stretch:normal;font-size:120px;line-height:1.25;font-family:Stencil;-inkscape-font-specification:'Stencil, Normal';font-variant-ligatures:normal;font-variant-caps:normal;font-variant-numeric:normal;font-feature-settings:normal;text-align:start;letter-spacing:0px;word-spacing:0px;writing-mode:lr-tb;text-anchor:start;fill:#000000;fill-opacity:1;stroke:none"
     id="text4760"
     transform="translate(-645.07661,-568.61367)">
    <path
       d="m 701.53803,652.78316 3.854,5.23904 q -3.42434,4.04659 0.70741,9.66321 l 32.32493,43.94186 q 1.87491,2.54873 3.58979,3.39667 1.44688,0.6814 4.01947,0.0255 l 3.92343,5.33344 q -1.51035,1.11106 -2.95832,1.81252 -1.40076,0.66675 -3.99831,1.48648 -6.20579,1.94652 -12.787,1.40508 -6.5812,-0.54144 -12.75335,-3.49326 -9.6019,-4.64771 -17.24044,-15.03139 -7.3955,-10.0533 -9.53732,-20.47983 -2.14182,-10.42653 1.29664,-19.79353 1.96064,-5.44301 5.56401,-9.83952 1.49354,-1.82609 3.99506,-3.66628 z m 7.65484,2.29755 -3.74983,-5.09745 q 8.21417,-4.95148 14.73245,-6.47322 1.94924,-0.41556 2.75162,-1.00581 0.75518,-0.55553 0.88972,-1.16368 0.14702,-0.69008 0.15896,-3.24476 -0.0184,-1.80494 1.25592,-2.7424 1.32156,-0.97218 2.39628,-0.59893 1.08719,0.29133 2.33713,1.99048 l 13.50633,18.36024 q 2.63877,3.58709 -0.004,5.53145 -1.32156,0.97218 -2.50315,0.75029 -1.13439,-0.25661 -3.22848,-1.9167 -2.65233,-2.12231 -7.0624,-4.2609 -4.4448,-2.18579 -7.63693,-2.96538 -3.67118,-0.93638 -6.87688,-0.25119 -3.24042,0.63798 -6.96639,3.08796 z m 60.08199,36.97986 q -0.49912,3.27677 -2.20315,7.58539 -1.69156,4.2267 -3.64298,7.40799 -1.81959,2.86608 -4.48332,5.77122 -2.61654,2.87043 -4.97647,4.60646 l -3.92343,-5.33344 q 1.12571,-1.33729 1.43928,-2.29536 0.36078,-0.9928 0.20779,-2.18958 -0.27397,-2.0534 -1.94056,-4.31893 l -10.13843,-13.78198 q -1.3541,-1.84075 -2.65233,-2.12231 -0.6776,-0.22894 -1.07743,-0.0803 -0.43455,0.10145 -2.58778,1.03077 -2.68218,1.10021 -4.20989,-0.97653 -0.90273,-1.22716 -0.35046,-2.65179 0.59948,-1.45936 2.67622,-2.98707 l 1.55755,-1.14578 17.27467,-12.70776 q 2.12394,-1.56243 3.42488,-1.57382 1.31342,-0.0933 2.38976,1.36985 0.6597,0.89677 0.73348,1.78812 0.0862,0.80943 -0.37163,2.16462 -0.45788,1.35519 -0.27723,2.09518 0.18066,0.73998 1.29172,2.25034 z"
       id="path4767"
       inkscape:connector-curvature="0" />
    <path
       d="m 815.16788,679.73813 -23.39747,11.63969 -1.36398,0.67855 q -1.88858,0.93952 -3.27707,0.77949 -1.36212,-0.23858 -2.01457,-1.5501 -1.07002,-2.15089 0.68913,-3.8768 1.44413,-1.4383 1.65424,-1.67371 0.23647,-0.31397 0.31635,-0.9427 0.21196,-1.15255 -0.70147,-2.98867 l -26.12406,-52.51315 q -0.91343,-1.83613 -1.96052,-2.36232 -0.54965,-0.31556 -0.91661,-0.26389 -0.3406,-0.0269 -2.35888,0.25727 -2.4377,0.36193 -3.50771,-1.78896 -0.65245,-1.31152 0.005,-2.48937 0.68384,-1.25641 2.57242,-2.19593 l 1.36398,-0.67855 23.39747,-11.63969 1.36398,-0.67855 q 1.88858,-0.93953 3.25071,-0.70094 1.38848,0.16003 2.04093,1.47155 1.07002,2.15089 -0.68914,3.8768 -1.44412,1.4383 -1.68059,1.75227 -0.21011,0.23541 -0.28999,0.86414 -0.21196,1.15255 0.70147,2.98867 l 26.12406,52.51315 q 0.91343,1.83613 1.96052,2.36232 0.54965,0.31556 0.89025,0.34245 0.36696,-0.0517 2.38524,-0.33583 2.4377,-0.36193 3.50771,1.78896 0.65245,1.31152 -0.0314,2.56792 -0.65748,1.17785 -2.54606,2.11738 z"
       id="path4769"
       inkscape:connector-curvature="0" />
    <path
       d="m 847.93682,583.38661 19.88527,65.9134 q 0.66002,2.18777 1.78917,2.88755 0.61801,0.42558 1.06145,0.4754 0.42652,-0.006 2.78352,-0.10533 2.8788,-0.19527 3.62344,2.27298 0.44001,1.45851 -0.74772,2.79607 -0.86275,0.9947 -3.38709,1.75627 l -1.85119,0.55848 -25.01904,7.54793 -1.85119,0.55848 q -2.46824,0.74464 -3.97847,0.40463 -1.47105,-0.41303 -1.92799,-1.92764 -0.74464,-2.46824 1.76183,-3.89764 2.01853,-1.22098 2.37736,-1.45164 0.3419,-0.28676 0.56534,-0.96619 0.55375,-1.20749 -0.10627,-3.39526 l -19.88527,-65.91339 z m 19.40939,-5.85557 6.92177,22.94347 q 0.49078,1.6268 -0.15823,2.92424 -0.59292,1.28051 -2.05143,1.72053 -1.40241,0.42309 -2.62683,-0.18675 -1.18525,-0.68287 -1.95651,-2.22505 l -1.59331,-3.25265 q -2.41535,-4.96312 -5.9783,-8.04997 -2.2254,-1.89911 -5.26278,-2.63523 l -2.04776,-6.78768 z m -63.61344,19.19139 14.75338,-4.45091 2.04776,6.78768 q -2.17959,2.31001 -2.92731,5.10608 -1.26134,4.54228 -0.52889,10.01311 l 0.47137,3.59112 q 0.2103,1.71142 -0.45563,2.95276 -0.62677,1.16832 -2.02918,1.59141 -1.45851,0.44002 -2.71678,-0.28202 -1.20217,-0.73896 -1.69295,-2.36575 z"
       id="path4771"
       inkscape:connector-curvature="0" />
    <path
       d="m 959.53544,568.61673 0.0425,68.84764 q 10e-4,2.28515 0.88093,3.28071 0.46912,0.58564 0.87938,0.76117 0.41023,0.11694 2.69575,0.70146 2.81289,0.6428 2.81448,3.22093 9.4e-4,1.52343 -1.52192,2.46187 -1.11284,0.70381 -3.69097,0.7054 l -1.99219,10e-4 -26.1328,0.0161 -1.52344,9.4e-4 q -2.10937,10e-4 -3.28172,-0.7597 -1.11379,-0.81962 -1.11469,-2.28446 -10e-4,-2.40235 2.3418,-3.16551 1.93319,-0.64573 2.22609,-0.76309 0.35145,-0.176 0.70269,-0.70356 0.70255,-0.93794 0.70128,-2.98872 l -0.0362,-58.65233 q -0.001,-2.05078 -0.70497,-2.98785 -0.35189,-0.52712 -0.70352,-0.64409 -0.29308,-0.1756 -2.22707,-0.81894 -2.34422,-0.76028 -2.3457,-3.16262 -9e-4,-1.46484 1.11191,-2.22725 1.17137,-0.82103 3.28074,-0.82233 l 1.52344,-9.4e-4 z m 5.0109,49.33285 -0.004,-6.26953 q 2.51917,-0.58749 3.51487,-1.23264 1.05429,-0.64518 1.81517,-1.9933 1.22906,-2.28592 1.22668,-6.1531 l -0.0116,-18.75 q -0.002,-2.75391 -0.41268,-4.10131 -0.41099,-1.3474 -1.64214,-2.45992 -1.70023,-1.63958 -4.57158,-2.04797 l -0.004,-6.32812 q 12.07031,-0.007 17.8139,2.27417 6.62272,2.63263 10.49327,8.07947 3.92921,5.56398 3.9342,13.64992 0.006,9.02343 -3.97527,14.76808 -3.98087,5.68605 -11.12764,8.38577 -5.91663,2.17162 -17.04944,2.17848 z"
       id="path4773"
       inkscape:connector-curvature="0" />
    <path
       d="m 1014.2106,627.6612 10.0567,-44.82316 q 0.449,-2.00104 -0.032,-3.06973 -0.2276,-0.59151 -0.545,-0.78282 -0.2474,-0.23566 -1.993,-1.28786 -2.1201,-1.25634 -1.607,-3.54323 0.3335,-1.48649 1.5865,-1.98601 1.3231,-0.54386 3.3813,-0.0821 l 1.4865,0.33351 25.4989,5.72104 1.4864,0.33351 2.0069,0.69048 q 0.9078,0.50393 1.37,1.38827 0.4621,0.88435 0.2312,1.91345 -0.5131,2.2869 -2.9667,2.51704 -2.0278,0.20559 -2.4093,0.30014 -0.3116,0.0502 -0.77,0.4878 -0.8914,0.76083 -1.3403,2.76186 l -10.7622,47.96765 q -1.0904,4.85966 -1.2978,6.85483 -0.1375,1.95082 0.3166,3.67406 0.4226,1.59607 1.1962,2.43021 0.7737,0.83413 3.1669,2.21178 l -1.6804,7.48958 -1.2578,-0.2822 q -7.4324,-1.66757 -12.0542,-4.08569 -5.4281,-2.83923 -9.0934,-6.84425 -3.6652,-4.00503 -4.6481,-8.18888 -1.046,-4.4382 0.6729,-12.09931 z m 31.6404,32.68046 1.6804,-7.48959 q 5.884,0.53951 10.5997,-2.54595 5.3584,-3.54173 7.2569,-12.00325 l 8.3635,-37.27641 q 1.7573,-7.83262 -3.5531,-12.26681 -1.5671,-1.31241 -1.9977,-2.06958 -0.3606,-0.80152 -0.078,-2.05931 0.3335,-1.48648 1.5609,-1.87166 1.2273,-0.38517 3.6858,0.16641 l 14.0072,3.14272 q 1.7723,0.39765 2.3184,0.64027 0.6161,0.19827 1.1108,0.66958 1.2941,1.1911 0.9606,2.67759 -0.2822,1.25779 -1.3894,1.91014 -0.35,0.22172 -2.8047,0.99207 -2.8235,0.80773 -4.8942,3.34566 -2.0578,2.48077 -2.8659,6.08263 l -8.3764,37.33358 q -2.155,9.60497 -7.7711,14.83035 -4.1135,3.88111 -10.5036,5.32982 -3.1665,0.73076 -7.3097,0.46174 z"
       id="path4775"
       inkscape:connector-curvature="0" />
    <path
       d="m 1141.8828,606.06537 -2.8124,6.12329 q -3.717,-0.61107 -6.3545,0.49874 -2.5599,1.08103 -3.8316,3.84982 -1.2228,2.6623 -0.7144,5.34596 0.5327,2.63041 2.9493,5.93258 1.6738,2.2518 7.9646,9.33225 3.8384,4.27762 5.6648,7.17983 1.9042,2.87342 3.0976,6.45204 3.2505,9.48829 -0.9314,18.59337 -3.1548,6.86874 -9.1793,11.00089 -6.0246,4.13216 -13.4799,4.64111 -3.9774,0.23653 -8.2513,-0.56586 -4.2451,-0.72469 -7.5464,-2.24095 l 2.788,-6.07005 q 5.146,1.00949 8.0742,-0.0313 3.0059,-1.06957 4.5711,-4.47732 1.6385,-3.56749 -0.309,-7.75038 -1.3228,-2.73535 -6.088,-8.08346 -5.2287,-5.88335 -7.1155,-8.23298 -1.8336,-2.32517 -3.3118,-5.00294 -6.7332,-11.73266 -1.2795,-23.60653 2.7879,-6.07005 7.6382,-10.03224 4.8748,-4.01545 10.7904,-5.10268 8.2351,-1.50484 17.6668,2.2468 z m 1.394,8.0553 2.6902,-5.85706 q 3.0969,1.68033 5.1463,3.39534 2.0738,1.66176 5.5552,5.45304 0.8693,0.91509 1.5615,1.23301 1.0117,0.46466 1.8088,-0.007 l 1.8806,-1.00611 q 1.39,-0.78012 2.6147,-0.21764 1.4376,0.66031 1.5874,2.0187 0.2276,1.3296 -0.7996,3.56594 l -8.0704,17.57119 q -0.7092,1.54414 -2.079,2.14006 -1.2922,0.56714 -2.6766,-0.0687 -1.0649,-0.48912 -1.6522,-1.59707 -0.2835,-0.64607 -0.334,-1.37851 0.027,-0.76123 0.4213,-2.32115 0.6127,-2.87807 0.4467,-6.30717 -0.1659,-3.4291 -1.0801,-6.4926 -1.8528,-6.07375 -7.0208,-10.12383 z m -36.0776,60.15908 -2.788,6.07005 q -4.3661,-2.00537 -8.4881,-6.92906 -1.5543,-1.81005 -2.1775,-2.41866 -0.6232,-0.60861 -1.3154,-0.92654 -1.0649,-0.48912 -1.7685,-0.36095 -0.6792,0.0749 -2.4865,0.92129 -1.4964,0.7312 -2.6146,0.21763 -2.9818,-1.36952 -0.8786,-5.94868 l 8.9019,-19.38156 q 0.6848,-1.49089 2.0014,-2.11127 1.341,-0.67363 2.6434,-0.13994 1.1959,0.48478 1.4924,1.5237 0.3743,1.01012 0.022,3.04059 -0.8785,5.14164 -0.4231,10.1867 0.5086,5.06951 2.3252,9.25674 1.8209,4.31817 5.554,6.99996 z"
       id="path4777"
       inkscape:connector-curvature="0" />
    <path
       d="m 1201.7748,685.49783 7.5766,5.81487 15.5539,-20.26623 q 1.9977,-2.603 1.0065,-4.10237 l -1.1307,-1.60639 q -1.3382,-1.9134 0.1601,-3.86565 1.855,-2.41707 5.2017,0.15146 l 1.2086,0.92752 20.6845,15.87494 1.2551,0.9632 q 3.4861,2.67555 1.6311,5.09262 -1.4627,1.90577 -3.7857,1.08308 -1.9263,-0.66594 -2.3122,-0.74054 -0.3038,-0.0854 -0.9038,0.11889 -1.1285,0.31563 -2.3771,1.94251 l -35.567,46.34272 q -1.9621,2.55651 -0.9957,4.18452 l 1.095,1.65287 q 1.3955,2.03123 -0.1028,3.98348 -1.8907,2.46356 -5.3769,-0.21199 l -1.255,-0.9632 -20.6846,-15.87494 -1.3015,-0.99887 q -3.2537,-2.49718 -1.363,-4.96074 1.4983,-1.95225 3.7284,-1.20091 l 1.8799,0.63027 q 1.669,0.61621 3.7381,-2.07976 l 16.4814,-21.47476 -7.5766,-5.81487 z m -30.553,31.72556 -20.731,-15.91061 -1.2086,-0.92753 q -1.6733,-1.28426 -2.1392,-2.60201 -0.3837,-1.32856 0.5081,-2.49061 1.4627,-1.90577 3.7857,-1.08308 1.9263,0.66594 2.2301,0.75135 0.3859,0.0746 0.9859,-0.1297 1.1285,-0.31563 2.3771,-1.9425 l 35.7097,-46.52865 q 1.2486,-1.62688 1.2616,-2.79868 0.042,-0.63238 -0.1654,-0.93939 -0.1253,-0.31782 -1.2668,-2.00637 -1.3956,-2.03122 0.067,-3.93699 0.8918,-1.16206 2.2387,-1.08852 1.4291,0.0627 3.1025,1.347 l 1.2085,0.92752 20.7311,15.91061 1.2085,0.92753 q 3.3002,2.53285 1.4452,4.94993 -1.4983,1.95225 -3.6927,1.15442 l -1.7977,-0.64107 q -1.7047,-0.56973 -3.7025,2.03327 l -35.7097,46.52865 q -1.9977,2.603 -1.0065,4.10237 l 1.0842,1.57072 q 1.3383,1.9134 -0.16,3.86565 -1.8551,2.41707 -5.1553,-0.11578 z"
       id="path4779"
       inkscape:connector-curvature="0" />
  </g>
  <g
     aria-label="GET PAID"
     style="font-style:normal;font-variant:normal;font-weight:normal;font-stretch:normal;font-size:120px;line-height:1.25;font-family:Stencil;-inkscape-font-specification:'Stencil, Normal';font-variant-ligatures:normal;font-variant-caps:normal;font-variant-numeric:normal;font-feature-settings:normal;text-align:start;letter-spacing:14.6600008px;word-spacing:0px;writing-mode:lr-tb;text-anchor:start;fill:#000000;fill-opacity:1;stroke:none"
     id="text4784"
     transform="translate(-645.07661,-568.61367)">
    <g
       aria-label="GIT PAID"
       style="font-style:normal;font-variant:normal;font-weight:normal;font-stretch:normal;font-size:120px;line-height:1.25;font-family:Stencil;-inkscape-font-specification:'Stencil, Normal';font-variant-ligatures:normal;font-variant-caps:normal;font-variant-numeric:normal;font-feature-settings:normal;text-align:start;letter-spacing:14.5px;word-spacing:0px;writing-mode:lr-tb;text-anchor:start;fill:#000000;fill-opacity:1;stroke:none"
       id="text4584">
      <path
         d="m 759.47122,1290.2042 -3.54651,5.4518 q -4.99318,-1.7802 -8.79529,4.0647 l -29.74593,45.727 q -1.72532,2.6523 -1.91515,4.5559 -0.1283,1.5942 1.39142,3.7711 l -3.61041,5.5501 q -1.57172,-1.0224 -2.7381,-2.1307 -1.11727,-1.0763 -2.79912,-3.2188 -4.00697,-5.123 -5.8175,-11.4734 -1.81053,-6.3504 -1.22101,-13.1666 0.96916,-10.6235 7.99827,-21.429 6.80546,-10.4618 15.81012,-16.1377 9.00466,-5.6759 18.9825,-5.7559 5.7848,-0.081 11.16852,1.7432 2.23504,0.7549 4.83819,2.4483 z m 0.54491,7.9736 3.45066,-5.3046 q 7.52667,5.9447 11.24609,11.5097 1.07529,1.6781 1.91026,2.2213 0.78586,0.5112 1.40244,0.423 0.69765,-0.1054 3.09294,-0.9938 1.68285,-0.6528 3.00899,0.2099 1.37525,0.8946 1.40432,2.0319 0.11013,1.1202 -1.04009,2.8884 l -12.42875,19.1061 q -2.42824,3.7329 -5.17874,1.9436 -1.37525,-0.8946 -1.58362,-2.0786 -0.15925,-1.1521 0.65718,-3.6966 1.05249,-3.2298 1.5013,-8.1105 0.48076,-4.9297 0.0865,-8.192 -0.41623,-3.7657 -2.18629,-6.5249 -1.73811,-2.8082 -5.34314,-5.4329 z m -13.45629,69.2552 q -3.24266,0.6866 -7.87536,0.6088 -4.55164,-0.095 -8.2163,-0.8013 -3.32323,-0.6939 -6.98025,-2.1641 -3.60791,-1.4383 -6.06371,-3.0358 l 3.61041,-5.5501 q 1.64802,0.5827 2.65515,0.5389 1.05624,-0.012 2.12252,-0.5765 1.82543,-0.9795 3.35906,-3.337 l 9.32955,-14.3419 q 1.24607,-1.9156 1.05249,-3.2298 -0.0243,-0.7148 -0.30422,-1.0367 -0.24796,-0.371 -1.87594,-2.0591 -1.97416,-2.123 -0.56834,-4.2841 0.83071,-1.2771 2.35857,-1.2618 1.57698,0.047 3.73809,1.4531 l 1.62083,1.0544 17.9765,11.6938 q 2.21022,1.4378 2.67896,2.6514 0.5498,1.1965 -0.44067,2.7191 -0.60706,0.9332 -1.41535,1.3161 -0.72721,0.3657 -2.15684,0.4144 -1.42963,0.049 -2.05862,0.4782 -0.62899,0.4297 -1.6514,2.0014 z"
         style="letter-spacing:14.5px"
         id="path4605"
         inkscape:connector-curvature="0" />
      <path
         d="m 795.16343,1400.3789 -24.01193,-10.3126 -1.3998,-0.6012 q -1.93818,-0.8324 -2.71436,-1.9948 -0.69921,-1.193 -0.12114,-2.539 0.94802,-2.2074 3.40215,-1.9824 2.03102,0.1708 2.34645,0.1788 0.3924,-0.023 0.92354,-0.3686 1.01602,-0.584 1.82531,-2.4683 l 23.1457,-53.8922 q 0.80929,-1.8844 0.53319,-3.0233 -0.11492,-0.6232 -0.39171,-0.8697 -0.19982,-0.2771 -1.72214,-1.6324 -1.85294,-1.6248 -0.90492,-3.8321 0.57807,-1.346 1.90159,-1.6066 1.40048,-0.2913 3.33867,0.5412 l 1.39979,0.6011 24.01193,10.3127 1.3998,0.6012 q 1.93818,0.8324 2.6374,2.0255 0.77617,1.1623 0.19811,2.5083 -0.94803,2.2074 -3.40216,1.9824 -2.03101,-0.1709 -2.42341,-0.1481 -0.31544,-0.01 -0.84657,0.3379 -1.01603,0.5839 -1.82532,2.4683 l -23.1457,53.8922 q -0.80929,1.8844 -0.53319,3.0233 0.11493,0.6232 0.31475,0.9004 0.27679,0.2464 1.7991,1.6016 1.85295,1.6249 0.90492,3.8322 -0.57806,1.346 -1.97855,1.6373 -1.32352,0.2605 -3.2617,-0.5719 z"
         style="letter-spacing:14.5px"
         id="path4607"
         inkscape:connector-curvature="0" />
      <path
         d="m 884.65977,1343.9267 -16.25731,66.9007 q -0.53961,2.2205 0.0792,3.396 0.31714,0.68 0.67419,0.9477 0.37088,0.2107 2.45305,1.3197 2.58077,1.2904 1.97199,3.7956 -0.35974,1.4804 -2.06147,2.0316 -1.24783,0.4204 -3.80998,-0.2022 l -1.87892,-0.4566 -25.39378,-6.1709 -1.87892,-0.4566 q -2.50521,-0.6088 -3.63489,-1.6672 -1.0589,-1.1015 -0.68533,-2.6388 0.60878,-2.5052 3.49394,-2.4673 2.3589,-0.03 2.78513,-0.047 0.44006,-0.074 0.97698,-0.5465 1.08926,-0.7604 1.62887,-2.9809 l 16.25731,-66.9007 z m 19.70011,4.7873 -5.65893,23.2871 q -0.40124,1.6511 -1.61821,2.4408 -1.16004,0.8035 -2.6404,0.4437 -1.42341,-0.3459 -2.16996,-1.4921 -0.67578,-1.1893 -0.55922,-2.9096 l 0.27463,-3.6115 q 0.4327,-5.5027 -1.07473,-9.9693 -0.95618,-2.7649 -3.2017,-4.9387 l 1.67416,-6.8893 z m -64.56626,-15.6901 14.97436,3.6389 -1.67416,6.8893 q -3.0496,0.887 -5.11106,2.9186 -3.38913,3.2768 -5.52993,8.3644 l -1.41337,3.3347 q -0.68592,1.582 -1.88906,2.3147 -1.13237,0.6897 -2.55578,0.3438 -1.48036,-0.3598 -2.19924,-1.6199 -0.66193,-1.2462 -0.26069,-2.8974 z"
         style="letter-spacing:14.5px"
         id="path4609"
         inkscape:connector-curvature="0" />
      <path
         d="m 978.6225,1350.4863 4.28711,68.7141 q 0.1423,2.2807 1.08152,3.2201 0.50433,0.5556 0.92464,0.7055 0.41665,0.091 2.73386,0.534 2.84718,0.4681 3.00772,3.0412 0.0949,1.5205 -1.36724,2.5511 -1.06734,0.771 -3.64046,0.9316 l -1.98832,0.124 -26.0821,1.6273 -1.52048,0.095 q -2.10528,0.1313 -3.32232,-0.5559 -1.1622,-0.7494 -1.25341,-2.2114 -0.1496,-2.3977 2.14217,-3.3039 1.88971,-0.7637 2.17481,-0.8989 0.33994,-0.1973 0.65798,-0.7455 0.64338,-0.9795 0.51568,-3.0263 l -3.65225,-58.5385 q -0.1277,-2.0468 -0.88784,-2.9387 -0.38372,-0.5045 -0.74189,-0.5995 -0.30335,-0.1572 -2.27332,-0.6801 -2.38664,-0.6143 -2.53623,-3.012 -0.0912,-1.462 0.97247,-2.2915 1.11852,-0.8917 3.2238,-1.0231 l 1.52049,-0.095 z m 8.04293,48.9301 -0.3904,-6.2574 q 2.47816,-0.7417 3.43218,-1.447 1.01251,-0.7089 1.68883,-2.1014 1.08579,-2.3573 0.84498,-6.217 l -1.16755,-18.7136 q -0.17149,-2.7486 -0.66477,-4.0681 -0.49327,-1.3195 -1.79068,-2.354 -1.79808,-1.5316 -4.68914,-1.7622 l -0.39405,-6.3159 q 12.04689,-0.7516 17.92027,1.1716 6.7724,2.2193 10.9714,7.4171 4.2648,5.3112 4.7683,13.3814 0.5619,9.006 -3.0572,14.9851 -3.6227,5.9207 -10.5895,9.0559 -5.77146,2.5323 -16.88267,3.2255 z"
         style="letter-spacing:14.5px"
         id="path4611"
         inkscape:connector-curvature="0" />
      <path
         d="m 1043.9645,1340.7306 22.7849,-6.1996 33.7934,62.1558 q 0.9292,1.6296 1.8638,2.8327 0.8011,0.9358 2.7384,1.1373 1.6392,0.222 2.3738,0.6901 0.7346,0.468 1.0269,1.5423 0.7999,2.94 -3.61,4.1399 l -28.2126,7.6764 q -1.6962,0.4615 -2.9292,-0.053 -1.2485,-0.5712 -1.6177,-1.9281 -0.3077,-1.1308 -0.01,-1.8192 0.2985,-0.6885 1.6508,-1.9673 0.9769,-0.873 1.2446,-1.6746 0.2677,-0.8015 -0.01,-1.8192 -0.2615,-0.9611 -0.6311,-1.65 l -4.0398,-7.7058 -15.7742,4.2921 -0.3041,-7.1434 12.6645,-3.446 -22.9099,-43.135 z m 0.01,15.4222 6.0679,10.9188 -0.07,39.2466 q -0.022,1.7062 0.3476,3.0631 0.9692,3.5619 4.7203,4.1808 l 2.225,0.3662 q 2.0965,0.3404 2.6349,2.3192 0.7692,2.8269 -3.3581,3.9499 l -14.3607,3.9075 q -2.0919,0.5692 -3.5665,0.059 -1.4334,-0.5815 -1.8488,-2.108 -0.4461,-1.6397 1.7493,-3.3908 2.0411,-1.6484 2.9,-2.7322 0.9,-1.1557 1.5331,-2.8461 0.9523,-2.7488 0.9239,-6.8703 z"
         style="letter-spacing:14.5px"
         id="path4613"
         inkscape:connector-curvature="0" />
      <path
         d="m 1156.0922,1384.1472 -23.6831,11.0471 -1.3806,0.644 q -1.9116,0.8917 -3.2956,0.6967 -1.3557,-0.2727 -1.975,-1.6003 -1.0155,-2.1771 0.7865,-3.8582 1.4799,-1.4015 1.6959,-1.6315 0.2443,-0.308 0.34,-0.9345 0.2409,-1.1468 -0.6261,-3.0054 l -24.7939,-53.154 q -0.867,-1.8586 -1.9005,-2.411 -0.5415,-0.3293 -0.9096,-0.2868 -0.3399,-0.035 -2.3646,0.1978 -2.4461,0.3004 -3.4616,-1.8767 -0.6193,-1.3275 0.068,-2.4885 0.7152,-1.2388 2.6269,-2.1305 l 1.3806,-0.644 23.683,-11.047 1.3806,-0.644 q 1.9117,-0.8917 3.2674,-0.6189 1.384,0.1949 2.0032,1.5224 1.0155,2.1772 -0.7865,3.8583 -1.4799,1.4015 -1.7242,1.7094 -0.2159,0.23 -0.3116,0.8566 -0.2409,1.1468 0.626,3.0053 l 24.794,53.1541 q 0.8669,1.8586 1.9004,2.4109 0.5415,0.3293 0.8814,0.3648 0.3681,-0.042 2.3929,-0.2757 2.446,-0.3005 3.4616,1.8767 0.6192,1.3275 -0.096,2.5663 -0.6869,1.1609 -2.5985,2.0526 z"
         style="letter-spacing:14.5px"
         id="path4615"
         inkscape:connector-curvature="0" />
      <path
         d="m 1163.3905,1286.816 45.8932,65.5034 -21.3546,14.9615 -1.2477,0.8741 q -1.7275,1.2104 -3.1244,1.259 -1.3824,-0.033 -2.223,-1.2327 -1.3785,-1.9675 0.104,-3.9362 1.2137,-1.6374 1.3864,-1.9015 0.1871,-0.3457 0.1724,-0.9793 0.038,-1.1713 -1.1388,-2.8508 l -33.655,-48.0358 q -1.1768,-1.6796 -2.2906,-2.0439 -0.5905,-0.2302 -0.9457,-0.1244 -0.3408,0.024 -2.2942,0.6057 -2.3566,0.7211 -3.7351,-1.2464 -0.8405,-1.1997 -0.3658,-2.4624 0.489,-1.3442 2.2166,-2.5546 l 1.2477,-0.8742 z m 45.971,44.9873 -26.5273,-37.8624 q -2.4544,-3.5031 -4.9078,-4.8605 -1.5653,-0.9066 -2.9141,-0.8916 -1.3489,0.015 -3.6189,0.9615 l -3.732,-5.3266 q 2.5433,-1.7819 4.4534,-2.834 6.5651,-3.5981 15.4361,-3.0882 8.7221,0.3996 16.3661,5.4894 7.8073,5.1185 13.8591,13.7563 6.8588,9.7896 8.6055,19.9412 1.7131,10.1037 -1.9457,19.1776 -1.7838,4.3977 -4.0771,7.1492 -2.2454,2.7178 -6.8042,5.9118 l -3.6311,-5.1826 q 1.6456,-1.94 2.1108,-2.9098 0.5132,-1.0035 0.4503,-2.3187 -0.02,-1.5601 -0.6877,-3.0238 -0.6535,-1.5454 -2.4354,-4.0888 z"
         style="letter-spacing:14.5px"
         id="path4617"
         inkscape:connector-curvature="0" />
    </g>
  </g>
</svg>
