<?xml version="1.0" encoding="UTF-8" standalone="no"?>
<svg
   xmlns:dc="http://purl.org/dc/elements/1.1/"
   xmlns:cc="http://creativecommons.org/ns#"
   xmlns:rdf="http://www.w3.org/1999/02/22-rdf-syntax-ns#"
   xmlns:svg="http://www.w3.org/2000/svg"
   xmlns="http://www.w3.org/2000/svg"
   xmlns:sodipodi="http://sodipodi.sourceforge.net/DTD/sodipodi-0.dtd"
   xmlns:inkscape="http://www.inkscape.org/namespaces/inkscape"
   xml:space="preserve"
   width="769.94287"
   height="769.92609"
   version="1.1"
   id="svg827"
   sodipodi:docname="git.svg"
   viewBox="0 0 769.94287 769.92609"
   inkscape:version="0.92.3 (2405546, 2018-03-11)"><metadata
   id="metadata833"><rdf:RDF><cc:Work
       rdf:about=""><dc:format>image/svg+xml</dc:format><dc:type
         rdf:resource="http://purl.org/dc/dcmitype/StillImage" /><dc:title></dc:title></cc:Work></rdf:RDF></metadata><defs
   id="defs831" /><sodipodi:namedview
   pagecolor="#ffffff"
   bordercolor="#666666"
   borderopacity="1"
   objecttolerance="10"
   gridtolerance="10"
   guidetolerance="10"
   inkscape:pageopacity="0"
   inkscape:pageshadow="2"
   inkscape:window-width="1920"
   inkscape:window-height="1001"
   id="namedview829"
   showgrid="false"
   scale-x="1"
   inkscape:zoom="0.52061856"
   inkscape:cx="651.50972"
   inkscape:cy="45.944248"
   inkscape:window-x="2091"
   inkscape:window-y="-9"
   inkscape:window-maximized="1"
   inkscape:current-layer="svg827" />
  <path
   d="M 755.41979,350.6674 419.2587,14.523069 c -19.35572,-19.364092 -50.7522,-19.364092 -70.12467,0 l -69.79791,69.814663 88.54195,88.541948 c 20.57907,-6.95466 44.1746,-2.2875 60.57251,14.11877 16.49844,16.50682 21.12371,40.30346 13.9931,60.95794 l 85.3495,85.34113 c 20.65448,-7.12223 44.46788,-2.51373 60.95795,14.00147 23.04252,23.04253 23.04252,60.3798 0,83.43908 -23.05929,23.05091 -60.39655,23.05091 -83.46421,0 -17.32799,-17.34474 -21.61807,-42.81721 -12.8284,-64.16715 L 412.85707,286.97786 V 496.4302 c 5.614,2.78187 10.91797,6.48543 15.59351,11.16096 23.04251,23.04253 23.04251,60.37979 0,83.44745 -23.04252,23.03414 -60.40494,23.03414 -83.43069,0 -23.04253,-23.07603 -23.04253,-60.41331 0,-83.44745 5.69779,-5.68941 12.29213,-9.99626 19.33058,-12.87866 V 283.30782 c -7.03845,-2.88241 -13.61605,-7.14738 -19.33058,-12.87868 -17.45367,-17.44529 -21.6516,-43.06857 -12.70272,-64.5023 L 245.03209,118.625 14.523074,349.10888 c -19.3640986,19.38086 -19.3640986,50.77735 0,70.14145 l 336.177846,336.1527 c 19.35571,19.36409 50.74382,19.36409 70.12468,0 l 334.59419,-334.5942 c 19.3641,-19.3641 19.3641,-50.77734 0,-70.14143 z"
   id="path825"
   inkscape:connector-curvature="0"
   style="fill:#f05133;stroke-width:8.37909985" />
</svg>