<?xml version="1.0" encoding="UTF-8" standalone="no"?>
<svg
   xmlns:dc="http://purl.org/dc/elements/1.1/"
   xmlns:cc="http://creativecommons.org/ns#"
   xmlns:rdf="http://www.w3.org/1999/02/22-rdf-syntax-ns#"
   xmlns:svg="http://www.w3.org/2000/svg"
   xmlns="http://www.w3.org/2000/svg"
   xmlns:sodipodi="http://sodipodi.sourceforge.net/DTD/sodipodi-0.dtd"
   xmlns:inkscape="http://www.inkscape.org/namespaces/inkscape"
   viewBox="0 0 192.05353 184.98541"
   version="1.1"
   id="svg42"
   sodipodi:docname="gitlab-logo.svg"
   width="192.05353"
   height="184.98541"
   inkscape:version="0.92.3 (2405546, 2018-03-11)">
  <metadata
     id="metadata46">
    <rdf:RDF>
      <cc:Work
         rdf:about="">
        <dc:format>image/svg+xml</dc:format>
        <dc:type
           rdf:resource="http://purl.org/dc/dcmitype/StillImage" />
      </cc:Work>
    </rdf:RDF>
  </metadata>
  <sodipodi:namedview
     pagecolor="#ffffff"
     bordercolor="#666666"
     borderopacity="1"
     objecttolerance="10"
     gridtolerance="10"
     guidetolerance="10"
     inkscape:pageopacity="0"
     inkscape:pageshadow="2"
     inkscape:window-width="1920"
     inkscape:window-height="1001"
     id="namedview44"
     showgrid="false"
     inkscape:zoom="2.1263158"
     inkscape:cx="96.026755"
     inkscape:cy="92.502676"
     inkscape:window-x="2391"
     inkscape:window-y="-9"
     inkscape:window-maximized="1"
     inkscape:current-layer="svg42" />
  <defs
     id="defs31">
    <style
       id="style29">.cls-1{fill:#e24329;}.cls-2{fill:#fc6d26;}.cls-3{fill:#fca326;}</style>
  </defs>
  <g
     id="LOGO"
     transform="translate(-93.973245,-97.517263)">
    <path
       class="cls-1"
       d="m 282.83,170.73 -0.27,-0.69 -26.14,-68.22 a 6.81,6.81 0 0 0 -2.69,-3.24 7,7 0 0 0 -8,0.43 7,7 0 0 0 -2.32,3.52 l -17.65,54 h -71.47 l -17.65,-54 a 6.86,6.86 0 0 0 -2.32,-3.53 7,7 0 0 0 -8,-0.43 6.87,6.87 0 0 0 -2.69,3.24 L 97.44,170 l -0.26,0.69 a 48.54,48.54 0 0 0 16.1,56.1 l 0.09,0.07 0.24,0.17 39.82,29.82 19.7,14.91 12,9.06 a 8.07,8.07 0 0 0 9.76,0 l 12,-9.06 19.7,-14.91 40.06,-30 0.1,-0.08 a 48.56,48.56 0 0 0 16.08,-56.04 z"
       id="path33"
       inkscape:connector-curvature="0"
       style="fill:#e24329" />
    <path
       class="cls-2"
       d="m 282.83,170.73 -0.27,-0.69 a 88.3,88.3 0 0 0 -35.15,15.8 L 190,229.25 c 19.55,14.79 36.57,27.64 36.57,27.64 l 40.06,-30 0.1,-0.08 a 48.56,48.56 0 0 0 16.1,-56.08 z"
       id="path35"
       inkscape:connector-curvature="0"
       style="fill:#fc6d26" />
    <path
       class="cls-3"
       d="m 153.43,256.89 19.7,14.91 12,9.06 a 8.07,8.07 0 0 0 9.76,0 l 12,-9.06 19.7,-14.91 c 0,0 -17.04,-12.89 -36.59,-27.64 -19.55,14.75 -36.57,27.64 -36.57,27.64 z"
       id="path37"
       inkscape:connector-curvature="0"
       style="fill:#fca326" />
    <path
       class="cls-2"
       d="M 132.58,185.84 A 88.19,88.19 0 0 0 97.44,170 l -0.26,0.69 a 48.54,48.54 0 0 0 16.1,56.1 l 0.09,0.07 0.24,0.17 39.82,29.82 c 0,0 17,-12.85 36.57,-27.64 z"
       id="path39"
       inkscape:connector-curvature="0"
       style="fill:#fc6d26" />
  </g>
</svg>
