<?xml version="1.0" encoding="UTF-8" standalone="no"?>
<!-- Created with Inkscape (http://www.inkscape.org/) -->
<svg version="1.1" id="svg2" width="2016" height="2016" viewBox="0 0 2016 2016" sodipodi:docname="multics-logo.svg" inkscape:version="1.1.2 (0a00cf5339, 2022-02-04)" inkscape:export-filename="DHH1.png" inkscape:export-xdpi="95.238098" inkscape:export-ydpi="95.238098" xmlns:inkscape="http://www.inkscape.org/namespaces/inkscape" xmlns:sodipodi="http://sodipodi.sourceforge.net/DTD/sodipodi-0.dtd" xmlns="http://www.w3.org/2000/svg" xmlns:svg="http://www.w3.org/2000/svg">
  <defs id="defs6">
    <rect x="904.6323" y="1098.7865" width="685.44762" height="329.32759" id="rect3427"/>
    <rect x="334.5641" y="2672.3551" width="2981.053" height="1408.564" id="rect3611"/>
    <rect x="133.10226" y="32.970889" width="2323.4868" height="844.2764" id="rect1969"/>
    <rect x="133.10226" y="32.97089" width="2323.4868" height="844.27643" id="rect1969-7"/>
    <rect x="133.10226" y="32.97089" width="2323.4868" height="844.27643" id="rect1969-7-6"/>
    <rect x="133.10226" y="32.97089" width="2323.4868" height="844.27643" id="rect1969-7-63"/>
    <rect x="133.10226" y="32.97089" width="2323.4868" height="844.27643" id="rect1969-7-4"/>
  </defs>
  <sodipodi:namedview id="namedview4" pagecolor="#ffffff" bordercolor="#666666" borderopacity="1.0" inkscape:pageshadow="2" inkscape:pageopacity="0.0" inkscape:pagecheckerboard="0" showgrid="false" inkscape:zoom="0.12183786" inkscape:cx="1132.6529" inkscape:cy="184.67166" inkscape:window-width="1366" inkscape:window-height="692" inkscape:window-x="0" inkscape:window-y="0" inkscape:window-maximized="1" inkscape:current-layer="g8" showguides="false"/>
  <g inkscape:groupmode="layer" inkscape:label="Image" id="g8">
    <rect style="fill:#000000;fill-opacity:1;stroke-width:75.5906;stroke-linecap:square;paint-order:stroke fill markers" id="rect72" width="2016" height="2016" x="0" y="0"/>
    <path style="fill:#f80008;fill-opacity:1;stroke:none;stroke-width:4.42363" d="m 983.50634,1897.8236 c -286.88257,-30.257 -542.37822,-211.0654 -666.4157,-471.607 -15.26022,-32.054 -48.70884,-121.1543 -48.38835,-128.8967 0.0651,-1.589 13.55501,22.9887 29.97632,54.6177 34.96781,67.3516 63.94227,111.253 108.73239,164.7487 135.7004,162.0752 326.91191,268.2379 540.19854,299.9241 64.46186,9.5764 179.23586,9.541 243.29946,-0.075 194.9582,-29.264 366.4042,-116.7693 500.4247,-255.4145 66.5623,-68.8594 127.246,-156.5309 164.7529,-238.0237 17.9285,-38.9538 17.1628,-27.2001 -1.6058,24.649 -46.1998,127.629 -112.3314,228.413 -213.2794,325.0366 -63.4113,60.6947 -117.4115,98.8351 -195.9774,138.4187 -146.2317,73.6754 -303.9395,103.2627 -461.71766,86.6221 z m 1.704,-265.0665 C 759.96748,1601.4336 568.11796,1466.7208 465.92997,1268.129 c -19.39293,-37.688 -35.14867,-76.5937 -23.52851,-58.0986 69.77334,111.054 141.57865,189.0043 225.74025,245.0584 237.83268,158.4039 534.48499,165.2224 776.09299,17.8382 90.0521,-54.9329 186.7222,-152.4311 237.9279,-239.9657 9.3257,-15.9422 17.6371,-28.3045 18.4698,-27.4719 2.907,2.907 -29.7102,69.9345 -51.5015,105.8348 -96.6251,159.1853 -259.4845,273.6102 -444.951,312.6223 -50.4587,10.6137 -171.0978,15.4678 -218.96956,8.8106 z m -8.8472,-236.817 c -85.7345,-18.3844 -160.38507,-59.5542 -223.4448,-123.2301 -52.96494,-53.4822 -92.77143,-119.6177 -112.06666,-186.1902 -14.71221,-50.7604 -15.83249,-70.7856 -1.60845,-28.7534 50.07202,147.9631 163.53337,255.717 312.21161,296.5063 18.9082,5.1873 37.2243,8.3395 40.7024,7.0047 5.0352,-1.9322 6.324,-14.1743 6.324,-60.0727 0,-53.8777 0.5547,-57.646 8.48546,-57.646 22.4276,0 22.4799,0.1918 22.4799,82.3104 v 76.9402 l -12.1649,-0.3517 c -6.6908,-0.1932 -25.10416,-3.1262 -40.91856,-6.5175 z m 132.70886,-69.5186 c 0,-76.5349 0.1117,-77.4374 9.9531,-80.0747 25.896,-6.9398 25.4359,-7.9789 25.4359,57.4232 v 60.2112 l 16.5885,-2.975 c 35.2177,-6.316 104.5328,-33.1979 138.8185,-53.837 95.2421,-57.3333 161.1566,-139.1025 199.2614,-247.1911 14.0962,-39.9854 12.7582,-19.3429 -1.8636,28.7536 -26.7416,87.962 -84.2856,170.6284 -157.2737,225.9361 -56.3528,42.7021 -140.3514,77.8452 -205.5292,85.9885 l -25.3909,3.1725 z M 915.59031,1212.9281 c -75.8824,-41.8374 -128.75758,-103.2905 -156.62123,-182.0297 -64.96145,-183.5737 39.99074,-379.6349 230.92076,-431.3832 42.96366,-11.6445 120.22586,-10.7049 165.37986,2.0113 60.1026,16.926 101.0625,41.2367 146.23,86.7906 67.7357,68.3153 96.7627,138.0057 96.7627,232.3167 0,61.0988 -10.3371,103.3342 -38.4348,157.0389 -25.0282,47.8377 -84.6578,108.2791 -130.2118,131.9846 -38.1494,19.8522 -42.875,18.6866 -6.6354,-1.6367 38.7515,-21.732 84.2443,-71.0546 106.3888,-115.3446 24.2505,-48.5023 32.1955,-80.8874 32.4393,-132.2295 0.4038,-85.0171 -26.6081,-150.6059 -86.5631,-210.1876 -58.4439,-58.08 -125.6331,-86.1955 -205.9862,-86.1955 -80.42776,0 -147.64316,28.1187 -206.06934,86.2067 -28.17839,28.0151 -39.66248,43.513 -54.16686,73.0988 -26.88654,54.842 -33.14528,84.518 -30.75226,145.8107 2.22567,57.0022 13.16251,95.8633 39.63449,140.8301 19.81146,33.6526 71.03493,83.899 103.33071,101.3598 14.5054,7.8425 24.3829,14.2759 21.9499,14.2968 -2.4329,0.023 -14.851,-5.7115 -27.59553,-12.7382 z M 153.56825,958.2347 v -37.6009 h 52.75923 c 46.38428,0 53.04895,-0.9353 55.15706,-7.7413 1.3188,-4.2578 1.46468,4.9921 0.32429,20.5552 -1.14039,15.5631 -2.07345,35.9672 -2.07345,45.3423 v 17.0456 H 206.65177 153.56825 Z M 1870.5673,888.2904 C 1846.7287,708.2178 1765.6962,546.3298 1634.9252,417.521 1521.4516,305.75 1388.3225,234.6937 1228.768,200.7388 1177.9595,189.9263 1164.5244,188.9004 1071.4711,188.728 982.25584,188.5626 963.51804,189.7962 919.29854,198.7452 758.43832,231.2992 623.6818,301.8059 508.16041,413.8591 388.0828,530.3317 306.61822,679.506 277.63751,835.9825 c -4.7927,25.8777 -9.67145,52.0271 -10.84142,58.1096 -1.17005,6.0825 -1.40636,-9.8426 -0.52501,-35.389 3.19246,-92.5419 31.26376,-196.4521 79.47006,-294.1713 73.89245,-149.7875 181.6561,-264.785 325.03251,-346.8506 124.07662,-71.0188 250.47309,-104.0099 398.48555,-104.0099 120.4084,0 223.2243,21.1575 326.1569,67.1164 274.504,122.5652 453.3068,376.1207 479.2415,679.6004 5.9473,69.594 3.5729,85.7904 -4.0903,27.9023 z M 463.39134,829.4979 c -0.27773,-15.2746 21.0127,-94.632 35.52528,-132.4158 73.72232,-191.9373 244.20274,-334.6784 452.28312,-378.691 64.36646,-13.6146 172.54226,-13.6538 236.11916,-0.085 53.262,11.3669 111.2055,31.1703 153.5153,52.467 l 30.4871,15.3457 32.5496,-32.3323 32.5495,-32.3323 v 24.323 24.323 l -34.381,34.1794 c -18.9095,18.7986 -36.3276,34.1746 -38.7066,34.1689 -2.3793,-0.01 -23.2369,-8.2017 -46.3503,-18.2131 -82.5909,-35.7732 -197.9325,-56.5572 -280.9004,-50.6167 -263.05091,18.8343 -479.61405,185.6746 -560.1994,431.5775 -6.77717,20.6805 -12.39831,33.4164 -12.49136,28.302 z M 1662.0589,798.1513 c -21.1217,-68.8393 -65.5802,-147.497 -120.0199,-212.344 l -30.4169,-36.2317 0.067,-27.9109 0.065,-27.911 15.2504,17.6945 c 54.1886,62.8735 99.5189,141.8295 123.5565,215.2102 14.5231,44.3346 27.2081,100.0815 23.5954,103.6942 -0.9329,0.9329 -6.3766,-13.5576 -12.0969,-32.2013 z" id="path1485" sodipodi:nodetypes="sscssscsssssscssssssssccsssssssscccssscsssssscsccsssssssssssscsssccccsssscccccsssssssccsssscssssscccccssssssscscccssscc"/>
    <g aria-label="Multics" transform="matrix(2.781934,0,0,2.781934,-1633.4058,-2177.4207)" id="text3425" style="font-size:40px;line-height:1.25;letter-spacing:-1.38393px;word-spacing:0px;white-space:pre;shape-inside:url(#rect3427);fill:#ffffff">
      <path d="m 908.55859,1105.0176 h 5.87891 l 7.44141,19.8437 7.48046,-19.8437 h 5.87891 v 29.1601 h -3.84766 v -25.6054 l -7.51953,20 h -3.96484 l -7.51953,-20 v 25.6054 h -3.82813 z" id="path6482"/>
      <path d="m 941.15904,1125.5449 v -13.2422 h 3.59375 v 13.1055 q 0,3.1055 1.21094,4.668 1.21093,1.5429 3.63281,1.5429 2.91015,0 4.58984,-1.8554 1.69922,-1.8555 1.69922,-5.0586 v -12.4024 h 3.59375 v 21.875 h -3.59375 v -3.3593 q -1.30859,1.9921 -3.04687,2.9687 -1.71875,0.957 -4.00391,0.957 -3.76953,0 -5.72266,-2.3437 -1.95312,-2.3438 -1.95312,-6.8555 z m 9.04297,-13.7695 z" id="path6484"/>
      <path d="m 965.49776,1103.7871 h 3.59375 v 30.3906 h -3.59375 z" id="path6486"/>
      <path d="m 978.78181,1106.0918 v 6.2109 h 7.40234 v 2.793 h -7.40234 v 11.875 q 0,2.6758 0.72265,3.4375 0.74219,0.7617 2.98828,0.7617 h 3.69141 v 3.0078 h -3.69141 q -4.16015,0 -5.74218,-1.5429 -1.58203,-1.5625 -1.58203,-5.6641 v -11.875 h -2.63672 v -2.793 h 2.63672 v -6.2109 z" id="path6488"/>
      <path d="m 989.52678,1112.3027 h 3.59375 v 21.875 h -3.59375 z m 0,-8.5156 h 3.59375 v 4.5508 h -3.59375 z" id="path6490"/>
      <path d="m 1014.9983,1113.1426 v 3.3594 q -1.5234,-0.8399 -3.0664,-1.25 -1.5234,-0.4297 -3.0859,-0.4297 -3.4961,0 -5.4297,2.2265 -1.9336,2.2071 -1.9336,6.211 0,4.0039 1.9336,6.2304 1.9336,2.2071 5.4297,2.2071 1.5625,0 3.0859,-0.4102 1.543,-0.4297 3.0664,-1.2695 v 3.3203 q -1.5039,0.7031 -3.125,1.0547 -1.6015,0.3515 -3.4179,0.3515 -4.9415,0 -7.8516,-3.1054 -2.91017,-3.1055 -2.91017,-8.3789 0,-5.3516 2.92967,-8.418 2.9492,-3.0664 8.0664,-3.0664 1.6602,0 3.2422,0.3516 1.582,0.332 3.0664,1.0156 z" id="path6492"/>
      <path d="m 1033.8097,1112.9473 v 3.3984 q -1.5234,-0.7812 -3.1641,-1.1719 -1.6406,-0.3906 -3.3984,-0.3906 -2.6758,0 -4.0234,0.8203 -1.3282,0.8203 -1.3282,2.461 0,1.25 0.9571,1.9726 0.957,0.7031 3.8476,1.3477 l 1.2305,0.2734 q 3.8281,0.8203 5.4297,2.3242 1.6211,1.4844 1.6211,4.1602 0,3.0469 -2.4219,4.8242 -2.4023,1.7773 -6.6211,1.7773 -1.7578,0 -3.6719,-0.3515 -1.8945,-0.3321 -4.0039,-1.0156 v -3.711 q 1.9922,1.0352 3.9258,1.5625 1.9336,0.5078 3.8281,0.5078 2.5391,0 3.9063,-0.8593 1.3672,-0.879 1.3672,-2.461 0,-1.4648 -0.9961,-2.2461 -0.9766,-0.7812 -4.3164,-1.5039 l -1.25,-0.293 q -3.3399,-0.7031 -4.8242,-2.1484 -1.4844,-1.4648 -1.4844,-4.0039 0,-3.0859 2.1875,-4.7656 2.1875,-1.6797 6.2109,-1.6797 1.9922,0 3.75,0.293 1.7578,0.2929 3.2422,0.8789 z" id="path6494"/>
    </g>
  </g>
</svg>