<?xml version="1.0" encoding="UTF-8"?>
<!DOCTYPE svg PUBLIC "-//W3C//DTD SVG 1.1//EN" "http://www.w3.org/Graphics/SVG/1.1/DTD/svg11.dtd">
<svg version="1.1" xmlns="http://www.w3.org/2000/svg" xmlns:xlink="http://www.w3.org/1999/xlink" x="0" y="0" width="883.518" height="965" viewBox="0, 0, 883.518, 965">
  <g id="Base_for_Sizing">
    <path d="M-41.732,263.931 L918.268,263.931 L918.268,684.859 L-41.732,684.859 z" fill="#FF0000" id="rect94399" display="none"/>
  </g>
  <g id="Layer_1">
    <path d="M295.984,823.895 C310.209,794.413 320.771,757.753 320.771,757.753 C298.44,689.288 221.766,710.25 221.766,710.25 C221.766,710.25 206.423,738.127 177.927,754.487 C159.611,764.977 155.418,795.059 154.757,815.331 C200.508,831.883 248.025,837.015 295.984,823.895" fill="#FAF4DD" id="path94038"/>
    <path d="M247.773,700.957 C239.883,700.96 233.042,701.759 228.144,702.559 C225.695,702.959 223.74,703.365 222.363,703.672 C220.987,703.98 219.887,704.269 220.156,704.199 L220.136,704.199 L220.116,704.199 C219.389,704.397 219.017,705.115 218.417,705.547 L217.792,705.215 L217.987,705.879 C217.427,706.362 216.631,706.568 216.268,707.227 L216.268,707.247 C216.338,707.111 212.413,714.122 205.35,722.657 C198.294,731.193 187.928,741.513 174.803,749.043 C174.608,749.154 174.487,749.339 174.295,749.453 C168.955,752.654 164.681,757.092 161.405,762.168 C156.32,770.06 153.309,779.384 151.405,788.672 L151.405,788.692 C149.507,797.986 148.751,807.286 148.495,815.138 C148.405,817.843 150.071,820.309 152.616,821.231 C181.198,831.571 210.62,837.579 240.506,837.579 C259.415,837.581 278.5,835.176 297.635,829.942 C298.538,829.694 299.361,829.232 300.057,828.634 L300.545,828.868 L301.619,826.622 L302.713,824.375 L302.613,824.315 C309.44,809.819 315.379,794.147 319.625,781.796 C321.858,775.301 323.651,769.746 324.879,765.8 C325.493,763.827 325.962,762.252 326.285,761.171 C326.607,760.092 326.733,759.699 326.793,759.491 C326.894,759.143 326.733,758.773 326.773,758.417 L329.273,757.616 L326.734,756.874 C326.684,756.518 326.824,756.145 326.714,755.8 C323.031,744.506 317.892,735.316 311.772,727.948 C302.59,716.887 291.3,710.068 280.014,706.112 C268.728,702.152 257.432,700.958 247.768,700.956 z M247.773,713.497 C259.289,713.49 273.053,715.436 285.234,722.071 C291.339,725.391 297.071,729.869 302.129,735.957 C306.87,741.667 310.929,748.983 314.101,758.047 C312.458,763.608 303.505,792.88 291.543,818.418 C274.447,822.838 257.43,825.059 240.508,825.059 C213.846,825.059 187.405,819.83 161.387,810.879 C161.898,801.994 163.01,792.045 165.722,783.047 C167.306,777.78 169.375,772.922 171.933,768.965 C174.5,764.996 177.494,761.949 181.035,759.922 L181.055,759.922 L181.328,759.766 L181.388,759.686 C196.361,751.003 207.708,739.547 215.372,730.214 C221.129,723.196 224.115,718.46 225.685,715.839 C226.806,715.573 227.604,715.337 230.587,714.862 C234.928,714.171 240.947,713.491 247.775,713.495 z" fill="#000000" id="path95119"/>
    <path d="M154.757,815.331 C154.389,826.659 155.081,834.971 155.081,834.971 C155.081,834.971 239.713,864.643 266.192,860.141 C276.446,858.392 286.966,842.576 295.984,823.895 C252.733,813.787 214.558,806.828 154.757,815.331" fill="#F7F1D6" id="path94042"/>
    <path d="M205.566,805.254 C189.901,805.254 172.928,806.41 153.867,809.122 C151.803,809.415 150.399,810.885 149.492,812.657 L148.574,812.637 L148.494,815.137 L148.414,817.637 L148.457,817.637 C148.427,819.131 148.377,820.657 148.377,822.012 C148.377,830.007 148.839,835.646 148.826,835.488 L148.846,835.488 C149.05,837.943 150.684,840.062 153.006,840.879 L153.066,840.899 L153.126,840.919 C153.166,840.929 171.434,847.346 193.849,853.81 C205.057,857.04 217.28,860.286 228.79,862.735 C240.311,865.18 251.057,866.867 259.767,866.876 C262.42,866.876 264.921,866.721 267.247,866.329 C271.172,865.65 274.656,863.74 277.774,861.29 C282.447,857.601 286.593,852.517 290.528,846.583 L290.528,846.563 C294.457,840.621 298.153,833.805 301.622,826.621 C302.444,824.912 302.457,822.904 301.642,821.192 C300.824,819.479 299.255,818.225 297.404,817.793 C267.641,810.836 239.748,805.252 205.568,805.254 z M205.566,817.774 C235.376,817.778 260.183,822.262 286.621,828.243 C283.32,834.448 279.94,840.225 276.601,844.532 C274.307,847.498 272.038,849.878 270.039,851.446 C268.035,853.026 266.305,853.774 265.156,853.965 L265.43,857.266 L265.137,853.965 C263.744,854.202 261.901,854.336 259.766,854.336 C252.715,854.343 242.467,852.829 231.407,850.469 C214.785,846.932 196.15,841.583 181.739,837.11 C174.532,834.871 168.374,832.841 164.024,831.387 C162.809,830.982 162.107,830.741 161.192,830.43 C161.073,828.289 160.919,826.542 160.919,822.012 C160.919,821.684 160.939,821.294 160.939,820.957 C177.218,818.858 192.042,817.774 205.568,817.774 z" fill="#000000" id="path95133"/>
    <path d="M177.588,686.625 L225.327,737.657 L320.771,752.472 L388.074,726.168 L328.863,655.04 L177.588,686.625" fill="#F7F1D6" id="path94046"/>
    <path d="M327.578,648.907 L176.308,680.489 C174.092,680.95 172.303,682.571 171.621,684.727 C171.207,686.033 171.364,687.362 171.797,688.614 L171.309,689.083 L173.008,690.899 L174.727,692.735 L220.743,741.934 C221.703,742.957 222.97,743.631 224.356,743.848 L319.805,758.673 C320.909,758.843 322.017,758.703 323.047,758.302 L390.352,731.993 C392.229,731.261 393.637,729.68 394.141,727.735 C394.644,725.784 394.171,723.714 392.891,722.169 L392.891,722.149 L333.672,651.036 C332.193,649.258 329.843,648.434 327.578,648.907 z M326.445,661.953 L377.695,723.497 L320.058,746.016 L228.418,731.797 L189.785,690.489 z" fill="#000000" id="path95139"/>
    <path d="M491.567,623.558 C459.129,568.685 180.795,474.578 154.64,553.959 C141.369,594.269 157.36,654.716 186.637,702.762 C253.762,705.557 323.08,706.838 388.074,726.168 C443.418,681.137 491.567,623.558 491.567,623.558" fill="#F7F1D6" id="path94050"/>
    <path d="M223.144,517.149 C205.122,517.157 189.08,519.335 176.074,524.707 C169.571,527.399 163.803,530.928 159.101,535.469 C154.393,540.011 150.805,545.56 148.691,551.993 C145.215,562.556 143.652,574.196 143.652,586.426 C143.656,605.493 147.439,626.063 154.004,646.543 C160.575,667.021 169.948,687.399 181.289,706.016 C182.377,707.797 184.284,708.934 186.367,709.024 C253.591,711.81 322.401,713.153 386.289,732.168 C388.267,732.753 390.426,732.342 392.031,731.036 C447.997,685.487 496.223,627.751 496.308,627.657 L496.348,627.617 L496.368,627.577 C497.478,626.249 497.734,624.583 497.56,622.928 L498.244,622.518 L496.955,620.37 C496.955,620.37 496.955,620.35 496.955,620.35 L495.685,618.221 L495.431,618.358 C491.931,613.153 487.205,608.096 481.056,603.006 C468.897,592.967 451.966,582.762 432.013,572.909 C402.088,558.144 365.398,544.25 328.439,534.003 C291.477,523.762 254.291,517.153 223.146,517.147 z M223.144,529.668 L223.164,529.668 C245.535,529.668 271.985,533.363 299.297,539.571 C340.284,548.881 383.281,563.849 417.969,580.079 C435.31,588.189 450.575,596.623 462.422,604.727 C468.345,608.778 473.427,612.742 477.442,616.485 C480.169,619.022 481.67,621.212 483.379,623.457 C473.798,634.641 433.402,680.588 386.426,719.258 C322.509,700.903 255.257,699.317 190.469,696.661 C180.382,679.641 171.865,661.195 165.938,642.715 C159.688,623.241 156.188,603.828 156.192,586.426 C156.19,575.262 157.62,564.929 160.586,555.918 C162.078,551.412 164.459,547.721 167.813,544.473 C172.818,539.63 180.17,535.85 189.59,533.36 C198.998,530.866 210.414,529.668 223.145,529.668 z" fill="#000000" id="path95149"/>
    <path d="M294.835,777.775 C323.346,772.995 356.843,751.574 388.074,726.168 C295.984,740.657 214.558,726.168 214.558,726.168 C233.932,753.016 255.97,784.305 294.835,777.775" fill="#FAF6E6" id="path94054"/>
    <path d="M386.055,719.727 L385.528,720.157 C355.802,724.731 327.163,726.329 302.168,726.329 C276.722,726.329 255.023,724.756 239.727,723.165 C232.08,722.369 226.036,721.569 221.914,720.977 C219.854,720.68 218.266,720.424 217.207,720.254 C216.685,720.174 216.301,720.104 216.035,720.059 L216.015,720.059 C215.765,720.019 215.683,719.999 215.683,719.999 L215.663,719.999 L215.643,719.999 C213.139,719.555 210.61,720.676 209.257,722.831 C207.902,724.987 207.985,727.762 209.472,729.824 L209.472,729.844 C209.951,730.507 210.511,731.204 210.995,731.875 L210.995,731.935 L211.055,731.935 C219.445,743.555 228.487,756.112 239.766,766.232 C245.745,771.588 252.373,776.249 259.825,779.591 C267.279,782.935 275.561,784.927 284.629,784.923 C287.45,784.923 290.416,784.55 293.379,784.161 L293.399,784.376 L295.821,783.966 C295.841,783.964 295.861,783.969 295.881,783.966 L298.342,783.536 L298.322,783.38 C312.944,780.508 328.159,774.004 343.557,765.138 C359.327,756.05 375.24,744.526 390.607,732.111 L391.525,731.974 L391.445,731.486 C391.638,731.329 391.838,731.194 392.031,731.037 C394.218,729.258 394.937,726.187 393.789,723.615 C392.642,721.041 389.895,719.542 387.109,719.982 C386.846,720.022 386.59,720.022 386.328,720.062 z M228.359,734.375 C231.631,734.79 234.135,735.177 238.437,735.625 C254.089,737.254 276.2,738.867 302.168,738.868 C321.621,738.868 343.592,737.416 366.289,734.903 C356.584,742.045 346.86,748.773 337.305,754.278 C321.881,763.172 306.944,769.388 293.808,771.582 L293.808,771.602 C290.6,772.141 287.536,772.383 284.629,772.383 C277.36,772.381 270.946,770.85 264.941,768.165 C255.961,764.144 247.925,757.393 240.488,749.258 C236.259,744.638 232.257,739.563 228.359,734.376 z" fill="#000000" id="path95163"/>
    <path d="M176.847,748.331 C175.264,748.609 173.786,749.484 172.801,750.885 C170.826,753.693 171.52,757.643 174.33,759.614 L175.678,757.693 L174.35,759.63 C174.099,759.459 174.619,759.819 175.11,760.153 C175.601,760.487 176.317,760.969 177.247,761.579 C179.108,762.801 181.817,764.533 185.265,766.618 C192.16,770.788 202.006,776.363 213.906,782.044 C237.712,793.396 269.736,805.252 303.138,806.881 L303.142,806.881 C306.569,807.047 309.531,804.352 309.7,800.927 L309.7,800.923 C309.866,797.496 307.174,794.526 303.746,794.361 L303.742,794.361 C272.938,792.885 242.198,781.669 219.305,770.733 L219.3,770.733 C207.852,765.269 198.356,759.89 191.75,755.895 C188.447,753.897 185.866,752.245 184.125,751.102 C183.255,750.531 182.593,750.086 182.151,749.786 C181.956,749.654 181.813,749.557 181.681,749.467 L181.648,749.443 L181.526,749.357 C180.121,748.372 178.431,748.053 176.847,748.331 z" fill="#000000" id="path95167"/>
    <path d="M700.612,686.625 L708.585,757.679 L502.85,740.657 L700.612,686.625" fill="#F7F1D6" id="path94060"/>
    <path d="M715.646,659.07 C715.646,659.07 524.961,547.559 427.795,681.607 C427.795,681.607 452.804,716.826 485.976,757.679 C515.988,754.104 655.817,722.136 710.056,716.487 C710.1,689.683 715.646,659.07 715.646,659.07" fill="#FAF6E6" id="path94064"/>
    <path d="M561.738,609.297 C537.156,609.297 511.883,613.336 487.969,623.985 C464.052,634.626 441.559,651.919 422.715,677.93 C421.145,680.096 421.13,683.053 422.675,685.235 C422.715,685.285 447.806,720.606 481.112,761.622 C482.463,763.283 484.59,764.159 486.718,763.907 C494.689,762.954 509.014,760.277 527.245,756.68 C554.562,751.288 590.378,743.834 624.432,737.207 C658.469,730.584 690.829,724.781 710.702,722.715 C713.867,722.384 716.323,719.687 716.327,716.504 C716.347,703.527 717.708,689.362 719.081,678.516 C719.767,673.092 720.462,668.49 720.975,665.254 C721.231,663.636 721.432,662.364 721.581,661.504 L721.581,661.484 C721.651,661.055 721.718,660.725 721.757,660.507 C721.797,660.293 721.817,660.208 721.817,660.195 C722.123,658.511 721.515,656.952 720.567,655.606 L720.977,654.903 L718.809,653.653 L718.789,653.653 C718.789,653.653 718.769,653.633 718.769,653.633 L716.66,652.402 L716.62,652.442 C716.177,652.196 715.877,652.018 715.292,651.7 C713.04,650.477 709.749,648.737 705.565,646.661 C697.199,642.508 685.235,636.99 670.741,631.466 C641.75,620.426 602.642,609.308 561.737,609.298 z M561.738,621.836 C600.357,621.828 638.207,632.476 666.289,643.184 C680.332,648.535 691.933,653.887 700,657.891 C703.817,659.786 706.69,661.297 708.808,662.442 C707.867,667.912 704.622,688.232 704.023,711.094 C690.635,712.682 674.439,715.158 655.273,718.633 C623.362,724.424 586.361,731.979 554.531,738.418 C538.619,741.638 523.986,744.578 511.972,746.875 C501.491,748.88 494.133,750.112 488.633,750.879 C473.212,731.781 459.277,713.685 449.472,700.567 C444.291,693.637 440.133,687.982 437.285,684.063 C436.59,683.106 436.239,682.599 435.703,681.856 C452.715,659.622 472.209,644.724 493.066,635.43 C515.049,625.64 538.52,621.836 561.738,621.836 z" fill="#000000" id="path95179"/>
    <path d="M741.582,885.696 C727.24,859.848 709.468,805.357 710.056,800.621 C656.405,805.696 602.194,828.219 547.426,827.483 C554.341,834.559 561.224,841.223 567.949,847.313 L570.934,902.672 C570.934,902.672 579.717,939.581 605.358,949.306 C613.229,952.277 645.106,938.581 663.834,939.803 C689.828,910.924 706.231,904.304 741.582,885.696" fill="#FAF4DD" id="path94068"/>
    <path d="M709.472,794.375 C682.421,796.94 655.632,803.756 629.062,809.825 C602.49,815.902 576.141,821.235 550.058,821.231 C549.21,821.231 548.356,821.222 547.5,821.211 C544.971,821.181 542.656,822.697 541.66,825.02 C540.667,827.343 541.185,830.046 542.949,831.856 C543.589,832.511 544.204,833.043 544.844,833.691 L544.844,833.731 L544.864,833.731 C550.561,839.502 556.229,844.971 561.817,850.099 L564.668,903.009 C564.688,903.384 564.758,903.751 564.844,904.122 L564.844,904.162 L564.844,904.182 C564.794,903.974 564.904,904.357 564.981,904.67 C565.061,904.984 565.175,905.418 565.333,905.979 C565.649,907.099 566.128,908.687 566.779,910.608 C568.08,914.449 570.088,919.638 572.97,925.217 C575.857,930.796 579.627,936.781 584.552,942.15 C589.473,947.516 595.61,952.299 603.146,955.158 L603.166,955.178 C604.977,955.848 606.714,955.989 608.322,955.998 L608.342,955.998 L608.362,955.998 C611.913,955.978 615.736,955.245 620.042,954.28 L620.062,954.28 C626.512,952.815 633.963,950.704 641.312,948.987 C648.639,947.269 655.908,945.989 661.351,945.998 L661.371,945.998 C662.093,945.998 662.773,946.008 663.421,946.058 C665.332,946.183 667.215,945.415 668.5,943.988 C681.227,929.858 691.271,921.479 702.601,914.164 C713.924,906.855 726.75,900.602 744.515,891.254 L744.515,891.234 C746.002,890.447 747.098,889.105 747.582,887.484 C747.796,886.767 747.413,886.084 747.367,885.355 L748.285,884.847 L747.074,882.659 C740.366,870.588 732.474,851.054 726.429,834.007 L726.429,833.987 C723.402,825.458 720.821,817.524 719.007,811.409 C718.101,808.353 717.38,805.742 716.917,803.811 C716.685,802.848 716.506,802.056 716.409,801.506 L716.409,801.486 C716.359,801.232 716.349,801.04 716.329,800.9 L716.544,798.4 L716.232,798.4 L715.841,798.4 C715.543,797.629 715.16,796.881 714.572,796.271 C713.25,794.902 711.375,794.195 709.474,794.377 z M705,807.598 C705.206,808.431 705.308,809.043 705.566,810 C707.95,818.806 712.57,832.98 718.105,847.754 C722.803,860.288 728.112,872.647 733.32,882.95 C718.615,890.615 706.616,896.663 695.8,903.633 C684.294,911.046 673.623,920.142 661.347,933.457 C656.496,933.462 651.376,934.161 646.21,935.137 C638.461,936.608 630.561,938.749 623.71,940.489 C620.289,941.359 617.124,942.125 614.453,942.657 C611.802,943.189 609.529,943.461 608.339,943.458 L608.319,943.458 C607.98,943.46 607.715,943.438 607.557,943.418 C607.547,943.416 607.527,943.42 607.517,943.418 C602.258,941.412 597.691,937.966 593.767,933.691 L593.767,933.671 C587.871,927.255 583.566,919.026 580.857,912.46 C579.497,909.173 578.511,906.316 577.888,904.296 C577.576,903.289 577.368,902.484 577.224,901.952 C577.194,901.837 577.164,901.786 577.144,901.698 L574.195,846.972 C574.155,846.258 573.584,845.765 573.316,845.116 L573.882,844.491 L573.042,844.531 C572.708,843.914 572.673,843.156 572.144,842.676 C568.939,839.772 565.614,836.343 562.339,833.184 C585.879,831.862 609.054,827.259 631.851,822.051 C656.662,816.377 681.059,810.394 704.996,807.598 z" fill="#000000" id="path95201"/>
    <path d="M605.358,949.306 C653.685,968.402 747.202,955.323 755.809,937.905 C761.222,926.915 752.792,905.879 741.582,885.695 C706.231,904.304 631.352,920.427 605.358,949.306" fill="#F7F1D6" id="path94072"/>
    <path d="M741.015,879.454 C740.216,879.523 739.419,879.763 738.672,880.157 C730.31,884.561 719.18,889.012 706.875,893.555 C688.408,900.379 667.267,907.442 648.105,915.625 C638.522,919.721 629.425,924.1 621.347,928.926 C613.272,933.755 606.182,939.037 600.703,945.117 C599.327,946.643 598.789,948.749 599.258,950.742 C599.525,951.878 600.159,952.824 600.957,953.633 L600.723,954.219 L603.047,955.137 L605.371,956.055 L605.451,955.879 C623.18,962.366 645.103,964.986 667.053,965 C688.35,964.996 709.509,962.592 726.369,958.672 C734.804,956.708 742.172,954.374 748.088,951.621 C751.046,950.241 753.655,948.75 755.901,947.031 L755.921,947.011 C758.145,945.297 760.129,943.285 761.428,940.683 L761.428,940.663 C763.126,937.21 763.75,933.432 763.753,929.589 L763.753,929.569 C763.733,922.513 761.712,914.932 758.694,906.991 C755.664,899.053 751.577,890.765 747.073,882.655 C746.253,881.178 744.883,880.159 743.362,879.706 C742.602,879.479 741.817,879.382 741.018,879.452 z M738.555,893.848 C741.707,899.855 744.884,905.94 746.992,911.465 C749.717,918.575 751.243,925.058 751.23,929.571 L751.23,929.591 C751.23,932.055 750.798,933.896 750.195,935.118 C750.195,935.118 750.195,935.138 750.195,935.138 L754.023,937.033 L750.176,935.158 C750.156,935.208 749.535,936.134 748.301,937.072 L748.281,937.072 L748.281,937.092 C746.121,938.76 741.99,940.859 736.679,942.717 C728.691,945.528 717.901,948.001 705.839,949.728 C693.774,951.458 680.399,952.463 667.05,952.463 C649.558,952.473 632.232,950.594 617.91,946.701 C622.928,942.789 628.631,938.947 635.527,935.353 L635.547,935.353 C651.834,926.842 672.232,919.355 691.914,912.287 C709.187,906.075 725.302,900.141 738.555,893.849 z" fill="#000000" id="path95209"/>
    <path d="M716.28,737.657 C681.413,747.13 564.639,750.603 485.976,757.679 C504.836,780.937 537.716,831.971 558.797,853.433 C613.551,854.17 679.31,837.957 710.322,821.524 C715.132,783.071 716.236,770.729 716.28,737.657" fill="#F7F1D6" id="path94076"/>
    <path d="M717.051,730.957 L714.648,731.602 L714.628,731.602 C706.655,733.778 692.922,735.812 675.995,737.559 C625.124,742.828 544.653,746.12 485.409,751.446 C483.108,751.651 481.114,753.11 480.214,755.235 C479.315,757.362 479.659,759.829 481.112,761.622 C490.27,772.911 503.224,791.511 516.464,809.903 C523.089,819.103 529.811,828.255 536.229,836.524 C542.652,844.793 548.752,852.165 554.315,857.833 C554.818,858.345 555.597,858.324 556.229,858.634 L556.209,859.474 L556.815,858.888 C557.474,859.13 557.994,859.699 558.71,859.708 C559.944,859.728 561.184,859.728 562.421,859.728 C590.033,859.726 619.792,855.691 646.62,849.63 C673.454,843.557 697.273,835.53 713.261,827.071 L713.261,827.052 C715.054,826.097 716.29,824.326 716.542,822.305 C718.949,803.058 720.43,790.246 721.327,778.028 C722.224,765.807 722.515,754.255 722.538,737.657 C722.538,735.706 721.648,733.865 720.097,732.677 C719.243,732.023 718.239,731.68 717.206,731.524 z M709.785,745.313 C709.675,757.104 709.527,767.576 708.828,777.11 C708.027,788.02 706.555,800.55 704.472,817.344 C690.026,824.528 668.354,831.878 643.867,837.403 C617.827,843.29 588.812,847.19 562.422,847.188 C562.18,847.188 561.941,847.188 561.699,847.188 C557.03,842.263 551.817,836.169 546.132,828.848 C536.738,816.749 526.49,802.398 516.835,788.887 C509.744,778.965 503.732,770.97 497.753,763.086 C534.921,760.006 578.323,757.507 617.968,754.825 C639.692,753.353 660.071,751.8 677.285,750.02 C690.482,748.649 700.985,747.078 709.785,745.313 z" fill="#000000" id="path95221"/>
    <path d="M651.251,873.045 C625.572,873.047 596.986,874.653 568.935,879.522 C565.553,880.108 563.244,883.386 563.831,886.767 C564.418,890.147 567.699,892.453 571.08,891.867 C598.173,887.161 626.101,885.578 651.255,885.578 C676.412,885.578 698.801,887.161 714.869,888.741 C722.903,889.53 729.355,890.318 733.789,890.906 C736.005,891.202 737.718,891.447 738.868,891.617 C739.444,891.702 739.877,891.769 740.164,891.813 C740.449,891.858 740.572,891.879 740.572,891.879 L740.576,891.879 L740.585,891.883 C743.97,892.428 747.221,890.084 747.769,886.697 L747.769,886.693 C748.315,883.307 745.966,880.054 742.579,879.509 L742.183,881.977 L742.546,879.505 C742.764,879.537 742.527,879.501 742.444,879.488 C742.362,879.476 742.242,879.455 742.085,879.431 C741.769,879.382 741.307,879.312 740.703,879.223 C739.496,879.044 737.724,878.791 735.444,878.487 C730.884,877.88 724.288,877.074 716.095,876.268 C699.709,874.657 676.935,873.045 651.256,873.044 z" fill="#000000" id="path95225"/>
    <path d="M770.269,437.595 C770.269,437.595 783.098,455.674 787.216,458.028 C816.903,475.122 852.534,468.06 876.218,431.724 C880.603,425.002 870.01,409.747 864.347,397.905 C833.013,411.467 801.634,424.87 770.269,437.595" fill="#F7F1D6" id="path94082"/>
    <path d="M864.219,391.641 C863.424,391.651 862.622,391.817 861.855,392.149 C830.54,405.704 799.203,419.101 767.91,431.798 C766.143,432.514 764.793,434.007 764.258,435.841 C763.969,436.832 763.976,437.857 764.178,438.848 L763.651,439.219 L765.155,441.211 L765.195,441.271 L765.215,441.291 L766.601,443.264 L766.641,443.224 C767.612,444.579 769.218,446.845 772.247,450.763 C774.157,453.233 776.199,455.8 778.126,457.99 C779.091,459.088 780.035,460.085 780.958,460.978 L780.958,460.998 L780.978,460.998 C781.871,461.846 782.789,462.698 784.044,463.439 C784.044,463.439 784.064,463.439 784.064,463.439 C784.064,463.439 784.084,463.459 784.084,463.459 C795.083,469.795 807.023,473.149 819.006,473.147 C830.562,473.151 842.106,470.027 852.775,463.674 C863.449,457.328 873.222,447.811 881.467,435.159 L881.467,435.139 C883.007,432.778 883.523,430.16 883.518,427.775 L883.518,427.755 C883.508,424.761 882.782,421.942 881.818,419.181 C880.352,415.03 878.225,410.835 876.057,406.74 C873.886,402.653 871.648,398.642 870.002,395.197 C869.281,393.688 868.017,392.603 866.545,392.052 C865.809,391.777 865.016,391.63 864.221,391.642 z M861.465,405.918 C863.356,409.494 865.306,413.128 866.972,416.465 C868.226,418.968 869.299,421.327 870,423.321 L870,423.341 C870.7,425.311 871.001,427.021 870.996,427.755 C870.992,428.442 870.89,428.405 870.956,428.302 L870.976,428.302 C863.625,439.578 855.195,447.64 846.367,452.892 C837.533,458.142 828.306,460.622 819.003,460.626 C809.376,460.626 799.658,457.944 790.39,452.618 C790.495,452.688 789.858,452.177 789.277,451.583 L789.257,451.583 C788.175,450.488 786.692,448.762 785.155,446.876 L785.135,446.876 C783.36,444.699 781.669,442.42 780.057,440.274 C807.221,429.163 834.361,417.629 861.463,405.919 z" fill="#000000" id="path95233"/>
    <path d="M710.056,414.321 C738.228,383.692 765.224,352.167 789.762,318.921 C737.904,268.021 679.869,221.253 679.869,221.253 C649.667,196.068 653.685,377.47 653.685,377.47 C653.685,377.47 680.018,395.447 710.056,414.321" fill="#F7F1D6" id="path94086"/>
    <path d="M674.414,212.579 C671.862,212.569 669.484,213.429 667.558,214.747 C665.786,215.95 664.39,217.486 663.203,219.141 L663.183,219.141 C660.975,222.248 659.356,226.007 657.929,230.332 C655.448,237.907 653.64,247.405 652.206,258.047 C647.929,289.939 647.25,332.208 647.245,357.051 C647.245,369.524 647.421,377.536 647.421,377.559 L647.421,377.579 L647.421,377.619 C647.471,379.633 648.496,381.502 650.156,382.639 L650.176,382.679 L650.216,382.699 C650.236,382.709 676.56,400.684 706.72,419.632 C708.468,420.732 710.479,420.533 712.306,419.788 L712.97,420.413 L714.669,418.577 C714.669,418.577 714.669,418.557 714.669,418.557 L714.749,418.477 L716.37,416.719 L716.33,416.699 C743.993,386.537 770.582,355.457 794.807,322.637 C796.647,320.139 796.375,316.628 794.162,314.453 C743.417,264.649 688.846,220.509 685.802,218.047 L685.802,218.027 L683.888,216.445 L681.916,214.726 L681.661,215.038 C680.953,214.588 680.304,214.027 679.533,213.691 C677.949,213 676.219,212.576 674.415,212.577 z M674.531,225.176 C674.531,225.176 674.551,225.196 674.551,225.196 C674.761,225.286 675.246,225.543 675.859,226.055 C675.859,226.055 675.859,226.075 675.859,226.075 C675.859,226.075 675.879,226.075 675.879,226.075 C675.889,226.084 675.909,226.105 675.919,226.115 L675.959,226.155 C675.989,226.185 676.039,226.205 676.096,226.255 C676.208,226.345 676.368,226.49 676.584,226.665 C682.884,231.771 734.037,273.626 781.291,319.536 C758.86,349.523 734.45,378.217 708.928,406.138 C695.879,397.871 683.203,389.657 674.065,383.599 C668.911,380.182 664.706,377.348 661.78,375.376 C660.973,374.832 660.508,374.534 659.905,374.126 C659.855,370.915 659.768,365.44 659.768,357.056 C659.766,335.744 660.307,301.303 663.147,272.505 C664.559,258.123 666.585,245.105 669.221,236.216 L669.241,236.196 C670.539,231.772 672.059,228.338 673.264,226.606 L673.284,226.606 L673.284,226.586 C673.867,225.739 674.383,225.288 674.534,225.18 z" fill="#000000" id="path95061"/>
    <path d="M780.891,310.313 C768.166,340 710.056,414.321 710.056,414.321 C730.918,427.399 761.914,440.758 778.832,448.981 C810.166,436.256 844.855,422.853 876.218,409.291 C864.493,384.619 813.549,342.371 780.891,310.313" fill="#FAF6E6" id="path94090"/>
    <path d="M779.668,304.161 C778.511,304.391 777.523,305.017 776.68,305.801 L776.113,305.547 L775.136,307.832 C775.136,307.832 775.136,307.852 775.136,307.852 L775.117,307.872 C772.243,314.593 766.336,324.706 759.198,335.685 C748.472,352.199 734.921,370.941 724.081,385.509 C718.661,392.795 713.915,399.033 710.527,403.458 C708.832,405.668 707.472,407.416 706.542,408.615 C706.076,409.215 705.728,409.691 705.487,410.001 L705.427,410.061 C705.337,410.176 705.261,410.272 705.212,410.334 C705.193,410.364 705.162,410.394 705.152,410.414 C705.152,410.414 705.152,410.434 705.152,410.434 L705.112,410.474 C704.023,411.873 703.578,413.649 703.882,415.396 L703.882,415.416 C704.19,417.165 705.211,418.691 706.714,419.635 C717.51,426.401 730.635,433.078 743.198,439.127 C755.756,445.17 767.776,450.574 776.089,454.615 C777.693,455.396 779.542,455.454 781.187,454.791 C812.451,442.093 847.18,428.677 878.706,415.045 C880.266,414.369 881.488,413.101 882.085,411.51 L882.085,411.49 C882.684,409.896 882.598,408.14 881.87,406.607 C878.484,399.515 872.799,391.972 865.679,383.814 L865.679,383.794 C854.993,371.578 840.983,358.104 826.577,344.634 C812.177,331.172 797.381,317.734 785.268,305.845 C783.795,304.396 781.706,303.767 779.683,304.165 z M782.636,320.567 C798.102,335.402 815.906,351.5 832.051,367.09 C841.122,375.849 849.506,384.337 856.25,392.051 C860.872,397.327 864.312,402.014 867.07,406.289 C838.427,418.489 807.599,430.575 779.023,442.149 C770.624,438.122 760.062,433.334 748.633,427.832 C738.452,422.935 728.333,417.642 719.336,412.403 C722.679,408.098 731.883,396.351 745.781,377.129 C753.879,365.929 762.38,353.777 769.707,342.5 C774.946,334.427 779.152,327.193 782.636,320.567 z" fill="#000000" id="path95083"/>
    <path d="M842.389,362.675 C840.819,362.797 839.311,363.535 838.201,364.788 L838.172,364.759 L838.115,364.821 L838.086,364.858 C837.652,365.364 826.119,378.608 808.272,392.539 L808.272,392.543 C790.439,406.485 766.188,421.077 740.592,425.153 C737.204,425.694 734.849,428.947 735.394,432.337 C735.938,435.723 739.188,438.072 742.574,437.531 C771.941,432.8 797.998,416.576 816.874,401.721 C826.309,394.283 833.952,387.148 839.259,381.849 C841.912,379.2 843.984,377.011 845.401,375.47 C846.818,373.929 847.717,372.881 847.62,372.994 L847.624,372.99 L847.624,372.985 C849.857,370.38 849.548,366.383 846.946,364.151 C845.642,363.034 843.994,362.551 842.389,362.675 z" fill="#000000" id="path95245"/>
    <path d="M84.659,385.827 C112.638,379.809 137.251,368.909 137.251,368.909 L171.968,320.728 C127.761,313.786 86.012,300.047 47.366,280.304 C37.142,292.985 27.36,306.945 19.811,320.214 C39.82,344.254 61.414,366.304 84.659,385.827" fill="#F3EBC5" id="path94096"/>
    <path d="M48.164,274.082 C47.461,273.992 46.741,274.032 46.055,274.182 C44.681,274.474 43.406,275.221 42.48,276.37 C32.073,289.28 22.137,303.466 14.375,317.112 C13.088,319.374 13.336,322.221 15,324.222 C35.218,348.514 57.066,370.84 80.625,390.628 C81.434,391.307 82.391,391.71 83.398,391.917 L83.535,392.483 L85.977,391.956 L88.418,391.429 L88.398,391.329 C101.805,388.29 114.32,384.351 123.574,381.016 C128.491,379.245 132.521,377.648 135.332,376.505 C136.737,375.933 137.837,375.479 138.593,375.157 C138.971,374.996 139.253,374.872 139.452,374.786 C139.542,374.746 139.616,374.706 139.667,374.686 C139.667,374.686 139.687,374.686 139.687,374.686 C139.707,374.678 139.717,374.676 139.727,374.666 L139.807,374.626 C140.017,374.536 140.135,374.313 140.334,374.196 L143.284,376.325 L141.799,373.005 C141.954,372.834 142.191,372.762 142.326,372.575 L177.053,324.391 C178.319,322.628 178.592,320.322 177.756,318.317 C176.92,316.311 175.098,314.865 172.951,314.528 C129.398,307.687 88.284,294.168 50.217,274.723 C49.56,274.386 48.869,274.167 48.166,274.078 z M49.336,288.106 C84.308,305.424 121.776,317.837 161.191,324.981 L133.222,363.77 C129.501,365.372 109.646,373.565 86.308,378.926 C65.409,361.125 45.907,341.138 27.637,319.532 C33.87,309.051 41.346,298.309 49.336,288.106 z" fill="#000000" id="path94953"/>
    <path d="M19.811,320.214 C9.735,337.971 3.747,354.462 7.279,364.599 C17.165,393.198 53.059,392.622 84.659,385.827 C61.414,366.304 39.82,344.254 19.811,320.214" fill="#F7F1D6" id="path94100"/>
    <path d="M19.258,313.965 C18.091,314.07 17.048,314.574 16.133,315.254 L15.606,314.942 L14.356,317.13 C14.356,317.13 14.356,317.15 14.356,317.15 L13.125,319.298 L13.281,319.378 C9.68,325.913 6.39,332.394 4.121,338.499 C1.593,345.327 0.011,351.796 0,357.914 L0,357.934 C0.002,360.851 0.413,363.703 1.328,366.43 L1.288,366.45 L1.328,366.45 C1.348,366.52 1.325,366.579 1.348,366.645 C1.348,366.645 1.368,366.665 1.368,366.665 C3.26,372.143 6.046,376.85 9.552,380.727 C14.818,386.556 21.567,390.403 28.907,392.739 C36.25,395.074 44.239,395.959 52.423,395.961 C63.513,395.959 75.035,394.309 85.977,391.958 C88.311,391.459 90.168,389.661 90.743,387.348 L90.743,387.328 C91.316,385.015 90.519,382.572 88.692,381.039 C65.766,361.783 44.423,339.998 24.63,316.215 C23.314,314.635 21.305,313.788 19.259,313.969 z M21.406,331.309 C36.933,349.355 53.29,366.388 70.722,381.875 C64.483,382.781 58.286,383.438 52.422,383.438 C42.749,383.444 33.996,381.945 27.363,378.653 C24.03,377.001 21.207,374.932 18.847,372.325 C16.49,369.713 14.59,366.547 13.203,362.54 C12.789,361.353 12.519,359.817 12.519,357.93 L12.519,357.91 C12.512,354.077 13.662,348.796 15.878,342.852 C17.184,339.336 19.451,335.226 21.406,331.309 z" fill="#000000" id="path94979"/>
    <path d="M252.733,208.674 L252.733,151.685 C252.733,151.685 153.316,183.607 80.761,244.776 C71.419,252.632 59.208,265.579 47.366,280.304 C86.012,300.047 127.761,313.786 171.968,320.728 L252.733,208.674" fill="#F7F1D6" id="path94104"/>
    <path d="M253.73,145.508 C252.767,145.353 251.771,145.418 250.82,145.723 C250.565,145.803 244.415,147.767 233.847,151.758 C223.278,155.75 208.45,161.723 191.328,169.61 C157.087,185.389 113.664,208.844 76.719,239.981 C66.866,248.274 54.525,261.399 42.48,276.368 C41.295,277.839 40.835,279.776 41.23,281.622 C41.625,283.467 42.829,285.023 44.512,285.879 C83.736,305.92 126.134,319.867 170.996,326.915 C173.327,327.281 175.671,326.303 177.051,324.395 L257.812,212.344 C258.055,212.006 258.032,211.547 258.203,211.172 L259.004,211.172 L260.489,211.172 L259.004,210.118 L259.004,208.672 L259.004,206.172 L259.004,151.68 C259.004,149.686 258.038,147.798 256.426,146.622 C255.62,146.034 254.694,145.664 253.731,145.508 z M246.465,160.508 L246.465,206.661 L169.238,313.809 C129.809,307.247 92.479,295.087 57.558,278.106 C67.457,266.36 77.314,255.847 84.785,249.571 L84.805,249.571 C120.413,219.542 162.98,196.451 196.582,180.977 C213.384,173.236 227.943,167.402 238.281,163.497 C241.782,162.175 244.01,161.383 246.465,160.508 z" fill="#000000" id="path94920"/>
    <path d="M115.111,483.302 L102.562,531.863 L456.26,614.745 L721.134,614.745 L433.605,513.223 L115.111,483.302" fill="#F7F1D6" id="path94108"/>
    <path d="M115.703,477.071 C113.596,476.873 111.858,477.999 110.566,479.551 L109.668,479.317 L109.043,481.739 L108.418,484.161 L96.504,530.294 C96.084,531.92 96.335,533.66 97.207,535.099 C98.076,536.536 99.499,537.588 101.133,537.97 L454.844,620.841 L454.844,620.861 C455.321,620.971 455.767,621.017 456.27,621.017 L721.133,621.017 C724.171,621.017 726.791,618.796 727.305,615.802 C727.819,612.807 726.088,609.84 723.223,608.829 L435.684,507.306 C435.21,507.139 434.692,507.041 434.18,506.994 z M119.844,490.04 L432.246,519.395 L684.57,608.477 L456.992,608.477 L110.234,527.227 z" fill="#000000" id="path95269"/>
    <path d="M424.073,64.242 C267.665,64.242 163.392,179.724 125.363,317.479 C125.363,317.479 124.378,323.789 122.79,334.205 C301.499,299.929 479.239,244.805 611.168,132.943 C561.253,90.207 495.833,64.242 424.073,64.242" fill="#F7F1D6" id="path94112"/>
    <path d="M421.582,57.969 L421.582,58.086 C342.945,58.691 276.927,88.036 226.094,134.571 C174.698,181.607 138.604,245.966 119.316,315.821 L119.296,315.881 L119.14,316.643 L119.14,316.703 C119.135,316.733 119.13,316.753 119.12,316.803 C119.09,316.997 119.06,317.284 119.003,317.662 C118.885,318.418 118.698,319.54 118.476,320.982 C118.031,323.864 117.395,328.057 116.601,333.267 C116.291,335.28 116.973,337.307 118.437,338.716 C119.903,340.13 121.967,340.74 123.965,340.357 C303.121,305.979 481.912,250.718 615.215,137.72 C616.615,136.535 617.436,134.806 617.441,132.974 L617.441,132.954 C617.447,131.119 616.627,129.38 615.234,128.189 C564.809,85.014 498.852,58.69 426.562,58.091 L426.562,57.974 L424.082,57.974 z M424.082,70.508 C491.553,70.508 553.067,94.12 601.094,133.008 C473.309,238.64 302.95,292.458 130.351,326.231 C130.501,325.26 130.738,323.674 130.859,322.891 C131.081,321.454 131.269,320.342 131.386,319.59 C131.436,319.279 131.456,319.073 131.486,318.887 C150.243,251.088 185.267,188.916 234.553,143.829 C283.92,98.684 347.433,70.525 424.084,70.508 z" fill="#000000" id="path94831"/>
    <path d="M708.585,351.874 C707.778,344.003 707.261,339.441 707.261,339.441 C707.261,257.164 670.042,183.372 611.168,132.943 C479.239,244.805 301.499,299.929 122.79,334.205 C118.45,362.745 109.594,422.897 103.959,473.285 C311.797,478.697 523.666,442.522 708.585,351.874" fill="#FAF4DD" id="path94116"/>
    <path d="M611.191,126.68 C609.741,126.677 608.275,127.176 607.109,128.165 C476.556,238.891 299.863,293.871 121.601,328.047 C119.001,328.544 117.001,330.647 116.601,333.262 C112.256,361.843 103.387,422.026 97.734,472.578 C97.537,474.33 98.085,476.078 99.238,477.403 C100.393,478.73 102.031,479.506 103.789,479.551 C117.236,479.901 130.707,480.078 144.18,480.078 C339.783,480.076 537.303,442.813 711.347,357.5 C712.873,356.751 713.771,355.36 714.297,353.809 L715.078,353.709 L714.824,351.228 L714.57,348.748 L714.55,348.748 C714.012,343.652 713.525,339.22 713.495,338.963 C713.353,254.971 675.312,179.617 615.253,128.181 C614.092,127.186 612.641,126.681 611.19,126.678 z M610.839,141.25 C666.154,190.459 700.993,260.89 700.995,339.434 L700.995,339.514 L701.016,339.866 C701.016,339.866 701.036,340.132 701.036,340.139 C701.036,340.139 701.036,340.159 701.036,340.159 C701.037,340.169 701.033,340.179 701.036,340.199 C701.04,340.239 701.046,340.289 701.055,340.355 C701.065,340.494 701.106,340.708 701.135,340.98 C701.195,341.525 701.276,342.326 701.39,343.382 C701.508,344.473 701.729,346.496 701.898,348.089 C530.885,431.04 336.73,467.544 144.183,467.543 C133.135,467.543 122.091,467.35 111.058,467.113 C116.476,420.148 124.091,367.685 128.362,339.456 C304.119,305.391 479.109,250.9 610.843,141.253 z" fill="#000000" id="path95023"/>
    <path d="M708.585,351.874 C523.666,442.522 311.797,478.697 103.96,473.285 C103.489,477.77 103.003,482.126 102.562,486.42 C303.413,536.173 521.312,556.591 721.134,614.745 C726.062,529.656 712.927,393.271 708.585,351.874" fill="#F3EBC5" id="path94120"/>
    <path d="M708.066,345.137 L705.84,346.25 L705.82,346.25 L705.74,346.29 C533.801,430.563 338.162,467.542 144.177,467.54 C130.815,467.54 117.458,467.359 104.119,467.013 C100.874,466.933 98.07,469.41 97.732,472.638 C97.262,477.098 96.771,481.452 96.326,485.783 C96.011,488.869 98.038,491.757 101.052,492.502 C302.536,542.396 520.343,562.823 719.372,620.763 L719.392,620.763 C721.222,621.293 723.184,620.966 724.744,619.865 C726.303,618.764 727.269,617.022 727.381,615.119 L727.381,615.099 C728.148,601.834 728.494,587.407 728.494,572.306 C728.49,489.409 718.502,386.357 714.822,351.232 C714.611,349.201 713.406,347.376 711.619,346.388 C710.604,345.825 709.47,345.659 708.338,345.704 z M703.125,361.348 C707.148,400.592 715.959,494.293 715.957,572.305 C715.957,584.481 715.567,595.727 715.078,606.661 C518.367,550.497 305.567,529.609 109.375,481.563 C109.445,480.921 109.52,480.277 109.59,479.629 C121.114,479.885 132.637,480.078 144.18,480.078 C336.731,480.076 531.081,443.856 703.125,361.348 z" fill="#000000" id="path95285"/>
    <path d="M721.134,614.745 C644.489,614.745 299.323,573.143 98.486,523.39 C94.957,557.372 107.269,576.334 115.111,593.591 C314.843,609.523 517.414,642.33 716.573,654.496 C718.737,643.388 720.208,629.941 721.134,614.745" fill="#FAF6E6" id="path94124"/>
    <path d="M97.324,517.227 C96.453,517.39 95.622,517.744 94.883,518.262 C93.394,519.305 92.433,520.935 92.246,522.735 C91.798,527.046 91.601,531.167 91.601,535.078 C91.597,549.316 94.382,560.987 98.027,570.879 C101.671,580.769 106.11,588.887 109.413,596.172 C110.353,598.246 112.348,599.66 114.609,599.844 C314,615.743 516.609,648.547 716.191,660.743 C719.31,660.934 722.118,658.754 722.714,655.684 C724.955,644.172 726.443,630.493 727.382,615.118 C727.487,613.391 726.888,611.709 725.703,610.45 C725.167,609.881 724.322,609.882 723.632,609.552 L723.632,608.477 L721.132,608.477 C702.498,608.482 666.556,605.899 620.39,601.231 C481.842,587.231 250.031,554.479 99.999,517.305 C99.118,517.086 98.194,517.065 97.324,517.226 z M104.336,531.114 C204.437,555.428 337.142,577.659 455.527,593.926 C516.085,602.245 572.756,609.023 619.121,613.711 C661.664,618.007 693.849,620.306 714.336,620.703 C713.584,630.776 712.55,639.853 711.23,647.832 C515.551,635.503 316.272,603.592 119.316,587.676 C116.101,580.887 112.597,574.198 109.785,566.543 C106.528,557.675 104.127,547.706 104.121,535.078 C104.121,533.838 104.287,532.407 104.336,531.114 z" fill="#000000" id="path95297"/>
    <path d="M115.111,593.591 C128.232,622.441 154.021,657.967 214.733,676.224 C311.797,705.396 357.799,694.833 448.199,704.779 C538.599,714.721 697.009,740.115 715.646,659.07 C715.985,657.643 716.28,656.011 716.573,654.496 C517.414,642.33 314.843,609.523 115.111,593.591" fill="#F7F1D6" id="path94128"/>
    <path d="M115.605,587.344 C113.395,587.168 111.251,588.188 109.98,590 C109.22,591.084 108.975,592.35 108.984,593.633 L108.379,593.907 L109.414,596.192 C109.424,596.222 109.444,596.242 109.454,596.272 L110.45,598.46 L110.53,598.42 C117.317,612.811 127.18,628.747 142.776,643.439 C159.166,658.888 181.736,672.855 212.933,682.228 C261.919,696.959 298.361,701.704 333.577,703.967 C368.802,706.231 402.685,706.063 447.523,710.998 C487.089,715.345 540.127,722.752 589.085,722.756 C620.349,722.746 649.992,719.81 673.831,710.685 C685.747,706.115 696.261,699.948 704.573,691.662 C712.885,683.389 718.88,672.96 721.741,660.51 C721.745,660.5 721.761,660.49 721.761,660.47 C721.768,660.44 721.771,660.42 721.781,660.39 L721.781,660.37 C722.158,658.752 722.444,657.091 722.718,655.682 L722.738,655.682 C723.079,653.919 722.629,652.084 721.527,650.663 C720.427,649.241 718.752,648.351 716.957,648.241 C518.222,636.107 315.683,603.307 115.609,587.342 z M125.742,600.84 C319.075,616.843 515.294,647.908 708.769,660.215 C706.237,669.248 701.876,676.604 695.703,682.774 C685.59,692.877 670.514,699.869 652.051,704.2 C633.605,708.539 611.92,710.237 589.082,710.235 C541.361,710.239 488.731,702.943 448.887,698.555 C403.325,693.545 369.014,693.701 334.375,691.465 C299.722,689.23 264.624,684.66 216.543,670.215 C187.024,661.334 166.335,648.41 151.367,634.317 C139.86,623.473 131.766,611.929 125.742,600.84 z" fill="#000000" id="path95305"/>
    <path d="M375.103,449.978 C371.838,448.922 368.264,450.746 367.208,454.011 C366.152,457.276 367.981,460.846 371.246,461.902 L372.014,459.524 L371.381,461.943 C371.596,461.999 482.455,497.897 613.17,497.911 C646.873,497.911 681.907,495.519 716.72,489.477 C720.099,488.887 722.407,485.612 721.82,482.232 C721.233,478.853 717.956,476.54 714.574,477.128 L714.57,477.128 C680.605,483.021 646.279,485.378 613.17,485.378 C548.956,485.38 489.336,476.519 445.831,467.651 C424.076,463.217 406.353,458.787 394.089,455.47 C387.955,453.81 383.184,452.432 379.962,451.469 C378.354,450.99 377.133,450.617 376.313,450.362 L376.305,450.358 C375.899,450.23 375.586,450.131 375.385,450.068 L375.381,450.068 C375.187,450.007 375.123,449.986 375.123,449.986 L375.111,449.982 z" fill="#000000" id="path95309"/>
    <path d="M721.134,614.745 C721.134,614.745 716.971,702.365 771.666,765.299 C826.391,828.249 875.82,854.17 875.82,854.17 L799.941,894.067 C799.941,894.067 673.573,793.574 684.945,697.864 C696.346,602.169 721.134,614.745 721.134,614.745" fill="#F7F1D6" id="path94134"/>
    <path d="M718.262,607.93 C715.29,607.92 711.546,608.844 707.812,611.485 C702.247,615.42 696.812,622.691 691.797,635.86 C686.783,649.055 682.158,668.379 678.73,697.129 C678.209,701.505 677.949,705.887 677.949,710.254 C677.956,734.526 685.558,758.38 696.699,780.508 C713.431,813.702 738.223,843.155 758.828,864.454 L758.828,864.474 C769.132,875.119 778.388,883.7 785.098,889.649 C788.452,892.624 791.18,894.947 793.066,896.524 C794.953,898.101 795.859,898.811 796.055,898.966 C797.996,900.507 800.657,900.765 802.852,899.611 L878.73,859.708 C880.791,858.626 882.092,856.489 882.09,854.162 C882.09,851.832 880.794,849.695 878.73,848.615 L878.71,848.615 C877.811,848.141 829.613,822.401 776.406,761.193 C753.538,734.889 741.2,703.875 734.648,677.111 C728.092,650.355 727.322,627.921 727.324,619.083 C727.324,617.74 727.344,616.705 727.364,616.017 C727.372,615.687 727.374,615.438 727.384,615.275 L727.384,615.255 L727.404,615.079 L727.404,615.039 C727.474,613.486 726.802,612.13 725.861,610.957 L726.213,610.273 L723.967,609.16 L721.74,608.027 L721.447,608.613 C720.445,608.306 719.976,607.931 718.263,607.929 z M714.941,621.817 C715.047,632.299 716.002,653.638 722.48,680.098 C729.364,708.19 742.332,741.1 766.933,769.415 C794.632,801.273 821.001,823.78 840.508,838.36 C849.878,845.363 857.418,850.329 863.008,853.829 L800.84,886.524 C794.836,881.588 769.954,860.676 744.219,829.336 C730.437,812.561 716.906,793.264 706.914,772.911 C696.913,752.556 690.482,731.199 690.488,710.254 C690.488,706.361 690.713,702.46 691.172,698.594 C695.62,661.158 702.213,640.854 707.891,630.645 C710.69,625.593 713.201,623.058 714.942,621.817 z" fill="#000000" id="path95319"/>
    <path d="M270.165,496.249 C270.165,496.249 251.777,536.88 305.428,571.67 C359.124,606.464 373.541,642.771 373.541,642.771 L402.743,598.462 C402.743,598.462 369.79,570.907 336.586,537.761 C303.369,504.603 270.165,496.249 270.165,496.249" fill="#777776" id="path94138"/>
    <path d="M271.699,490.176 C269.685,489.67 267.816,490.472 266.308,491.758 L265.449,491.367 L264.453,493.672 L264.433,493.712 L263.418,495.939 L263.672,496.056 C263.299,497.04 263.086,497.354 262.578,499.337 C261.709,502.73 260.864,507.509 260.859,513.282 C260.855,521.703 262.693,532.284 268.847,543.419 C274.995,554.559 285.383,566.156 302.012,576.934 C328.24,593.931 344.732,611.181 354.648,624.083 C359.606,630.536 362.91,635.896 364.961,639.591 C365.986,641.439 366.708,642.873 367.148,643.809 C367.367,644.275 367.514,644.61 367.617,644.845 L367.717,645.079 C368.575,647.246 370.591,648.768 372.913,649.004 C375.23,649.242 377.49,648.154 378.772,646.211 L407.971,601.915 C409.578,599.475 409.076,596.339 407.112,594.258 C407.032,594.064 406.897,593.77 406.897,593.77 C406.897,593.77 406.827,593.72 406.817,593.71 C406.797,593.69 406.787,593.68 406.777,593.67 L406.757,593.65 C406.757,593.65 406.737,593.65 406.737,593.65 C406.717,593.63 406.707,593.6 406.677,593.57 C406.617,593.52 406.506,593.438 406.384,593.336 C406.14,593.131 405.787,592.823 405.31,592.418 C398.626,586.758 369.859,562.115 341.013,533.317 C323.842,516.185 306.677,505.444 293.728,498.961 C287.253,495.72 281.832,493.542 277.986,492.164 C276.063,491.475 274.524,490.983 273.454,490.66 C272.385,490.339 271.599,490.142 271.716,490.172 z M274.492,504.278 C278.017,505.568 282.866,507.513 288.672,510.45 C300.567,516.466 316.373,526.414 332.168,542.188 C362.227,572.193 388.754,594.742 394.492,599.59 L374.023,630.645 C371.705,626.691 369.049,622.249 364.59,616.446 C353.872,602.498 336.323,584.206 308.847,566.407 L308.827,566.407 C293.627,556.543 284.874,546.481 279.823,537.344 C274.78,528.2 273.384,519.919 273.378,513.282 C273.379,509.507 273.959,506.721 274.491,504.278 z" fill="#000000" id="path95331"/>
    <path d="M603.739,418.455 C603.739,418.455 569.242,464.192 460.777,463.03 C380.13,462.148 286.42,498.279 271.592,538.586 C271.592,538.586 198.993,453.601 332.025,423.382 C385.676,411.189 438.313,416.072 486.05,406.759 C533.818,397.464 562.253,378.751 562.253,378.751 L603.739,418.455" fill="#F7F1D6" id="path94142"/>
    <path d="M562.812,372.52 C561.435,372.395 560.024,372.716 558.808,373.516 L558.788,373.516 C558.828,373.486 551.602,378.185 538.906,383.809 C526.209,389.432 507.834,396.138 484.863,400.606 L484.843,400.606 C461.603,405.145 436.781,406.269 410.897,407.735 C385.015,409.207 358.08,411.033 330.643,417.266 C298.151,424.655 276.996,435.337 263.729,448.008 C257.102,454.345 252.499,461.194 249.608,468.184 C246.716,475.171 245.544,482.254 245.546,489.024 C245.566,503.798 250.96,517.061 256.19,526.7 C258.814,531.522 261.44,535.449 263.417,538.203 C264.405,539.581 265.224,540.673 265.819,541.426 C266.414,542.179 266.926,542.794 266.795,542.637 L266.815,542.637 L266.815,542.657 C268.26,544.35 270.507,545.138 272.694,544.747 C274.885,544.356 276.712,542.828 277.479,540.743 C280.48,532.518 288.075,523.476 299.393,514.981 C316.35,502.214 341.368,490.654 369.413,482.442 C397.462,474.215 428.578,469.276 457.87,469.278 C458.813,469.278 459.755,469.287 460.702,469.298 L460.722,469.298 C462.1,469.308 463.465,469.318 464.824,469.318 C518.341,469.324 554.144,457.963 576.64,446.33 C599.133,434.706 608.141,423.04 608.749,422.228 C610.077,420.465 609.963,418.312 609.218,416.349 L609.882,415.665 L608.085,413.947 L608.065,413.927 L606.268,412.208 L566.581,374.22 C565.53,373.215 564.189,372.646 562.812,372.52 z M561.367,386.563 L594.805,418.575 C591.145,422.319 584.544,428.259 569.902,435.684 C549.18,446.189 515.773,456.772 464.824,456.778 C463.518,456.778 462.2,456.771 460.859,456.758 C460.859,456.758 460.839,456.758 460.839,456.758 C460.839,456.758 460.819,456.758 460.819,456.758 C459.839,456.748 458.849,456.738 457.87,456.738 C416.952,456.746 373.44,465.815 337.909,480.039 C320.141,487.157 304.37,495.567 291.874,504.96 L291.854,504.96 C283.027,511.613 275.882,518.801 270.858,526.542 C269.578,524.568 268.379,522.895 266.991,520.312 C262.419,511.83 258.068,500.468 258.084,489.023 C258.086,483.679 258.981,478.305 261.19,472.968 C264.508,464.972 270.767,456.925 282.166,449.335 C293.548,441.763 310.091,434.785 333.416,429.492 C359.632,423.53 385.817,421.697 411.6,420.234 C437.38,418.766 462.749,417.682 487.245,412.91 C511.674,408.152 531.182,400.984 544.627,394.98 C551.35,391.978 556.556,389.267 560.116,387.285 C560.66,386.982 560.899,386.83 561.366,386.562 z" fill="#000000" id="path95347"/>
  </g>
  <g id="Head">
    <g id="Fill">
      <path d="M471.81,9.413 C343.823,-6.622 272.888,40.438 233.315,105.771 C355.299,97.12 474.281,79.835 592.633,53.59 C561.666,31.582 522.049,15.71 471.81,9.413" fill="#F3EBC5" id="path94146"/>
      <path d="M687.299,313.021 C692.301,272.816 690.933,227.182 679.31,183.607 C585.159,210.44 485.713,203.732 386.457,187.036 C470.854,263.298 571.376,315.713 679.869,344.356 C683.179,334.719 685.857,324.467 687.299,313.021" fill="#FAF4DD" id="path94150"/>
      <path d="M679.869,344.356 C671.042,342.032 662.393,339.295 653.685,336.661 C495.099,340.075 336.586,339.824 187.342,283.775 C187.857,289.512 188.695,295.029 189.915,300.354 C312.092,377.116 467.985,403.464 614.949,415.896 C645.475,401.186 668.249,378.192 679.869,344.356" fill="#F3EBC5" id="path94154"/>
      <path d="M213.652,140.938 C212.549,141.026 211.636,141.829 211.406,142.911 L211.055,144.61 C210.45,144.092 209.635,143.893 208.86,144.074 C208.084,144.256 207.442,144.795 207.129,145.528 C190.724,183.827 178.985,238.337 181.368,284.668 C181.374,284.675 181.381,284.682 181.388,284.689 L181.488,286.329 C181.542,287.305 182.16,288.159 183.07,288.517 L184.593,289.103 C184.6,289.103 184.606,289.103 184.613,289.103 C334.97,345.57 495.14,345.077 653.793,341.661 C655.017,341.635 656.043,340.725 656.215,339.513 L656.899,334.63 C657.066,333.41 656.32,332.25 655.141,331.896 C557.385,302.234 466.776,252.878 389.828,183.341 L389.808,183.321 L389.3,182.852 C388.941,182.522 388.493,182.305 388.011,182.227 L387.288,182.11 C329.011,172.3 272.257,153.127 214.398,140.997 L214.358,140.997 C214.127,140.943 213.891,140.923 213.655,140.937 z" fill="#000000" id="path95858"/>
      <path d="M368.436,241.6 C368.436,277.48 339.337,306.576 303.443,306.576 C267.59,306.576 238.493,277.48 238.493,241.6 C238.493,205.732 267.59,176.633 303.443,176.633 C339.337,176.633 368.436,205.732 368.436,241.6" fill="#FFFFFF" id="path94164"/>
      <path d="M352.136,253.279 C352.136,271.167 337.645,285.658 319.741,285.658 C301.867,285.658 287.376,271.167 287.376,253.279 C287.376,235.39 301.867,220.884 319.741,220.884 C337.645,220.884 352.136,235.39 352.136,253.279" fill="#1A1919" id="path94166"/>
      <path d="M679.31,183.607 C665.997,133.795 639.223,86.692 592.633,53.59 C474.281,79.836 355.299,97.12 233.315,105.771 C224.487,120.335 217.382,135.826 211.394,151.685 C365.89,184.034 529.405,226.343 679.31,183.607" fill="#F7F1D6" id="path94168"/>
      <path d="M189.915,300.354 C207.967,381.295 302.604,417.47 418.822,432.048 C495.686,441.683 565.563,439.683 614.949,415.896 C467.985,403.464 312.092,377.117 189.915,300.354" fill="#F7F1D6" id="path94158"/>
    </g>
    <g id="Outline">
      <path d="M423.574,0 C373.606,-0.006 333.429,10.958 301.387,29.356 C269.338,47.747 245.535,73.478 227.949,102.52 C218.874,117.494 211.617,133.342 205.527,149.473 C204.886,151.173 205.024,153.088 205.898,154.688 C206.776,156.296 208.332,157.439 210.117,157.813 C266.742,169.663 324.731,182.799 382.968,192.696 L382.948,192.796 L383.827,192.933 C452.28,254.421 531.129,300.49 616.132,331.077 C597.714,331.369 579.319,331.585 560.956,331.585 C433.895,331.589 308.571,322.617 189.55,277.913 C187.537,277.156 185.266,277.491 183.554,278.792 L183.534,278.792 C181.827,280.095 180.902,282.198 181.093,284.339 C181.553,289.451 182.335,294.405 183.339,299.261 L183.259,299.281 L183.747,301.488 L183.807,301.722 C183.809,301.732 183.804,301.752 183.807,301.762 L183.827,301.782 L184.354,304.165 L184.608,304.105 L184.588,304.145 L184.471,304.34 L184.842,304.574 C189.816,324.581 199.046,342.212 212.244,357.172 C233.042,380.748 262.667,398.194 297.908,411.195 C333.161,424.192 374.142,432.755 418.045,438.266 C445.775,441.741 472.644,443.734 498.084,443.734 C542.665,443.726 582.67,437.43 615.252,422.328 L616.658,425.238 L616.912,422.348 L616.972,421.762 C617.178,421.662 617.451,421.646 617.656,421.547 L617.676,421.527 L617.696,421.527 C633.549,413.885 647.553,404.016 659.102,391.566 C670.659,379.112 679.725,364.086 685.802,346.39 C688.963,337.184 691.383,327.12 692.95,316.234 L693.204,316.274 L693.516,313.832 L693.516,313.812 L693.516,313.792 L693.536,313.655 L693.536,313.479 C695.316,299.068 696.31,284.012 696.31,268.577 C696.31,240.379 693.045,210.987 685.45,182.366 C685.444,182.333 685.437,182.299 685.43,182.266 C685.42,182.226 685.423,182.176 685.41,182.129 C685.398,182.083 685.385,182.037 685.37,181.992 C685.342,181.899 685.309,181.808 685.27,181.719 C671.659,130.951 644.161,82.495 596.266,48.477 C564.547,25.93 524.026,9.824 473.239,3.36 L473.219,3.36 C473.018,3.281 472.808,3.228 472.594,3.204 C472.491,3.194 472.404,3.198 472.301,3.184 C455.106,1.041 438.862,-0 423.57,-0 z M423.574,12.52 C438.339,12.52 454.094,13.512 470.859,15.606 C470.918,15.615 470.976,15.621 471.035,15.626 C513.137,20.906 545.971,33.992 573.789,50.684 C466.159,73.737 357.853,89.485 247.188,97.97 C262.896,75.31 281.981,54.943 307.637,40.216 C337.623,23.008 375.418,12.525 423.574,12.52 z M590.918,60.352 C632.841,90.941 657.722,133.331 671.074,178.887 C628.458,190.311 584.746,195.409 540.273,195.411 L540.253,195.411 C534.04,195.41 527.819,195.311 521.581,195.138 C521.541,195.136 521.501,195.139 521.464,195.138 C515.259,194.962 509.039,194.695 502.812,194.357 C502.782,194.355 502.762,194.358 502.732,194.357 C496.119,193.997 489.464,193.341 482.83,192.814 C476.288,192.296 469.759,191.86 463.201,191.192 C455.622,190.418 448.025,189.43 440.427,188.478 C435.309,187.838 430.2,187.277 425.076,186.564 C416.9,185.424 408.712,184.116 400.525,182.814 C396.73,182.21 392.934,181.652 389.138,181.017 L388.806,180.705 L388.611,180.92 C332.31,171.473 275.926,158.849 220.486,147.15 C225.397,134.958 230.762,122.989 237.381,111.72 C357.342,103.042 474.453,86.025 590.916,60.353 z M674.453,191.368 C680.694,216.985 683.769,243.24 683.769,268.575 C683.769,282.721 682.785,296.467 681.23,309.727 L681.054,309.707 L681.054,312.324 C679.95,321.051 677.701,328.697 675.371,336.309 C577.586,309.591 487.022,262.763 408.828,196.875 C452.738,203.505 496.695,207.925 540.253,207.93 L540.273,207.93 C540.403,207.93 540.533,207.93 540.664,207.93 C585.892,207.9 630.682,203.105 674.453,191.367 z M195.039,292.637 C313.308,335.039 436.764,344.117 560.957,344.121 C591.35,344.121 621.773,343.618 652.187,342.969 C658.479,344.875 664.803,346.676 671.152,348.418 C665.763,361.708 658.849,373.38 649.902,383.028 C639.852,393.861 627.472,402.451 613.379,409.414 C468.324,397.04 315.38,370.749 195.625,296.368 C195.379,295.16 195.247,293.87 195.039,292.637 z M201.738,314.629 C314.113,380.137 451.2,406.112 583.301,419.102 C558.048,426.475 530.139,431.198 498.086,431.192 C473.297,431.192 446.93,429.265 419.609,425.84 C361.928,418.614 309.827,405.974 270.449,385.528 C250.753,375.31 234.253,363.17 221.66,348.887 C212.745,338.77 206.553,327.116 201.738,314.629 z" fill="#000000" id="path94621"/>
      <path d="M236.094,104.219 C236.044,104.289 235.985,104.359 235.938,104.434 L235.723,104.297 L235.723,104.257 C235.847,104.248 235.97,104.227 236.094,104.217 z" fill="#000000" id="path94605"/>
      <path d="M191.992,302.442 L192.012,302.442 C192.072,302.676 192.187,302.873 192.246,303.106 C191.993,302.95 191.719,302.829 191.465,302.676 C191.455,302.668 191.435,302.666 191.425,302.656 L191.485,302.556 z" fill="#000000" id="path94583"/>
    </g>
  </g>
</svg>
