<svg xmlns="http://www.w3.org/2000/svg" xmlns:xlink="http://www.w3.org/1999/xlink" preserveAspectRatio="xMidYMid" width="612" height="535" viewBox="0 0 612 535">
  <defs>
    <style>
      .cls-1 {
        fill: #000;
        fill-rule: evenodd;
      }
    </style>
  </defs>
  <path d="M219.670,459.218 C219.670,480.020 202.746,496.944 181.944,496.944 L124.457,496.944 C103.654,496.944 86.730,480.020 86.730,459.218 L86.730,276.576 L86.730,258.611 L86.730,75.970 C86.730,55.167 103.654,38.244 124.457,38.244 L181.944,38.244 C202.746,38.244 219.670,55.167 219.670,75.970 L219.670,258.611 L240.030,258.611 L240.030,75.970 C240.030,55.167 256.954,38.244 277.756,38.244 L335.243,38.244 C356.045,38.244 372.969,55.167 372.969,75.970 L372.969,258.611 L393.329,258.611 L393.329,75.970 C393.329,55.167 410.253,38.244 431.055,38.244 L488.543,38.244 C509.345,38.244 526.269,55.167 526.269,75.970 L526.269,459.218 C526.269,480.020 509.345,496.944 488.543,496.944 L431.055,496.944 C410.253,496.944 393.329,480.020 393.329,459.218 L393.329,276.576 L372.969,276.576 L372.969,459.218 C372.969,480.020 356.045,496.944 335.243,496.944 L277.756,496.944 C256.954,496.944 240.030,480.020 240.030,459.218 L240.030,276.576 L219.670,276.576 L219.670,459.218 ZM411.294,459.218 C411.294,470.114 420.159,478.979 431.055,478.979 L488.543,478.979 C499.439,478.979 508.304,470.114 508.304,459.218 L508.304,75.970 C508.304,65.073 499.439,56.208 488.543,56.208 L431.055,56.208 C420.159,56.208 411.294,65.073 411.294,75.970 L411.294,459.218 ZM257.995,459.218 C257.995,470.114 266.860,478.979 277.756,478.979 L335.243,478.979 C346.139,478.979 355.005,470.114 355.005,459.218 L355.005,75.970 C355.005,65.073 346.139,56.208 335.243,56.208 L277.756,56.208 C266.860,56.208 257.995,65.073 257.995,75.970 L257.995,459.218 ZM201.705,75.970 C201.705,65.073 192.840,56.208 181.944,56.208 L124.457,56.208 C113.560,56.208 104.695,65.073 104.695,75.970 L104.695,459.218 C104.695,470.114 113.560,478.979 124.457,478.979 L181.944,478.979 C192.840,478.979 201.705,470.114 201.705,459.218 L201.705,75.970 ZM125.055,449.637 L125.055,238.850 C125.055,233.890 129.076,229.868 134.038,229.868 C139.000,229.868 143.020,233.890 143.020,238.850 L143.020,449.637 C143.020,454.598 139.000,458.619 134.038,458.619 C129.076,458.619 125.055,454.598 125.055,449.637 ZM163.381,449.637 L163.381,238.850 C163.381,233.890 167.401,229.868 172.363,229.868 C177.324,229.868 181.346,233.890 181.346,238.850 L181.346,449.637 C181.346,454.598 177.324,458.619 172.363,458.619 C167.401,458.619 163.381,454.598 163.381,449.637 ZM125.055,181.363 C125.055,165.844 137.681,153.218 153.200,153.218 C168.720,153.218 181.346,165.844 181.346,181.363 C181.346,196.882 168.720,209.508 153.200,209.508 C137.681,209.508 125.055,196.882 125.055,181.363 ZM163.381,181.363 C163.381,175.749 158.813,171.183 153.200,171.183 C147.587,171.183 143.020,175.749 143.020,181.363 C143.020,186.976 147.587,191.543 153.200,191.543 C158.813,191.543 163.381,186.976 163.381,181.363 ZM125.055,104.713 C125.055,89.194 137.681,76.568 153.200,76.568 C168.720,76.568 181.346,89.194 181.346,104.713 C181.346,120.232 168.720,132.858 153.200,132.858 C137.681,132.858 125.055,120.232 125.055,104.713 ZM163.381,104.713 C163.381,99.100 158.813,94.533 153.200,94.533 C147.587,94.533 143.020,99.100 143.020,104.713 C143.020,110.327 147.587,114.893 153.200,114.893 C158.813,114.893 163.381,110.327 163.381,104.713 ZM334.644,104.713 C334.644,120.232 322.019,132.858 306.500,132.858 C290.980,132.858 278.355,120.232 278.355,104.713 C278.355,89.194 290.980,76.568 306.500,76.568 C322.019,76.568 334.644,89.194 334.644,104.713 ZM296.320,104.713 C296.320,110.327 300.886,114.893 306.500,114.893 C312.113,114.893 316.679,110.327 316.679,104.713 C316.679,99.100 312.113,94.533 306.500,94.533 C300.886,94.533 296.320,99.100 296.320,104.713 ZM334.644,181.363 C334.644,196.882 322.019,209.508 306.500,209.508 C290.980,209.508 278.355,196.882 278.355,181.363 C278.355,165.844 290.980,153.218 306.500,153.218 C322.019,153.218 334.644,165.844 334.644,181.363 ZM296.320,181.363 C296.320,186.976 300.886,191.543 306.500,191.543 C312.113,191.543 316.679,186.976 316.679,181.363 C316.679,175.749 312.113,171.183 306.500,171.183 C300.886,171.183 296.320,175.749 296.320,181.363 ZM334.644,238.850 L334.644,449.637 C334.644,454.598 330.624,458.619 325.662,458.619 C320.700,458.619 316.679,454.598 316.679,449.637 L316.679,238.850 C316.679,233.890 320.700,229.868 325.662,229.868 C330.624,229.868 334.644,233.890 334.644,238.850 ZM296.320,238.850 L296.320,449.637 C296.320,454.598 292.299,458.619 287.337,458.619 C282.375,458.619 278.355,454.598 278.355,449.637 L278.355,238.850 C278.355,233.890 282.375,229.868 287.337,229.868 C292.299,229.868 296.320,233.890 296.320,238.850 ZM487.944,104.713 C487.944,120.232 475.318,132.858 459.799,132.858 C444.280,132.858 431.654,120.232 431.654,104.713 C431.654,89.194 444.280,76.568 459.799,76.568 C475.318,76.568 487.944,89.194 487.944,104.713 ZM449.619,104.713 C449.619,110.327 454.186,114.893 459.799,114.893 C465.412,114.893 469.979,110.327 469.979,104.713 C469.979,99.100 465.412,94.533 459.799,94.533 C454.186,94.533 449.619,99.100 449.619,104.713 ZM487.944,181.363 C487.944,196.882 475.318,209.508 459.799,209.508 C444.280,209.508 431.654,196.882 431.654,181.363 C431.654,165.844 444.280,153.218 459.799,153.218 C475.318,153.218 487.944,165.844 487.944,181.363 ZM449.619,181.363 C449.619,186.976 454.186,191.543 459.799,191.543 C465.412,191.543 469.979,186.976 469.979,181.363 C469.979,175.749 465.412,171.183 459.799,171.183 C454.186,171.183 449.619,175.749 449.619,181.363 ZM487.944,238.850 L487.944,449.637 C487.944,454.598 483.923,458.619 478.962,458.619 C474.000,458.619 469.979,454.598 469.979,449.637 L469.979,238.850 C469.979,233.890 474.000,229.868 478.962,229.868 C483.923,229.868 487.944,233.890 487.944,238.850 ZM449.619,238.850 L449.619,449.637 C449.619,454.598 445.598,458.619 440.636,458.619 C435.675,458.619 431.654,454.598 431.654,449.637 L431.654,238.850 C431.654,233.890 435.675,229.868 440.636,229.868 C445.598,229.868 449.619,233.890 449.619,238.850 Z" class="cls-1"/>
</svg>