<?xml version="1.0" encoding="UTF-8" standalone="no"?>
<!-- Uploaded to: SVG Repo, www.svgrepo.com, Generator: SVG Repo Mixer Tools -->

<svg
   xmlns:dc="http://purl.org/dc/elements/1.1/"
   xmlns:cc="http://creativecommons.org/ns#"
   xmlns:rdf="http://www.w3.org/1999/02/22-rdf-syntax-ns#"
   xmlns:svg="http://www.w3.org/2000/svg"
   xmlns="http://www.w3.org/2000/svg"
   xmlns:sodipodi="http://sodipodi.sourceforge.net/DTD/sodipodi-0.dtd"
   xmlns:inkscape="http://www.inkscape.org/namespaces/inkscape"
   width="400"
   height="397.91251"
   viewBox="0 0 32 31.833"
   version="1.1"
   id="svg48"
   sodipodi:docname="python-logo.svg"
   style="fill:none"
   inkscape:version="0.92.3 (2405546, 2018-03-11)">
  <metadata
     id="metadata52">
    <rdf:RDF>
      <cc:Work
         rdf:about="">
        <dc:format>image/svg+xml</dc:format>
        <dc:type
           rdf:resource="http://purl.org/dc/dcmitype/StillImage" />
      </cc:Work>
    </rdf:RDF>
  </metadata>
  <sodipodi:namedview
     pagecolor="#ffffff"
     bordercolor="#666666"
     borderopacity="1"
     objecttolerance="10"
     gridtolerance="10"
     guidetolerance="10"
     inkscape:pageopacity="0"
     inkscape:pageshadow="2"
     inkscape:window-width="1920"
     inkscape:window-height="1001"
     id="namedview50"
     showgrid="false"
     inkscape:zoom="1.01"
     inkscape:cx="200"
     inkscape:cy="197.9125"
     inkscape:window-x="2391"
     inkscape:window-y="-9"
     inkscape:window-maximized="1"
     inkscape:current-layer="svg48" />
  <path
     d="M 15.885,0 C 7.761,0 8.268,3.523 8.268,3.523 l 0.01,3.65 H 16.03 V 8.268 H 5.197 c 0,0 -5.197,-0.59 -5.197,7.608 0,8.196 4.537,7.906 4.537,7.906 h 2.708 v -3.804 c 0,0 -0.146,-4.537 4.465,-4.537 h 7.688 c 0,0 4.32,0.07 4.32,-4.175 V 4.247 C 23.718,4.247 24.374,0 15.885,0 Z M 11.61,2.454 c 0.771,0 1.395,0.624 1.395,1.395 0,0.771 -0.624,1.395 -1.395,1.395 A 1.393,1.393 0 0 1 10.215,3.849 c 0,-0.771 0.624,-1.395 1.395,-1.395 z"
     id="path32"
     inkscape:connector-curvature="0"
     style="fill:url(#a)" />
  <path
     d="m 16.115,31.833 c 8.124,0 7.617,-3.523 7.617,-3.523 l -0.01,-3.65 H 15.97 v -1.095 h 10.832 c 0,0 5.198,0.59 5.198,-7.607 0,-8.197 -4.537,-7.906 -4.537,-7.906 h -2.708 v 3.803 c 0,0 0.146,4.537 -4.465,4.537 h -7.688 c 0,0 -4.32,-0.07 -4.32,4.175 v 7.019 c 0,0 -0.656,4.247 7.833,4.247 z m 4.275,-2.454 a 1.393,1.393 0 0 1 -1.395,-1.395 c 0,-0.77 0.624,-1.394 1.395,-1.394 0.771,0 1.395,0.623 1.395,1.394 0,0.772 -0.624,1.395 -1.395,1.395 z"
     id="path34"
     inkscape:connector-curvature="0"
     style="fill:url(#b)" />
  <defs
     id="defs46">
    <linearGradient
       id="a"
       x1="19.075001"
       y1="18.782"
       x2="34.897999"
       y2="34.658001"
       gradientUnits="userSpaceOnUse"
       gradientTransform="translate(-16,-16)">
      <stop
         stop-color="#387EB8"
         id="stop36" />
      <stop
         offset="1"
         stop-color="#366994"
         id="stop38" />
    </linearGradient>
    <linearGradient
       id="b"
       x1="28.809"
       y1="28.882"
       x2="45.803001"
       y2="45.162998"
       gradientUnits="userSpaceOnUse"
       gradientTransform="translate(-16,-16)">
      <stop
         stop-color="#FFE052"
         id="stop41" />
      <stop
         offset="1"
         stop-color="#FFC331"
         id="stop43" />
    </linearGradient>
  </defs>
</svg>
