<?xml version="1.0" encoding="UTF-8" standalone="no"?>
<svg
   xmlns:dc="http://purl.org/dc/elements/1.1/"
   xmlns:cc="http://creativecommons.org/ns#"
   xmlns:rdf="http://www.w3.org/1999/02/22-rdf-syntax-ns#"
   xmlns:svg="http://www.w3.org/2000/svg"
   xmlns="http://www.w3.org/2000/svg"
   height="565.0108"
   width="800"
   version="1.1"
   id="Layer_1"
   viewBox="0 0 463 327"
   xml:space="preserve"
   style="fill:#000000"><metadata
   id="metadata17"><rdf:RDF><cc:Work
       rdf:about=""><dc:format>image/svg+xml</dc:format><dc:type
         rdf:resource="http://purl.org/dc/dcmitype/StillImage" /><dc:title></dc:title></cc:Work></rdf:RDF></metadata><defs
   id="defs15" />
<g
   id="g10"
   transform="translate(0,-68)">
	<g
   id="g8">
		<g
   id="g6">
			<path
   d="M 455.5,348 H 447 V 99.5 C 447,82.131 432.869,68 415.5,68 H 47.5 C 30.131,68 16,82.131 16,99.5 V 348 H 7.5 C 3.358,348 0,351.358 0,355.5 v 16 C 0,384.458 10.542,395 23.5,395 h 416 c 12.958,0 23.5,-10.542 23.5,-23.5 v -16 c 0,-4.142 -3.358,-7.5 -7.5,-7.5 z M 31,99.5 C 31,90.402 38.402,83 47.5,83 h 368 c 9.098,0 16.5,7.402 16.5,16.5 V 348 H 31 Z m 417,272 c 0,4.687 -3.813,8.5 -8.5,8.5 H 23.5 C 18.813,380 15,376.187 15,371.5 V 363 h 169.025 c -0.011,0.166 -0.025,0.331 -0.025,0.5 0,4.142 3.358,7.5 7.5,7.5 h 80 c 4.142,0 7.5,-3.358 7.5,-7.5 0,-0.169 -0.014,-0.334 -0.025,-0.5 H 448 Z"
   id="path2" />
			<path
   d="m 407.5,100 h -352 c -4.142,0 -7.5,3.358 -7.5,7.5 v 216 c 0,4.142 3.358,7.5 7.5,7.5 h 352 c 4.142,0 7.5,-3.358 7.5,-7.5 v -216 c 0,-4.142 -3.358,-7.5 -7.5,-7.5 z M 400,316 H 63 V 115 h 337 z"
   id="path4" />
		</g>
	</g>
</g>
<path
   style="fill:#b3b3b3;stroke-width:1.96186447"
   d="M 32.230969,151.16243 32.763135,23.467247 37.394674,19.71752 c 4.488254,-3.633722 10.478325,-3.749721 193.624706,-3.749721 h 188.99317 l 5.50454,4.733915 5.50452,4.73392 0.54583,126.710996 0.54585,126.71099 H 231.90605 31.698802 Z M 413.95339,260.80847 c 3.39822,-3.39822 3.39822,-223.393296 0,-226.791519 -3.41301,-3.413027 -360.70901,-3.413027 -364.122034,0 -3.398224,3.398223 -3.398224,223.393299 0,226.791519 3.413024,3.41302 360.709024,3.41302 364.122034,0 z"
   id="path3722" /><path
   style="fill:#b3b3b3;stroke-width:1.96186447"
   d="m 17.395198,308.93955 c -0.719351,-0.71935 -1.30791,-3.80929 -1.30791,-6.86653 v -5.55861 H 99.03052 c 80.51545,0 83.04157,0.11484 86.30283,3.92373 3.17064,3.70303 5.78738,3.92372 46.5232,3.92372 41.03889,0 43.2842,-0.19314 45.614,-3.92372 2.38835,-3.82436 4.57512,-3.92373 86.33866,-3.92373 h 83.88825 v 4.51229 c 0,2.48175 -1.05941,5.57169 -2.35424,6.86652 -1.80205,1.80205 -52.11293,2.35424 -214.49717,2.35424 -116.67862,0 -212.731502,-0.58856 -213.450852,-1.30791 z"
   id="path3724" /><path
   style="fill:#333333;stroke-width:0.49046612"
   d="M 63.417266,147.46176 V 47.16144 H 231.64714 399.87701 V 147.46176 247.76208 H 231.64714 63.417266 Z"
   id="path3728" /><flowRoot
   xml:space="preserve"
   id="flowRoot3730"
   style="font-style:normal;font-variant:normal;font-weight:normal;font-stretch:normal;font-size:40px;line-height:1.25;font-family:sans-serif;-inkscape-font-specification:sans-serif;letter-spacing:0px;word-spacing:0px;fill:#00ff00;fill-opacity:1;stroke:none"
   transform="matrix(0.57875,0,0,0.57875,0,-68)"><flowRegion
     id="flowRegion3732"
     style="fill:#00ff00"><rect
       id="rect3734"
       width="561.86438"
       height="327.11865"
       x="122.88136"
       y="211.01695"
       style="fill:#00ff00" /></flowRegion><flowPara
     id="flowPara3736" /></flowRoot><text
   xml:space="preserve"
   style="font-style:normal;font-variant:normal;font-weight:normal;font-stretch:normal;font-size:24.74905586px;line-height:1.25;font-family:sans-serif;-inkscape-font-specification:sans-serif;letter-spacing:0px;word-spacing:0px;fill:#000000;fill-opacity:1;stroke:none;stroke-width:0.61872637"
   x="71.116989"
   y="72.50856"
   id="text68"
   transform="scale(0.97242734,1.0283545)"><tspan
     x="71.116989"
     y="72.50856"
     id="tspan40"
     style="stroke-width:0.61872637"><tspan
       x="71.116989"
       y="72.50856"
       style="fill:#00ff00;stroke-width:0.61872637"
       id="tspan36">$</tspan><tspan
       dx="0"
       x="86.875175"
       y="72.50856"
       style="fill:#00ff00;stroke-width:0.61872637"
       id="tspan38" /></tspan><tspan
     x="71.116989"
     y="103.44488"
     id="tspan44"
     style="stroke-width:0.61872637"><tspan
       x="71.116989"
       y="103.44489"
       style="fill:#00ff00;stroke-width:0.61872637"
       id="tspan42" /></tspan><tspan
     x="71.116989"
     y="134.38121"
     id="tspan50"
     style="stroke-width:0.61872637"><tspan
       x="71.116989"
       y="134.38121"
       style="fill:#00ff00;stroke-width:0.61872637"
       id="tspan46">           SYSADMINS</tspan><tspan
       dx="0"
       x="318.41418"
       y="134.38121"
       style="fill:#00ff00;stroke-width:0.61872637"
       id="tspan48" /></tspan><tspan
     x="71.116989"
     y="165.31754"
     id="tspan54"
     style="stroke-width:0.61872637"><tspan
       x="71.116989"
       y="165.31754"
       style="fill:#00ff00;stroke-width:0.61872637"
       id="tspan52" /></tspan><tspan
     x="71.116989"
     y="196.25385"
     id="tspan60"
     style="stroke-width:0.61872637"><tspan
       x="71.116989"
       y="196.25385"
       style="fill:#00ff00;stroke-width:0.61872637"
       id="tspan56">  Because even developers</tspan><tspan
       dx="0"
       x="403.19904"
       y="196.25385"
       style="fill:#00ff00;stroke-width:0.61872637"
       id="tspan58" /></tspan><tspan
     x="71.116989"
     y="227.19017"
     id="tspan66"
     style="stroke-width:0.61872637"><tspan
       dx="0 0 0 0 0 0 0 0 0 0 0 0 0 0"
       x="71.116989"
       y="227.19017"
       style="fill:#00ff00;stroke-width:0.61872637"
       id="tspan62">  need heroes</tspan></tspan></text>

</svg>