<?xml version="1.0" encoding="UTF-8" standalone="no"?>
<svg
   xmlns:dc="http://purl.org/dc/elements/1.1/"
   xmlns:cc="http://creativecommons.org/ns#"
   xmlns:rdf="http://www.w3.org/1999/02/22-rdf-syntax-ns#"
   xmlns:svg="http://www.w3.org/2000/svg"
   xmlns="http://www.w3.org/2000/svg"
   xmlns:sodipodi="http://sodipodi.sourceforge.net/DTD/sodipodi-0.dtd"
   xmlns:inkscape="http://www.inkscape.org/namespaces/inkscape"
   width="404.36832"
   height="52.202984"
   version="1.1"
   id="svg847"
   sodipodi:docname="systemd-light.svg"
   inkscape:version="0.92.3 (2405546, 2018-03-11)">
  <metadata
     id="metadata853">
    <rdf:RDF>
      <cc:Work
         rdf:about="">
        <dc:format>image/svg+xml</dc:format>
        <dc:type
           rdf:resource="http://purl.org/dc/dcmitype/StillImage" />
        <dc:title></dc:title>
      </cc:Work>
    </rdf:RDF>
  </metadata>
  <defs
     id="defs851" />
  <sodipodi:namedview
     pagecolor="#ffffff"
     bordercolor="#666666"
     borderopacity="1"
     objecttolerance="10"
     gridtolerance="10"
     guidetolerance="10"
     inkscape:pageopacity="0"
     inkscape:pageshadow="2"
     inkscape:window-width="2400"
     inkscape:window-height="1271"
     id="namedview849"
     showgrid="false"
     inkscape:zoom="4.04"
     inkscape:cx="197.48515"
     inkscape:cy="19.101492"
     inkscape:window-x="4791"
     inkscape:window-y="-9"
     inkscape:window-maximized="1"
     inkscape:current-layer="svg847" />
  <g
     id="g864"
     transform="scale(2.007807)">
    <path
       style="color:#000000;font-weight:400;line-height:normal;font-family:sans-serif;font-variant-ligatures:normal;font-variant-position:normal;font-variant-caps:normal;font-variant-numeric:normal;font-variant-alternates:normal;font-feature-settings:normal;text-indent:0;text-align:start;text-decoration:none;text-decoration-line:none;text-decoration-style:solid;text-decoration-color:#000000;text-transform:none;text-orientation:mixed;white-space:normal;shape-padding:0;overflow:visible;isolation:auto;mix-blend-mode:normal;solid-color:#000000;solid-opacity:1;fill:#201a26"
       d="M 0,0 V 26 H 10 V 22 H 4 V 4 h 6 V 0 Z m 76,0 v 4 h 6 v 18 h -6 v 4 H 86 V 0 Z"
       font-weight="400"
       overflow="visible"
       id="path837"
       inkscape:connector-curvature="0" />
    <path
       d="m 113.498,14.926 q -4.5,-0.96 -4.5,-3.878 0,-1.079 0.609,-1.981 0.621,-0.902 1.781,-1.441 1.16,-0.54 2.707,-0.54 1.63,0 2.848,0.528 1.219,0.516 1.875,1.453 0.656,0.926 0.656,2.121 h -3.539 q 0,-0.762 -0.457,-1.183 -0.457,-0.434 -1.394,-0.434 -0.774,0 -1.243,0.363 -0.457,0.364 -0.457,0.938 0,0.55 0.516,0.89 0.527,0.34 1.781,0.575 1.5,0.28 2.543,0.738 1.043,0.445 1.653,1.242 0.62,0.797 0.62,2.027 0,1.114 -0.667,2.004 -0.657,0.88 -1.887,1.383 -1.219,0.504 -2.836,0.504 -1.711,0 -2.965,-0.621 -1.242,-0.633 -1.898,-1.617 -0.645,-0.985 -0.645,-2.051 h 3.34 q 0.036,0.914 0.656,1.36 0.621,0.433 1.594,0.433 0.902,0 1.383,-0.34 0.492,-0.351 0.492,-0.937 0,-0.364 -0.223,-0.61 -0.21,-0.258 -0.773,-0.48 -0.55,-0.223 -1.57,-0.446 z M 132.882,7.32 127.796,21.9 q -0.293,0.831 -0.726,1.523 -0.434,0.703 -1.266,1.195 -0.832,0.504 -2.098,0.504 -0.457,0 -0.75,-0.048 -0.281,-0.046 -0.785,-0.176 v -2.672 q 0.176,0.02 0.527,0.02 0.95,0 1.418,-0.293 0.47,-0.293 0.715,-0.961 l 0.352,-0.926 -4.43,-12.738 h 3.797 l 2.262,7.687 2.285,-7.687 z m 5.884,7.606 q -4.5,-0.96 -4.5,-3.878 0,-1.079 0.61,-1.981 0.62,-0.902 1.781,-1.441 1.16,-0.54 2.707,-0.54 1.629,0 2.848,0.528 1.218,0.516 1.875,1.453 0.656,0.926 0.656,2.121 h -3.539 q 0,-0.762 -0.457,-1.183 -0.457,-0.434 -1.395,-0.434 -0.773,0 -1.242,0.363 -0.457,0.364 -0.457,0.938 0,0.55 0.516,0.89 0.527,0.34 1.781,0.575 1.5,0.28 2.543,0.738 1.043,0.445 1.652,1.242 0.621,0.797 0.621,2.027 0,1.114 -0.668,2.004 -0.656,0.88 -1.886,1.383 -1.219,0.504 -2.836,0.504 -1.711,0 -2.965,-0.621 -1.242,-0.633 -1.899,-1.617 -0.644,-0.985 -0.644,-2.051 h 3.34 q 0.036,0.914 0.656,1.36 0.621,0.433 1.594,0.433 0.902,0 1.383,-0.34 0.492,-0.351 0.492,-0.937 0,-0.364 -0.223,-0.61 -0.21,-0.258 -0.773,-0.48 -0.551,-0.223 -1.57,-0.446 z m 13.983,2.403 q 0.574,0 0.984,-0.082 v 2.66 q -0.914,0.328 -2.086,0.328 -3.727,0 -3.727,-3.797 V 9.899 h -1.793 V 7.321 h 1.793 v -3.14 h 3.54 v 3.14 h 2.132 v 2.578 h -2.133 v 6.129 q 0,0.75 0.293,1.031 0.293,0.27 0.997,0.27 z m 14.228,-2.519 h -8.016 q 0.2,1.183 0.985,1.886 0.785,0.691 2.015,0.691 0.914,0 1.688,-0.34 0.785,-0.351 1.336,-1.042 l 1.699,1.957 q -0.668,0.96 -1.957,1.617 -1.278,0.656 -3,0.656 -1.946,0 -3.387,-0.82 -1.43,-0.82 -2.203,-2.227 -0.762,-1.406 -0.762,-3.105 v -0.446 q 0,-1.898 0.715,-3.386 0.715,-1.489 2.063,-2.32 1.347,-0.844 3.187,-0.844 1.793,0 3.059,0.761 1.265,0.762 1.922,2.168 0.656,1.395 0.656,3.293 z m -3.469,-2.65 q -0.024,-1.03 -0.574,-1.628 -0.54,-0.598 -1.617,-0.598 -1.008,0 -1.582,0.668 -0.563,0.668 -0.739,1.84 h 4.512 z m 19.923,-5.073 q 1.934,0 2.989,1.148 1.054,1.148 1.054,3.727 v 8.039 h -3.539 V 11.95 q 0,-0.797 -0.21,-1.23 -0.212,-0.446 -0.61,-0.61 -0.387,-0.164 -0.984,-0.164 -0.715,0 -1.219,0.352 -0.504,0.34 -0.797,0.972 0.02,0.082 0.02,0.27 V 20 h -3.54 v -8.015 q 0,-0.797 -0.21,-1.242 -0.211,-0.445 -0.61,-0.621 -0.386,-0.176 -0.996,-0.176 -0.68,0 -1.183,0.304 -0.492,0.293 -0.797,0.844 V 20 H 169.26 V 7.32 h 3.316 l 0.118,1.419 q 0.633,-0.797 1.547,-1.22 0.926,-0.433 2.086,-0.433 1.172,0 2.016,0.48 0.855,0.47 1.312,1.442 0.633,-0.926 1.582,-1.418 0.961,-0.504 2.203,-0.504 z M 201.398,2 v 18 h -3.187 l -0.176,-1.359 q -1.243,1.594 -3.212,1.594 -1.535,0 -2.66,-0.82 -1.113,-0.832 -1.699,-2.285 -0.574,-1.454 -0.574,-3.317 v -0.246 q 0,-1.934 0.574,-3.398 0.586,-1.465 1.7,-2.274 1.124,-0.808 2.683,-0.808 1.805,0 3.012,1.37 V 2.001 Z m -5.672,15.376 q 1.488,0 2.133,-1.266 v -4.898 q -0.61,-1.266 -2.11,-1.266 -1.207,0 -1.77,0.984 -0.55,0.985 -0.55,2.637 v 0.246 q 0,1.629 0.54,2.602 0.55,0.96 1.757,0.96 z"
       style="font-weight:700;font-size:12px;line-height:1.25;font-family:Heebo;-inkscape-font-specification:'Heebo Bold';text-align:start;letter-spacing:0.2;word-spacing:0;fill:#201a26"
       font-weight="700"
       font-size="12"
       letter-spacing=".2"
       word-spacing="0"
       id="path839"
       inkscape:connector-curvature="0" />
    <path
       d="M 45,13 63,3 v 20 z"
       id="path841"
       inkscape:connector-curvature="0"
       style="fill:#30d475" />
    <circle
       r="9"
       cy="13.001022"
       cx="30.000999"
       id="circle843"
       style="fill:#30d475" />
  </g>
</svg>
