<?xml version="1.0" encoding="UTF-8" standalone="no"?>
<!-- Created with Inkscape (http://www.inkscape.org/) -->

<svg
   xmlns:dc="http://purl.org/dc/elements/1.1/"
   xmlns:cc="http://creativecommons.org/ns#"
   xmlns:rdf="http://www.w3.org/1999/02/22-rdf-syntax-ns#"
   xmlns:svg="http://www.w3.org/2000/svg"
   xmlns="http://www.w3.org/2000/svg"
   xmlns:sodipodi="http://sodipodi.sourceforge.net/DTD/sodipodi-0.dtd"
   xmlns:inkscape="http://www.inkscape.org/namespaces/inkscape"
   version="1.1"
   id="svg1365"
   xml:space="preserve"
   width="666.66669"
   height="666.66669"
   viewBox="0 0 666.66669 666.66669"
   sodipodi:docname="abstract-background-gear-publicdomainvectors.org.svg"
   inkscape:version="0.92.4 (5da689c313, 2019-01-14)"><metadata
     id="metadata1371"><rdf:RDF><cc:Work
         rdf:about=""><dc:format>image/svg+xml</dc:format><dc:type
           rdf:resource="http://purl.org/dc/dcmitype/StillImage" /><dc:title></dc:title></cc:Work></rdf:RDF></metadata><defs
     id="defs1369"><clipPath
       clipPathUnits="userSpaceOnUse"
       id="clipPath1381"><path
         d="M 0,500 H 500 V 0 H 0 Z"
         id="path1379"
         inkscape:connector-curvature="0" /></clipPath></defs><sodipodi:namedview
     pagecolor="#ffffff"
     bordercolor="#666666"
     borderopacity="1"
     objecttolerance="10"
     gridtolerance="10"
     guidetolerance="10"
     inkscape:pageopacity="0"
     inkscape:pageshadow="2"
     inkscape:window-width="1920"
     inkscape:window-height="1018"
     id="namedview1367"
     showgrid="false"
     inkscape:zoom="1.2735"
     inkscape:cx="333.33334"
     inkscape:cy="333.33334"
     inkscape:window-x="-8"
     inkscape:window-y="-8"
     inkscape:window-maximized="1"
     inkscape:current-layer="g1373" /><g
     id="g1373"
     inkscape:groupmode="layer"
     inkscape:label="abstract-background-gear-publicdomainvectors.org"
     transform="matrix(1.3333333,0,0,-1.3333333,0,666.66667)"><g
       id="g1375"><g
         id="g1377"
         clip-path="url(#clipPath1381)"><path
           d="M 500,0 H 0 v 500 h 500 z"
           style="fill:#105b63;fill-opacity:1;fill-rule:nonzero;stroke:none"
           id="path1383"
           inkscape:connector-curvature="0" /><path
           d="m 353.417,171.855 c -15.92,0 -28.825,12.906 -28.825,28.826 0,15.92 12.905,28.825 28.825,28.825 15.92,0 28.825,-12.905 28.825,-28.825 0,-15.92 -12.905,-28.826 -28.825,-28.826 m 0,76.267 c -26.201,0 -47.441,-21.24 -47.441,-47.441 0,-26.202 21.24,-47.442 47.441,-47.442 26.201,0 47.441,21.24 47.441,47.442 0,26.201 -21.24,47.441 -47.441,47.441"
           style="fill:#fffad5;fill-opacity:1;fill-rule:nonzero;stroke:none"
           id="path1385"
           inkscape:connector-curvature="0" /><path
           d="m 367.291,239.715 h -27.748 l 3.465,24.02 h 20.818 z"
           style="fill:#fffad5;fill-opacity:1;fill-rule:nonzero;stroke:none"
           id="path1387"
           inkscape:connector-curvature="0" /><path
           d="m 335.627,238.093 -19.621,-19.622 -14.535,19.436 14.72,14.72 z"
           style="fill:#fffad5;fill-opacity:1;fill-rule:nonzero;stroke:none"
           id="path1389"
           inkscape:connector-curvature="0" /><path
           d="m 314.383,214.555 v -27.748 l -24.021,3.464 v 20.819 z"
           style="fill:#fffad5;fill-opacity:1;fill-rule:nonzero;stroke:none"
           id="path1391"
           inkscape:connector-curvature="0" /><path
           d="m 316.006,182.891 19.621,-19.622 -19.436,-14.535 -14.72,14.72 z"
           style="fill:#fffad5;fill-opacity:1;fill-rule:nonzero;stroke:none"
           id="path1393"
           inkscape:connector-curvature="0" /><path
           d="m 339.543,161.646 h 27.748 l -3.465,-24.02 h -20.818 z"
           style="fill:#fffad5;fill-opacity:1;fill-rule:nonzero;stroke:none"
           id="path1395"
           inkscape:connector-curvature="0" /><path
           d="m 371.207,163.269 19.622,19.622 14.534,-19.437 -14.719,-14.72 z"
           style="fill:#fffad5;fill-opacity:1;fill-rule:nonzero;stroke:none"
           id="path1397"
           inkscape:connector-curvature="0" /><path
           d="m 392.451,186.807 v 27.748 l 24.021,-3.465 v -20.819 z"
           style="fill:#fffad5;fill-opacity:1;fill-rule:nonzero;stroke:none"
           id="path1399"
           inkscape:connector-curvature="0" /><path
           d="m 390.829,218.471 -19.622,19.622 19.437,14.534 14.719,-14.72 z"
           style="fill:#fffad5;fill-opacity:1;fill-rule:nonzero;stroke:none"
           id="path1401"
           inkscape:connector-curvature="0" /><path
           d="m 334.39,263.346 c 0,-52.835 -42.831,-95.667 -95.666,-95.667 -52.836,0 -95.667,42.832 -95.667,95.667 0,52.835 42.831,95.666 95.667,95.666 52.835,0 95.666,-42.831 95.666,-95.666"
           style="fill:#ffffff;fill-opacity:1;fill-rule:nonzero;stroke:none"
           id="path1403"
           inkscape:connector-curvature="0" /><path
           d="m 238.724,351.513 c -48.616,0 -88.167,-39.552 -88.167,-88.167 0,-48.616 39.551,-88.167 88.167,-88.167 48.614,0 88.166,39.551 88.166,88.167 0,48.615 -39.552,88.167 -88.166,88.167 m 0,-191.334 c -56.887,0 -103.167,46.28 -103.167,103.167 0,56.886 46.28,103.167 103.167,103.167 56.886,0 103.166,-46.281 103.166,-103.167 0,-56.887 -46.28,-103.167 -103.166,-103.167"
           style="fill:#bb2a19;fill-opacity:1;fill-rule:nonzero;stroke:none"
           id="path1405"
           inkscape:connector-curvature="0" /><path
           d="m 238.724,318.524 c -30.426,0 -55.179,-24.753 -55.179,-55.178 0,-30.425 24.753,-55.178 55.179,-55.178 30.424,0 55.176,24.753 55.176,55.178 0,30.425 -24.752,55.178 -55.176,55.178 m 0,-125.356 c -38.697,0 -70.179,31.481 -70.179,70.178 0,38.696 31.482,70.178 70.179,70.178 38.695,0 70.176,-31.482 70.176,-70.178 0,-38.697 -31.481,-70.178 -70.176,-70.178"
           style="fill:#bb2a19;fill-opacity:1;fill-rule:nonzero;stroke:none"
           id="path1407"
           inkscape:connector-curvature="0" /><path
           d="m 238.724,285.535 c -12.236,0 -22.19,-9.954 -22.19,-22.189 0,-12.236 9.954,-22.19 22.19,-22.19 12.234,0 22.188,9.954 22.188,22.19 0,12.235 -9.954,22.189 -22.188,22.189 m 0,-59.379 c -20.507,0 -37.19,16.684 -37.19,37.19 0,20.506 16.683,37.189 37.19,37.189 20.506,0 37.188,-16.683 37.188,-37.189 0,-20.506 -16.682,-37.19 -37.188,-37.19"
           style="fill:#bb2a19;fill-opacity:1;fill-rule:nonzero;stroke:none"
           id="path1409"
           inkscape:connector-curvature="0" /><path
           d="m 238.724,255.013 c -4.596,0 -8.334,3.737 -8.334,8.333 0,4.594 3.738,8.333 8.334,8.333 4.594,0 8.333,-3.739 8.333,-8.333 0,-4.596 -3.739,-8.333 -8.333,-8.333"
           style="fill:#bb2a19;fill-opacity:1;fill-rule:nonzero;stroke:none"
           id="path1411"
           inkscape:connector-curvature="0" /><path
           d="M 338.868,351.946 238.129,267.415 c -0.914,-0.767 -1.033,-2.129 -0.267,-3.043 l 1.722,-2.053 c 0.768,-0.914 2.13,-1.033 3.044,-0.266 l 100.74,84.53 z"
           style="fill:#193441;fill-opacity:1;fill-rule:nonzero;stroke:none"
           id="path1413"
           inkscape:connector-curvature="0" /><path
           d="m 341.118,349.265 -15.831,-13.285 14.517,-1.743 15.831,13.284 z"
           style="fill:#193441;fill-opacity:1;fill-rule:nonzero;stroke:none"
           id="path1415"
           inkscape:connector-curvature="0" /><path
           d="m 341.118,349.265 -15.831,-13.285 0.804,14.6 15.831,13.284 z"
           style="fill:#193441;fill-opacity:1;fill-rule:nonzero;stroke:none"
           id="path1417"
           inkscape:connector-curvature="0" /><path
           d="m 155.724,126.679 h -75 v 103.5 h 75 z"
           style="fill:#fffad5;fill-opacity:1;fill-rule:nonzero;stroke:none"
           id="path1419"
           inkscape:connector-curvature="0" /><path
           d="m 147.557,212.679 h -29.333 v 3.834 h 29.333 z"
           style="fill:#3e606f;fill-opacity:1;fill-rule:nonzero;stroke:none"
           id="path1421"
           inkscape:connector-curvature="0" /><path
           d="m 147.557,202.346 h -29.333 v 3.833 h 29.333 z"
           style="fill:#3e606f;fill-opacity:1;fill-rule:nonzero;stroke:none"
           id="path1423"
           inkscape:connector-curvature="0" /><path
           d="M 147.557,192.013 H 88.89 v 3.833 h 58.667 z"
           style="fill:#3e606f;fill-opacity:1;fill-rule:nonzero;stroke:none"
           id="path1425"
           inkscape:connector-curvature="0" /><path
           d="M 147.557,181.679 H 88.89 v 3.834 h 58.667 z"
           style="fill:#3e606f;fill-opacity:1;fill-rule:nonzero;stroke:none"
           id="path1427"
           inkscape:connector-curvature="0" /><path
           d="M 147.557,171.346 H 88.89 v 3.833 h 58.667 z"
           style="fill:#3e606f;fill-opacity:1;fill-rule:nonzero;stroke:none"
           id="path1429"
           inkscape:connector-curvature="0" /><path
           d="M 147.557,161.013 H 88.89 v 3.833 h 58.667 z"
           style="fill:#3e606f;fill-opacity:1;fill-rule:nonzero;stroke:none"
           id="path1431"
           inkscape:connector-curvature="0" /><path
           d="M 147.557,150.679 H 88.89 v 3.834 h 58.667 z"
           style="fill:#3e606f;fill-opacity:1;fill-rule:nonzero;stroke:none"
           id="path1433"
           inkscape:connector-curvature="0" /><path
           d="M 147.557,140.346 H 88.89 v 3.833 h 58.667 z"
           style="fill:#3e606f;fill-opacity:1;fill-rule:nonzero;stroke:none"
           id="path1435"
           inkscape:connector-curvature="0" /><path
           d="m 113.724,202.346 h -23 v 14.167 h 23 z"
           style="fill:#bb2a19;fill-opacity:1;fill-rule:nonzero;stroke:none"
           id="path1437"
           inkscape:connector-curvature="0" /><path
           d="m 238.288,98.629 c -11.572,0 -20.953,9.38 -20.953,20.952 0,11.571 9.381,20.952 20.953,20.952 11.571,0 20.952,-9.381 20.952,-20.952 0,-11.572 -9.381,-20.952 -20.952,-20.952 m 0,55.435 c -19.045,0 -34.484,-15.438 -34.484,-34.483 0,-19.045 15.439,-34.484 34.484,-34.484 19.045,0 34.483,15.439 34.483,34.484 0,19.045 -15.438,34.483 -34.483,34.483"
           style="fill:#193441;fill-opacity:1;fill-rule:nonzero;stroke:none"
           id="path1439"
           inkscape:connector-curvature="0" /><path
           d="m 248.373,147.954 h -20.17 l 2.519,17.46 h 15.132 z"
           style="fill:#193441;fill-opacity:1;fill-rule:nonzero;stroke:none"
           id="path1441"
           inkscape:connector-curvature="0" /><path
           d="m 225.356,146.774 -14.262,-14.261 -10.566,14.127 10.701,10.7 z"
           style="fill:#193441;fill-opacity:1;fill-rule:nonzero;stroke:none"
           id="path1443"
           inkscape:connector-curvature="0" /><path
           d="m 209.915,129.666 v -20.17 l -17.461,2.519 v 15.131 z"
           style="fill:#193441;fill-opacity:1;fill-rule:nonzero;stroke:none"
           id="path1445"
           inkscape:connector-curvature="0" /><path
           d="m 211.094,106.649 14.262,-14.262 -14.127,-10.566 -10.701,10.7 z"
           style="fill:#193441;fill-opacity:1;fill-rule:nonzero;stroke:none"
           id="path1447"
           inkscape:connector-curvature="0" /><path
           d="m 228.203,91.208 h 20.17 l -2.519,-17.461 h -15.132 z"
           style="fill:#193441;fill-opacity:1;fill-rule:nonzero;stroke:none"
           id="path1449"
           inkscape:connector-curvature="0" /><path
           d="m 251.219,92.387 14.262,14.262 10.566,-14.128 -10.7,-10.7 z"
           style="fill:#193441;fill-opacity:1;fill-rule:nonzero;stroke:none"
           id="path1451"
           inkscape:connector-curvature="0" /><path
           d="m 266.66,109.496 v 20.17 l 17.461,-2.52 v -15.131 z"
           style="fill:#193441;fill-opacity:1;fill-rule:nonzero;stroke:none"
           id="path1453"
           inkscape:connector-curvature="0" /><path
           d="m 265.481,132.513 -14.262,14.261 14.128,10.566 10.7,-10.7 z"
           style="fill:#193441;fill-opacity:1;fill-rule:nonzero;stroke:none"
           id="path1455"
           inkscape:connector-curvature="0" /><path
           d="m 305.976,394.307 c -13.339,-1.655 -14.681,-2.996 -16.336,-16.336 -1.655,13.34 -2.996,14.681 -16.336,16.336 13.34,1.655 14.681,2.996 16.336,16.336 1.655,-13.34 2.997,-14.681 16.336,-16.336"
           style="fill:#ffffff;fill-opacity:1;fill-rule:nonzero;stroke:none"
           id="path1457"
           inkscape:connector-curvature="0" /><path
           d="m 459.569,434.304 c -7.495,-0.93 -8.249,-1.684 -9.179,-9.179 -0.93,7.495 -1.684,8.249 -9.179,9.179 7.495,0.93 8.249,1.684 9.179,9.179 0.93,-7.495 1.684,-8.249 9.179,-9.179"
           style="fill:#136e78;fill-opacity:1;fill-rule:nonzero;stroke:none"
           id="path1459"
           inkscape:connector-curvature="0" /><path
           d="m 150.193,75.617 c -10.812,-1.342 -11.899,-2.429 -13.241,-13.241 -1.341,10.812 -2.429,11.899 -13.241,13.241 10.812,1.341 11.9,2.429 13.241,13.241 1.342,-10.812 2.429,-11.9 13.241,-13.241"
           style="fill:#ffffff;fill-opacity:1;fill-rule:nonzero;stroke:none"
           id="path1461"
           inkscape:connector-curvature="0" /><path
           d="m 374.069,71.105 c -17.941,-2.225 -19.745,-4.03 -21.971,-21.971 -2.226,17.941 -4.031,19.746 -21.971,21.971 17.94,2.226 19.745,4.031 21.971,21.972 2.226,-17.941 4.03,-19.746 21.971,-21.972"
           style="fill:#ffffff;fill-opacity:1;fill-rule:nonzero;stroke:none"
           id="path1463"
           inkscape:connector-curvature="0" /><path
           d="m 387.295,104.56 c -8.566,-1.063 -9.428,-1.924 -10.49,-10.491 -1.063,8.567 -1.925,9.428 -10.491,10.491 8.566,1.063 9.428,1.924 10.491,10.49 1.062,-8.566 1.924,-9.427 10.49,-10.49"
           style="fill:#ffffff;fill-opacity:1;fill-rule:nonzero;stroke:none"
           id="path1465"
           inkscape:connector-curvature="0" /><path
           d="m 435.722,49.134 c -8.566,-1.063 -9.428,-1.924 -10.491,-10.49 -1.062,8.566 -1.923,9.427 -10.49,10.49 8.567,1.063 9.428,1.925 10.49,10.49 1.063,-8.565 1.925,-9.427 10.491,-10.49"
           style="fill:#136e78;fill-opacity:1;fill-rule:nonzero;stroke:none"
           id="path1467"
           inkscape:connector-curvature="0" /><path
           d="m 92.297,263.165 c -17.469,-2.167 -19.226,-3.924 -21.394,-21.394 -2.167,17.47 -3.924,19.227 -21.393,21.394 17.469,2.167 19.226,3.924 21.393,21.394 2.168,-17.47 3.925,-19.227 21.394,-21.394"
           style="fill:#ffffff;fill-opacity:1;fill-rule:nonzero;stroke:none"
           id="path1469"
           inkscape:connector-curvature="0" /><path
           d="m 58.589,299.441 c -7.414,-0.92 -8.159,-1.666 -9.079,-9.079 -0.92,7.413 -1.665,8.159 -9.079,9.079 7.414,0.92 8.159,1.665 9.079,9.079 0.92,-7.414 1.665,-8.159 9.079,-9.079"
           style="fill:#ffffff;fill-opacity:1;fill-rule:nonzero;stroke:none"
           id="path1471"
           inkscape:connector-curvature="0" /><path
           d="m 414.741,295.602 c 0,-6.156 -4.99,-11.146 -11.145,-11.146 -6.156,0 -11.145,4.99 -11.145,11.146 0,6.155 4.989,11.145 11.145,11.145 6.155,0 11.145,-4.99 11.145,-11.145"
           style="fill:#136e78;fill-opacity:1;fill-rule:nonzero;stroke:none"
           id="path1473"
           inkscape:connector-curvature="0" /><path
           d="m 90.015,77.914 c 0,-3.388 -2.746,-6.135 -6.135,-6.135 -3.388,0 -6.135,2.747 -6.135,6.135 0,3.389 2.747,6.136 6.135,6.136 3.389,0 6.135,-2.747 6.135,-6.136"
           style="fill:#136e78;fill-opacity:1;fill-rule:nonzero;stroke:none"
           id="path1475"
           inkscape:connector-curvature="0" /><path
           d="m 429.552,369.714 c 0,-7.923 -6.423,-14.347 -14.347,-14.347 -7.924,0 -14.347,6.424 -14.347,14.347 0,7.924 6.423,14.347 14.347,14.347 7.924,0 14.347,-6.423 14.347,-14.347"
           style="fill:#193441;fill-opacity:1;fill-rule:nonzero;stroke:none"
           id="path1477"
           inkscape:connector-curvature="0" /><path
           d="m 379.61,398.129 h -52.386 c -11.215,0 -20.307,9.092 -20.307,20.307 v 22.613 c 0,11.216 9.092,20.307 20.307,20.307 h 52.386 c 11.215,0 20.307,-9.091 20.307,-20.307 v -22.613 c 0,-11.215 -9.092,-20.307 -20.307,-20.307"
           style="fill:#136e78;fill-opacity:1;fill-rule:nonzero;stroke:none"
           id="path1479"
           inkscape:connector-curvature="0" /><path
           d="m 336.902,427.566 c 0,-4.138 -3.354,-7.492 -7.493,-7.492 -4.138,0 -7.492,3.354 -7.492,7.492 0,4.138 3.354,7.493 7.492,7.493 4.139,0 7.493,-3.355 7.493,-7.493"
           style="fill:#fffad5;fill-opacity:1;fill-rule:nonzero;stroke:none"
           id="path1481"
           inkscape:connector-curvature="0" /><path
           d="m 360.909,427.566 c 0,-4.138 -3.354,-7.492 -7.492,-7.492 -4.138,0 -7.492,3.354 -7.492,7.492 0,4.138 3.354,7.493 7.492,7.493 4.138,0 7.492,-3.355 7.492,-7.493"
           style="fill:#fffad5;fill-opacity:1;fill-rule:nonzero;stroke:none"
           id="path1483"
           inkscape:connector-curvature="0" /><path
           d="m 384.917,427.566 c 0,-4.138 -3.354,-7.492 -7.492,-7.492 -4.138,0 -7.492,3.354 -7.492,7.492 0,4.138 3.354,7.493 7.492,7.493 4.138,0 7.492,-3.355 7.492,-7.493"
           style="fill:#fffad5;fill-opacity:1;fill-rule:nonzero;stroke:none"
           id="path1485"
           inkscape:connector-curvature="0" /><path
           d="m 353.417,399.877 27.5,-27.883 v 33.733 z"
           style="fill:#136e78;fill-opacity:1;fill-rule:nonzero;stroke:none"
           id="path1487"
           inkscape:connector-curvature="0" /></g></g></g></svg>