<?xml version="1.0" encoding="UTF-8" standalone="no"?>
<svg
   xmlns:dc="http://purl.org/dc/elements/1.1/"
   xmlns:cc="http://creativecommons.org/ns#"
   xmlns:rdf="http://www.w3.org/1999/02/22-rdf-syntax-ns#"
   xmlns:svg="http://www.w3.org/2000/svg"
   xmlns="http://www.w3.org/2000/svg"
   xmlns:sodipodi="http://sodipodi.sourceforge.net/DTD/sodipodi-0.dtd"
   xmlns:inkscape="http://www.inkscape.org/namespaces/inkscape"
   xml:space="preserve"
   height="75.868362"
   viewBox="0 0 169.94713 75.868131"
   width="169.94344"
   version="1.1"
   id="svg14"
   sodipodi:docname="njit_logo.svg"
   inkscape:version="0.92.3 (2405546, 2018-03-11)"><metadata
     id="metadata20"><rdf:RDF><cc:Work
         rdf:about=""><dc:format>image/svg+xml</dc:format><dc:type
           rdf:resource="http://purl.org/dc/dcmitype/StillImage" /><dc:title></dc:title></cc:Work></rdf:RDF></metadata><defs
     id="defs18" /><sodipodi:namedview
     pagecolor="#ffffff"
     bordercolor="#666666"
     borderopacity="1"
     objecttolerance="10"
     gridtolerance="10"
     guidetolerance="10"
     inkscape:pageopacity="0"
     inkscape:pageshadow="2"
     inkscape:window-width="2400"
     inkscape:window-height="1421"
     id="namedview16"
     showgrid="false"
     inkscape:zoom="8.7798062"
     inkscape:cx="98.582954"
     inkscape:cy="36.08335"
     inkscape:window-x="-9"
     inkscape:window-y="-9"
     inkscape:window-maximized="1"
     inkscape:current-layer="svg14" /><path
     style="fill:#cc0000"
     inkscape:connector-curvature="0"
     id="path10"
     d="m 4.8802145,-2.2512876e-4 c -0.4327,0 -0.5644,0.61239999876 -0.5644,1.49020002876 l -0.3965,25.9240001 c -0.0436,3.81 -0.2193,5.078 -1.3574,5.431 -0.6111,0.173 -0.3722,0.215 -0.9414,0.215 -0.4364,0 -0.70309999,0.091 -0.70309999,0.353 0,0.392 0.39739999,0.438 0.96479999,0.438 2.2752,0 3.3085,-0.135 3.6992,-0.135 0.8338,0 1.5574,0.135 4.4025,0.135 0.6100005,0 1.0080005,-0.089 1.0080005,-0.438 0,-0.262 -0.264,-0.353 -0.746,-0.353 -0.6990005,0 -0.5050005,-0.041 -1.2500005,-0.307 -0.875,-0.305 -1.4423,-1.442 -1.5297,-4.859 l -0.4824,-18.3910001 h 0.1328 c 0.7862,0.8310001 5.6473005,6.3040001 10.4140005,11.0330001 4.551,4.508 10.154,10.249 12.908,12.877 0.482,0.482 1.011,0.963 1.49,0.963 0.393,0 0.572,-0.394 0.572,-1.357 l 0.481,-27.6330001 c 0.042,-2.4514 0.396,-3.3751 1.619,-3.7246 0.523,-0.1274 0.089,-0.0383 0.492,-0.1289 0.507,-0.1217 0.787,-0.1339 0.787,-0.3965 0,-0.34660003 -0.438,-0.39260003 -1.011,-0.39260003 -2.141,0 -2.982,0.1348 -3.461,0.1348 -0.921,0 -1.996,-0.1348 -4.272,-0.1348 -0.658,0 -1.138,0.046 -1.138,0.39260003 0,0.2626 0.175,0.3965 0.699,0.3965 0.613,0 0.638,6e-4 1.297,0.2617 1.047,0.4378 1.44,1.2654 1.484,3.9375 l 0.443,19.6660001 h -0.226 c -0.745,-0.697 -6.648,-7.007 -9.623,-9.987 C 13.680615,9.0636749 7.0256145,1.9276749 6.5006145,1.3546749 c -0.7449,-0.78600003 -1.1374,-1.35570003 -1.6207,-1.35570003 z M 123.84021,0.13257487 c -0.26,0 -0.39,0.263 -0.52,0.8281 -0.09,0.35320003 -0.93,4.33380003 -0.93,5.04100003 0,0.4764 0.09,0.6973 0.4,0.6973 0.26,0 0.39,-0.1759 0.48,-0.5234 0.09,-0.3543 0.31,-0.8823 0.74,-1.5352 0.66,-0.962 1.71,-1.1821 4.25,-1.2695 l 6.52,-0.1738 V 21.150075 c 0,4.028 0,8.006 -0.22,9.841 -0.13,1.274 -0.34,2.132 -1.27,2.413 -0.61,0.183 -1.82,0.183 -1.91,0.185 -72.533995,1.768 -131.50999549,41.911 -131.37999549415,42.102 0.12390000415,0.184 0.37580000415,0.235 0.56680000415,0.107 0.48699999,-0.322 49.92000049,-32.328 129.70999549,-38.299 24.29,-1.816 39.09,-2.372 39.24,-2.363 0.2,0.006 0.39,-0.133 0.43,-0.33 0.03,-0.171 -5.78,-1.489 -26.73,-1.393 -0.38,-0.032 -0.75,-0.075 -1.05,-0.117 -1.31,-0.171 -1.57,-1.136 -1.7,-2.363 -0.22,-1.88 -0.22,-5.755 -0.22,-9.783 V 3.1970749 l 5.51,0.1304 c 3.9,0.0888 5.08,1.3128 5.17,2.4531 l 0.04,0.4825 c 0.05,0.6543 0.14,0.875 0.49,0.875 0.26,0 0.34,-0.2649 0.39,-0.7032 0,-1.1422 0.13,-4.1598 0.13,-5.08 0,-0.65850003 -0.04,-0.92000003 -0.35,-0.92000003 -0.17,0 -0.52,0.0916 -1.18,0.2227 -0.66,0.0873 -1.62,0.2207 -3.02,0.2207 h -17.33 c -1.45,0 -3.11,-0.0878 -4.38,-0.2207 -1.09,-0.0874 -1.53,-0.5254 -1.88,-0.5254 z m -66.618995,0.6113 c -0.654,0 -0.965,0.0874 -0.965,0.39260003 0,0.3063 0.267,0.3965 0.746,0.3965 0.611,0 0.944,0.0433 1.299,0.1289 1.445,0.3071 1.382,1.0105 1.469,2.4961 0.087,1.4007 0.088,2.6257 0.088,9.2855001 v 12.57 c 0,8.583 0.044,12.963 -3.285,16.336 -0.872,0.871 -1.532,1.355 -2.098,1.662 -0.745,0.396 -0.963,0.569 -0.963,0.787 0,0.219 0.174,0.352 0.35,0.352 0.216,0 0.569,-0.088 0.877,-0.264 0.918,-0.434 1.619,-0.787 2.185,-1.141 4.201,-2.582 6.522,-5.601 7.442,-8.273 0.875,-2.453 1.052,-5.256 1.052,-7.754 0,-2.186 -0.132,-4.289 -0.132,-6.172 v -8.103 c 0,-6.6598001 0,-7.8848001 0.085,-9.2855001 0.089,-1.5311 0.234,-2.274 1.417,-2.4961 0.523,-0.0856 0.199,-0.082 0.859,-0.1289 0.523,-0.0441 0.785,-0.0902 0.785,-0.3965 0,-0.30520003 -0.305,-0.39260003 -0.918,-0.39260003 -1.706,0 -3.847,0.1348 -4.898,0.1348 -1.136,0 -3.074,-0.1348 -5.395,-0.1348 z m 33.697,0 c -0.696,0 -1.048,0.087 -1.048,0.34960003 0,0.3489 0.262,0.4395 0.703,0.4395 0.524,0 0.682,0.043 1.164,0.1699 0.964,0.226 1.196,0.9695 1.285,2.4551 0.084,1.4007 0.084,2.6257 0.084,9.2855001 v 7.707 c 0,4.247 10e-4,7.706 -0.217,9.545 -0.134,1.271 -0.19,2.018 -1.064,2.191 -0.398,0.089 -0.507,0.174 -1.166,0.174 -0.526,0 -0.7,0.134 -0.7,0.353 0,0.304 0.307,0.438 0.875,0.438 1.75,0 3.891,-0.135 4.899,-0.135 1.183,0 3.117,0.135 6.006995,0.135 0.48,0 0.83,-0.134 0.83,-0.438 0,-0.219 -0.22,-0.353 -0.7,-0.353 -0.66,0 -0.8,-0.085 -1.41,-0.174 -1.309995,-0.173 -1.619995,-0.965 -1.749995,-2.143 -0.18,-1.886 -0.18,-5.346 -0.18,-9.593 v -7.707 c 0,-6.6598001 0,-7.8848001 0.09,-9.2855001 0.09,-1.5311 0.24,-2.274 1.409995,-2.4961 0.53,-0.0856 0.47,-0.1289 0.91,-0.1289 0.43,0 0.7,-0.0906 0.7,-0.4395 0,-0.26260003 -0.35,-0.34960003 -0.92,-0.34960003 -1.659995,0 -3.630995,0.1348 -4.719995,0.1348 -1.275,0 -3.417,-0.1348 -5.082,-0.1348 z"
     sodipodi:nodetypes="ccccsssssssccccccsccccssssssccccccccccssccccscccccccccccsccccscsscsscccsssccssccsscccssscccsssssssccssccsssssssccssccsssss" /></svg>