<?xml version="1.0" encoding="UTF-8" standalone="no"?>
<svg xmlns:rdf="http://www.w3.org/1999/02/22-rdf-syntax-ns#" xmlns="http://www.w3.org/2000/svg" xml:space="preserve" height="82.609" viewBox="0 0 200.46437 82.608749" width="200.46" version="1.1" xmlns:cc="http://creativecommons.org/ns#" xmlns:dc="http://purl.org/dc/elements/1.1/"><g transform="matrix(1.25 0 0 -1.25 -78.75 823.24)"><path d="m6.5273 1.5293c-0.4327 0-0.5644 0.6124-0.5644 1.4902l-0.3965 25.924c-0.0436 3.81-0.2193 5.078-1.3574 5.431-0.6111 0.173-0.3722 0.215-0.9414 0.215-0.4364 0-0.7031 0.091-0.7031 0.353 0 0.392 0.3974 0.438 0.9648 0.438 2.2752 0 3.3085-0.135 3.6992-0.135 0.8338 0 1.5574 0.135 4.4025 0.135 0.61 0 1.008-0.089 1.008-0.438 0-0.262-0.264-0.353-0.746-0.353-0.699 0-0.505-0.041-1.25-0.307-0.875-0.305-1.4423-1.442-1.5297-4.859l-0.4824-18.391h0.1328c0.7862 0.831 5.6473 6.304 10.414 11.033 4.551 4.508 10.154 10.249 12.908 12.877 0.482 0.482 1.011 0.963 1.49 0.963 0.393 0 0.572-0.394 0.572-1.357l0.481-27.633c0.042-2.4514 0.396-3.3751 1.619-3.7246 0.523-0.1274 0.089-0.0383 0.492-0.1289 0.507-0.1217 0.787-0.1339 0.787-0.3965 0-0.3466-0.438-0.3926-1.011-0.3926-2.141 0-2.982 0.1348-3.461 0.1348-0.921 0-1.996-0.1348-4.272-0.1348-0.658 0-1.138 0.046-1.138 0.3926 0 0.2626 0.175 0.3965 0.699 0.3965 0.613 0 0.638 0.0006 1.297 0.2617 1.047 0.4378 1.44 1.2654 1.484 3.9375l0.443 19.666h-0.226c-0.745-0.697-6.648-7.007-9.623-9.987-6.391-6.347-13.046-13.483-13.571-14.056-0.7449-0.786-1.1374-1.3557-1.6207-1.3557zm118.96 0.1328c-0.26 0-0.39 0.263-0.52 0.8281-0.09 0.3532-0.93 4.3338-0.93 5.041 0 0.4764 0.09 0.6973 0.4 0.6973 0.26 0 0.39-0.1759 0.48-0.5234 0.09-0.3543 0.31-0.8823 0.74-1.5352 0.66-0.962 1.71-1.1821 4.25-1.2695l6.52-0.1738v17.953c0 4.028 0 8.006-0.22 9.841-0.13 1.274-0.34 2.132-1.27 2.413-0.61 0.183-1.82 0.183-1.91 0.185-72.534 1.768-131.51 41.911-131.38 42.102 0.1239 0.184 0.3758 0.235 0.5668 0.107 0.487-0.322 49.92-32.328 129.71-38.299 24.29-1.816 39.09-2.372 39.24-2.363 0.2 0.006 0.39-0.133 0.43-0.33 0.03-0.171-5.78-1.489-26.73-1.393-0.38-0.032-0.75-0.075-1.05-0.117-1.31-0.171-1.57-1.136-1.7-2.363-0.22-1.88-0.22-5.755-0.22-9.783v-17.953l5.51 0.1304c3.9 0.0888 5.08 1.3128 5.17 2.4531l0.04 0.4825c0.05 0.6543 0.14 0.875 0.49 0.875 0.26 0 0.34-0.2649 0.39-0.7032 0-1.1422 0.13-4.1598 0.13-5.08 0-0.6585-0.04-0.92-0.35-0.92-0.17 0-0.52 0.0916-1.18 0.2227-0.66 0.0873-1.62 0.2207-3.02 0.2207h-17.33c-1.45 0-3.11-0.0878-4.38-0.2207-1.09-0.0874-1.53-0.5254-1.88-0.5254zm-66.619 0.6113c-0.654 0-0.965 0.0874-0.965 0.3926 0 0.3063 0.267 0.3965 0.746 0.3965 0.611 0 0.944 0.0433 1.299 0.1289 1.445 0.3071 1.382 1.0105 1.469 2.4961 0.087 1.4007 0.088 2.6257 0.088 9.2855v12.57c0 8.583 0.044 12.963-3.285 16.336-0.872 0.871-1.532 1.355-2.098 1.662-0.745 0.396-0.963 0.569-0.963 0.787 0 0.219 0.174 0.352 0.35 0.352 0.216 0 0.569-0.088 0.877-0.264 0.918-0.434 1.619-0.787 2.185-1.141 4.201-2.582 6.522-5.601 7.442-8.273 0.875-2.453 1.052-5.256 1.052-7.754 0-2.186-0.132-4.289-0.132-6.172v-8.103c0-6.6598 0-7.8848 0.085-9.2855 0.089-1.5311 0.234-2.274 1.417-2.4961 0.523-0.0856 0.199-0.082 0.859-0.1289 0.523-0.0441 0.785-0.0902 0.785-0.3965 0-0.3052-0.305-0.3926-0.918-0.3926-1.706 0-3.847 0.1348-4.898 0.1348-1.136 0-3.074-0.1348-5.395-0.1348zm33.697 0c-0.696 0-1.048 0.087-1.048 0.3496 0 0.3489 0.262 0.4395 0.703 0.4395 0.524 0 0.682 0.043 1.164 0.1699 0.964 0.226 1.196 0.9695 1.285 2.4551 0.084 1.4007 0.084 2.6257 0.084 9.2855v7.707c0 4.247 0.001 7.706-0.217 9.545-0.134 1.271-0.19 2.018-1.064 2.191-0.398 0.089-0.507 0.174-1.166 0.174-0.526 0-0.7 0.134-0.7 0.353 0 0.304 0.307 0.438 0.875 0.438 1.75 0 3.891-0.135 4.899-0.135 1.183 0 3.117 0.135 6.007 0.135 0.48 0 0.83-0.134 0.83-0.438 0-0.219-0.22-0.353-0.7-0.353-0.66 0-0.8-0.085-1.41-0.174-1.31-0.173-1.62-0.965-1.75-2.143-0.18-1.886-0.18-5.346-0.18-9.593v-7.707c0-6.6598 0-7.8848 0.09-9.2855 0.09-1.5311 0.24-2.274 1.41-2.4961 0.53-0.0856 0.47-0.1289 0.91-0.1289 0.43 0 0.7-0.0906 0.7-0.4395 0-0.2626-0.35-0.3496-0.92-0.3496-1.66 0-3.631 0.1348-4.72 0.1348-1.275 0-3.417-0.1348-5.082-0.1348zm80.682 51.178c-0.53 0-0.9 0.464-0.9 0.899 0 0.476 0.36 0.992 0.93 0.992 0.59 0 0.94-0.505 0.94-0.992 0-0.478-0.45-0.899-0.97-0.899zm-85.406 0.309c-0.116 0.021-0.406 0.031-1.274 0.035v6.455l-0.08-0.1c-1.805-2.295-3.535-4.357-5.203-6.355 0 0.007-1.105 0.002-1.244 0.002 0.036 0.313 0.049 1.794 0.049 8.849 0.102-0.011 0.39-0.017 1.312-0.029-0.019-0.24-0.026-1.307-0.037-6.365v-0.125s5.28 6.478 5.307 6.508c0.087-0.015 0.353-0.018 1.224-0.018-0.037-0.313-0.054-1.793-0.054-8.857zm25.156 0.008c-0.12 0.012-0.49 0.018-1.63 0.027v8.307c0 0.628-0.12 1.271-0.28 1.562-0.14 0.231-0.33 0.38-0.64 0.482 0.01 0.08 0.01 0.289 0.02 1 1.57-0.086 2.53-1.199 2.53-3.019v-8.359zm38.99 0c-0.13 0.012-0.49 0.018-1.63 0.027v8.853c0.13-0.014 0.5-0.019 1.68-0.031-0.03-0.313-0.05-1.791-0.05-8.849zm38.42 0.656c0 0.037-0.37 0.117-0.37 0.117s-1.09 0.251-1.16 0.266v1.472c-0.03 0.049-0.06 0.072-0.93 0.088 0.02 0.09 0.03 0.289 0.03 0.723 0.08-0.009 0.26-0.016 0.81-0.028 0.07 0.037 0.08 0.041 0.09 3.743 0 1.306 0.65 1.965 1.94 1.965 0.55 0 1.12-0.139 1.59-0.377-0.04-0.077-0.11-0.261-0.27-0.713-0.18 0.134-0.39 0.228-0.75 0.228-0.66 0-0.98-0.52-0.98-1.594v-3.162c0.03-0.05 0.05-0.071 1.72-0.088-0.02-0.089-0.03-0.29-0.03-0.726-0.13 0.013-0.48 0.018-1.6 0.029-0.07-0.036-0.07-0.039-0.09-1.943zm-21.04 0.015c-0.14 0.049-0.52 0.138-1.54 0.368v1.472c-0.02 0.051-0.05 0.072-0.93 0.088 0.02 0.09 0.03 0.289 0.03 0.723 0.08-0.009 0.26-0.016 0.81-0.028 0.07 0.035 0.08 0.041 0.09 3.743 0 1.306 0.65 1.965 1.94 1.965 0.55 0 1.12-0.139 1.59-0.377-0.04-0.077-0.11-0.261-0.26-0.715-0.22 0.154-0.45 0.23-0.76 0.23-0.66 0-0.97-0.52-0.97-1.594v-3.162c0.02-0.052 0.04-0.073 1.71-0.088-0.02-0.089-0.03-0.29-0.03-0.726-0.13 0.013-0.48 0.018-1.6 0.029-0.05-0.027-0.07-0.056-0.08-1.928zm8.45 0c-0.14 0.049-0.51 0.138-1.53 0.368v1.472c-0.03 0.051-0.06 0.072-0.93 0.088 0.01 0.09 0.02 0.289 0.03 0.723 0.07-0.009 0.26-0.016 0.81-0.028 0.07 0.035 0.07 0.041 0.09 3.743 0 1.306 0.65 1.965 1.94 1.965 0.55 0 1.12-0.139 1.59-0.377-0.04-0.077-0.11-0.261-0.27-0.713-0.12 0.097-0.34 0.228-0.76 0.228-0.65 0-0.97-0.52-0.97-1.594v-3.162c0.03-0.052 0.05-0.073 1.71-0.088-0.01-0.089-0.03-0.29-0.03-0.726-0.12 0.013-0.48 0.018-1.59 0.029-0.05-0.027-0.08-0.056-0.09-1.928zm-85.031 1.776c-1.878 0-3.187 1.295-3.187 3.148 0 2.007 1.357 3.407 3.302 3.407 0.462 0 1.391-0.093 2.414-0.676-0.054-0.074-0.16-0.259-0.441-0.774-0.396 0.315-1.036 0.524-1.662 0.524-0.523 0-1.011-0.208-1.375-0.584-0.4-0.415-0.612-0.99-0.592-1.615 0.034-0.066 0.04-0.071 4.252-0.086-0.009-1.08-0.294-2.023-0.844-2.614-0.455-0.485-1.084-0.73-1.867-0.73zm25.161 0c-1.88 0-3.19 1.295-3.19 3.148 0 2.007 1.36 3.407 3.3 3.407 0.47 0 1.4-0.093 2.42-0.676-0.05-0.074-0.16-0.261-0.44-0.774-0.4 0.315-1.04 0.524-1.67 0.524-0.52 0-1-0.208-1.37-0.584-0.4-0.415-0.61-0.99-0.59-1.615 0.03-0.066 0.04-0.071 4.25-0.086-0.01-1.08-0.29-2.023-0.84-2.614-0.46-0.485-1.09-0.73-1.87-0.73zm7.29 0c-0.47 0-0.81 0.451-1.02 0.721l-0.02 0.025-0.34 0.5c-0.16 0.004-0.19-0.988-0.19-1.129-0.14 0.021-0.53 0.035-1.57 0.035 0.03 0.273 0.05 1.427 0.05 6.287 0.15-0.021 0.53-0.033 1.56-0.037-0.01-0.163-0.02-0.756-0.03-3.086 0-1.224 0.47-1.953 1.26-1.953 0.34 0 0.54 0.079 0.79 0.203 0.03-0.086 0.15-0.322 0.58-1.119-0.34-0.268-0.73-0.447-1.07-0.447zm4.14 0c-1.22 0-2.14 0.724-2.14 1.685 0 0.745 0.46 1.206 1.19 1.711l0.3 0.205c0.53 0.355 1.03 0.69 1.03 1.245 0 0.655-0.55 0.884-1.02 0.884-0.55 0-1.13-0.387-1.39-0.59-0.04 0.088-0.15 0.284-0.47 0.819 0.72 0.4 1.34 0.596 2.07 0.596 1.38 0 2.31-0.909 2.31-1.76 0-0.682-0.37-1.296-1.14-1.871l-0.41-0.289c-0.56-0.383-0.97-0.659-0.97-1.118 0-0.513 0.45-0.746 0.87-0.746 0.33 0 0.72 0.15 1.08 0.397 0.04-0.08 0.16-0.259 0.49-0.719-0.42-0.269-1.06-0.449-1.8-0.449zm6.23 0c-1.88 0-3.19 1.295-3.19 3.148 0 2.007 1.36 3.407 3.3 3.407 0.47 0 1.39-0.093 2.41-0.676-0.05-0.074-0.16-0.259-0.44-0.774-0.39 0.315-1.03 0.524-1.66 0.524-0.52 0-1.01-0.208-1.37-0.584-0.4-0.415-0.61-0.99-0.6-1.615 0.04-0.066 0.04-0.071 4.26-0.086-0.01-1.08-0.3-2.023-0.85-2.614-0.45-0.485-1.08-0.73-1.86-0.73zm22.3 0c-0.83 0-1.61 0.321-2.13 0.883l-0.08 0.084-0.07-0.106v-0.746c-0.15 0.023-0.54 0.037-1.57 0.037 0.03 0.273 0.05 1.427 0.05 6.287 0.14-0.021 0.53-0.033 1.56-0.037-0.01-0.178-0.02-0.864-0.03-3.74 0-1.032 0.62-1.697 1.58-1.697 0.89 0 1.37 0.562 1.37 1.58v3.894c0.15-0.021 0.53-0.033 1.57-0.037-0.02-0.185-0.02-0.913-0.04-4.051 0-1.562-0.74-2.351-2.21-2.351zm6.22 0c-1.22 0-2.14 0.724-2.14 1.685 0 0.745 0.45 1.206 1.19 1.711l0.3 0.205c0.53 0.355 1.02 0.69 1.02 1.245 0 0.655-0.54 0.884-1.01 0.884-0.56 0-1.13-0.387-1.39-0.59-0.04 0.088-0.15 0.284-0.48 0.819 0.72 0.4 1.35 0.596 2.08 0.596 1.38 0 2.31-0.909 2.31-1.76 0-0.682-0.37-1.296-1.15-1.871l-0.41-0.289c-0.56-0.383-0.96-0.659-0.96-1.118 0-0.513 0.45-0.746 0.86-0.746 0.34 0 0.73 0.15 1.09 0.397 0.04-0.08 0.15-0.259 0.48-0.719-0.42-0.269-1.06-0.449-1.79-0.449zm32.27 0c-1.88 0-3.19 1.295-3.19 3.148 0 2.007 1.36 3.407 3.3 3.407 0.47 0 1.4-0.093 2.42-0.676-0.05-0.07-0.16-0.254-0.44-0.774-0.4 0.315-1.04 0.524-1.67 0.524-0.52 0-1-0.208-1.37-0.584-0.4-0.413-0.61-0.988-0.59-1.615 0.03-0.066 0.04-0.071 4.25-0.086-0.01-1.08-0.3-2.023-0.85-2.614-0.45-0.485-1.08-0.73-1.86-0.73zm-98.785 0.004c-0.123 0.051-0.477 0.142-1.461 0.324 0.103 0.247 0.503 1.298 2.285 6.1 0.093-0.018 0.345-0.026 1.082-0.026-0.001-0.004-0.003-0.007-0.003-0.013 0-0.056 0.039-0.196 0.039-0.196 0.503-1.329 1.023-2.702 1.513-4.281l0.01-0.045 0.06 0.02c0.05 0.021 0.07 0.033 1.68 4.318 0 0 0.07 0.171 0.09 0.219 0.09-0.013 0.36-0.014 1.28-0.022v-0.004c0-0.157 1.94-5.514 2.2-6.203-0.15-0.002-0.49-0.049-1.31-0.162v0.004c0 0.028-0.06 0.207-0.06 0.207-0.44 1.319-0.88 2.677-1.3 4.275-0.01 0.039-0.04 0.075-0.04 0.075-0.06 0.008-0.13-0.038-0.13-0.038-0.56-1.708-1.12-3.089-1.65-4.427-0.1 0.018-0.36 0.023-1.13 0.023v0.01c0 0.053-0.06 0.254-0.06 0.254-0.5 1.251-1.023 2.544-1.524 4.109l-0.018 0.049-0.053-0.023c-0.048-0.024-0.076-0.037-1.424-4.313 0 0-0.056-0.172-0.076-0.234zm42.895 0.008c-0.12 0.047-0.48 0.126-1.54 0.304 0.12 0.246 0.55 1.25 2.42 5.74-0.67 2.173-1.3 2.594-2.17 2.594h-0.4c0.02 0.101 0.04 0.351 0.04 0.989 0.06-0.008 0.21-0.015 0.62-0.024 1.72 0 2.49-1.728 2.74-2.295 0 0 2.83-6.366 3.14-7.068-0.14-0.005-0.47-0.063-1.31-0.223-0.03 0.074-0.11 0.34-0.11 0.34-0.47 1.194-1.05 2.673-1.59 4.348-0.05 0.071-0.12 0.064-0.17 0.033-0.54-1.727-1.08-3.161-1.6-4.547 0 0-0.05-0.135-0.07-0.191zm41.93 0.105c-0.14 0.021-0.53 0.031-1.56 0.035 0.02 0.187 0.02 0.916 0.03 4.051 0 1.517 0.74 2.352 2.09 2.352 0.73 0 1.34-0.284 1.98-0.924 0.08-0.002 0.12 0.017 0.15 0.808 0.14-0.021 0.53-0.037 1.57-0.037-0.03-0.274-0.05-1.427-0.05-6.281-0.13 0.012-0.48 0.022-1.58 0.031l0.05 3.627c0 1.208-0.72 1.762-1.38 1.762-0.82 0-1.3-0.578-1.3-1.582v-3.842zm-8.39 0.004c-0.12 0.012-0.47 0.022-1.53 0.029v6.291c0.15-0.023 0.54-0.039 1.59-0.039-0.04-0.274-0.06-1.427-0.06-6.281zm-81.286 0.65c0.36 0 0.647 0.114 0.857 0.338 0.277 0.295 0.4 0.782 0.361 1.405-0.035 0.06-0.039 0.069-2.619 0.082-0.029-0.013-0.066-0.219-0.066-0.219v-0.002-0.002c0-0.493 0.155-0.908 0.441-1.201 0.262-0.266 0.608-0.401 1.026-0.401zm25.156 0c0.36 0 0.65 0.114 0.86 0.338 0.28 0.295 0.4 0.782 0.36 1.405-0.03 0.06-0.04 0.069-2.62 0.082-0.09-0.606 0.05-1.096 0.38-1.424 0.26-0.266 0.6-0.401 1.02-0.401zm17.66 0c0.36 0 0.65 0.114 0.86 0.338 0.28 0.295 0.4 0.782 0.36 1.405-0.04 0.06-0.04 0.069-2.62 0.082-0.03-0.013-0.06-0.219-0.06-0.219v-0.002-0.002c0-0.493 0.15-0.908 0.43-1.201 0.27-0.266 0.61-0.401 1.03-0.401zm60.79 0c0.36 0 0.65 0.114 0.86 0.338 0.28 0.295 0.4 0.781 0.36 1.405-0.03 0.06-0.04 0.069-2.62 0.082-0.03-0.013-0.06-0.221-0.06-0.221 0-0.495 0.15-0.91 0.44-1.203 0.26-0.266 0.6-0.401 1.02-0.401zm-78.3 12.616c-0.12 0.011-0.47 0.018-1.52 0.025v9.309c0.15-0.022 0.54-0.031 1.57-0.036-0.02-0.177-0.02-0.866-0.03-3.74 0-1.031 0.61-1.699 1.57-1.699 0.89 0 1.38 0.561 1.38 1.582v3.893c0.15-0.022 0.53-0.031 1.56-0.036-0.01-0.185-0.02-0.917-0.03-4.048 0-1.563-0.75-2.354-2.21-2.354-0.84 0-1.6 0.314-2.13 0.885-0.09 0.004-0.13-0.01-0.16-3.781zm22.14 0.025v9.312c0.15-0.024 0.54 0 1.59 0-0.04-0.318-0.03-9.312-0.03-9.312s-0.5-0.008-1.56 0zm-49.347 0.004c-0.791 0-2.133 0.463-2.133 2.201v0.73c-0.027 0.053-0.052 0.074-1.06 0.088 0.019 0.092 0.03 0.29 0.035 0.725 0.081-0.01 0.287-0.018 0.936-0.027 0.09 0.058 0.089 5.156 0.089 5.588 0.146-0.022 0.536-0.031 1.571-0.036-0.022-0.206-0.024-1.105-0.039-5.462 0.03-0.052 0.05-0.075 1.574-0.09-0.017-0.091-0.03-0.29-0.031-0.727-0.108 0.013-0.411 0.019-1.453 0.031-0.067-0.031-0.074-0.037-0.09-1.129 0-1.026 0.82-1.056 0.912-1.056 0.007 0.001 0.746 0.119 0.746 0.119-0.054-0.008-0.029-0.138 0.201-0.789-0.337-0.086-0.802-0.166-1.258-0.166zm12.267 0.412c-0.26 0.022-1.41 0.024-6.972 0.037l-0.26 0.002 0.041 1.061c0.147-0.013 0.667-0.02 2.69-0.03 0.088 0.058 0.09 7.202 0.09 7.826 0.146-0.023 0.549-0.034 1.661-0.039 0-0.023-0.02-0.587-0.03-7.701 0.06-0.084 2.55-0.086 2.81-0.086-0.02-0.106-0.03-0.368-0.03-1.07zm-19.511 2.455c-1.591 0-3.279 1.121-3.279 3.199 0 1.975 1.348 3.358 3.279 3.358 1.935 0 3.289-1.383 3.289-3.358 0-2.078-1.698-3.199-3.289-3.199zm22.591 0c-1.87 0-3.18 1.295-3.18 3.15 0 2.004 1.35 3.407 3.3 3.407 0.46 0 1.39-0.093 2.41-0.68-0.06-0.071-0.16-0.257-0.44-0.771-0.4 0.317-1.04 0.525-1.67 0.525-0.52 0-1-0.208-1.37-0.584-0.4-0.414-0.61-0.988-0.59-1.617 0.04-0.066 0.04-0.072 4.25-0.086-0.01-1.077-0.29-2.019-0.84-2.61-0.46-0.487-1.09-0.734-1.87-0.734zm7.39 0c-2.33 0-3.55 1.663-3.55 3.303 0 1.126 0.73 3.254 3.46 3.254 0.57 0 1.23-0.181 1.73-0.469-0.04-0.08-0.12-0.288-0.32-0.846-0.32 0.217-0.73 0.336-1.19 0.336-1.22 0-2.04-0.948-2.04-2.363 0-1.544 1.02-2.236 2.03-2.236 0.32 0 0.68 0.084 1.11 0.255 0.02-0.085 0.1-0.301 0.36-0.921-0.46-0.18-1.05-0.313-1.59-0.313zm14.7 0c-0.84 0-1.6 0.314-2.13 0.885l-0.08 0.08-0.08-0.104v-0.746c-0.14 0.024-0.53 0.037-1.57 0.039 0.04 0.272 0.06 1.423 0.06 6.284 0.14-0.022 0.53-0.031 1.56-0.036-0.01-0.177-0.02-0.861-0.03-3.74 0-1.031 0.62-1.699 1.58-1.699 0.89 0 1.37 0.561 1.37 1.582v3.893c0.15-0.022 0.53-0.031 1.57-0.036-0.02-0.185-0.03-0.917-0.04-4.048 0-1.563-0.74-2.354-2.21-2.354zm7.06 0c-1.59 0-3.28 1.121-3.28 3.199 0 1.975 1.35 3.358 3.28 3.358 1.94 0 3.29-1.383 3.29-3.358 0-2.078-1.7-3.199-3.29-3.199zm11.23 0c-1.59 0-3.28 1.121-3.28 3.199 0 1.975 1.35 3.358 3.28 3.358 1.94 0 3.29-1.383 3.29-3.358 0-2.078-1.7-3.199-3.29-3.199zm7.39 0c-1.79 0-2.9 1.662-2.9 3.199 0 2.01 1.1 3.358 2.74 3.358 0.98 0 1.63-0.568 2-1.045 0.11-0.022 0.13-0.022 0.18 0.898 0 1.43-0.78 2.28-2.09 2.28-0.88 0-1.6-0.184-2.21-0.54-0.02 0.113-0.08 0.362-0.28 0.977 0.75 0.292 1.71 0.486 2.62 0.486 1.3 0 3.5-0.479 3.5-3.701v-5.793c-0.15 0.02-0.53 0.03-1.56 0.033 0.01 0.073 0.01 0.232 0.02 0.694l0.01 0.125-0.08-0.094c-0.46-0.531-1.22-0.877-1.95-0.877zm6.19 0.006c-0.13 0.048-0.49 0.131-1.54 0.31 0.11 0.244 0.54 1.248 2.42 5.745-0.67 2.171-1.31 2.587-2.18 2.587h-0.4c0.02 0.104 0.04 0.353 0.04 0.993 0.06-0.009 0.21-0.017 0.63-0.028 1.71 0 2.48-1.724 2.74-2.293-0.01 0.007 0-0.007 3.13-7.068-0.14-0.008-0.46-0.063-1.31-0.223-0.03 0.078-0.15 0.409-0.15 0.409-0.56 1.468-1.05 2.734-1.55 4.283-0.04 0.061-0.1 0.07-0.17 0.029-0.53-1.713-1.06-3.131-1.58-4.506 0-0.006-0.06-0.177-0.08-0.238zm-76.551 0.766c1.221 0 1.656 1.252 1.656 2.427 0 0.777-0.163 2.584-1.656 2.584-1.528 0-1.644-1.978-1.644-2.584 0-1.175 0.432-2.427 1.644-2.427zm22.571 0c0.35 0 0.65 0.116 0.86 0.339 0.27 0.297 0.4 0.78 0.36 1.403-0.04 0.061-0.05 0.07-2.62 0.084-0.03-0.013-0.07-0.221-0.07-0.221v-0.004c0-0.494 0.15-0.906 0.44-1.199 0.26-0.266 0.61-0.402 1.03-0.402zm29.17 0c1.22 0 1.65 1.252 1.65 2.427 0 0.777-0.16 2.584-1.65 2.584-1.53 0-1.65-1.978-1.65-2.584 0-1.175 0.43-2.427 1.65-2.427zm11.23 0c1.22 0 1.65 1.252 1.65 2.427 0 0.777-0.16 2.584-1.65 2.584-1.53 0-1.65-1.978-1.65-2.584 0-1.175 0.43-2.427 1.65-2.427zm7.77 0.078c1.13 0 1.64 1.166 1.64 2.25 0 1.203-0.45 2.607-1.72 2.607-1.08 0-1.57-1.322-1.57-2.545 0-1.47 0.6-2.312 1.65-2.312z" transform="matrix(.8 0 0 -.8 63 658.6)" fill="#c00"/></g></svg>
